<svg version="1.1" id="Layer_1" xmlns="http://www.w3.org/2000/svg" xmlns:xlink="http://www.w3.org/1999/xlink" x="0px" y="0px"
	 width="459.675px" height="646.701px" viewBox="0 0 459.675 646.701" enable-background="new 0 0 459.675 646.701"
	 xml:space="preserve">
<path fill-rule="evenodd" clip-rule="evenodd" fill="#333333" d="M0,576.021v-8l459-60.428v8v8L0,584.021V576.021z M0,548.021
	l459-60.428v8L0,556.021V548.021z M407.126,337.121c16.645-2.191,31.536,5.748,31.536,37.648c0,39.16-21.9,73.283-59.35,78.214
	c-11.827,1.558-26.062,0.131-36.574-2.005l18.645-174.572l-15.33,3.559c0-3.08,2.189-12.829,4.599-15.565
	c6.132-4.107,15.111-7.49,24.528-8.729c2.848-0.375,8.322-0.436,11.17-0.15l-5.066,66.524c-1.095,11.144-2.161,27.388-4.789,37.634
	l0.628-0.347C381.721,349.046,391.795,339.14,407.126,337.121z M374.713,375.488l-6.352,60.017
	c3.285,0.668,7.666,0.971,12.265,0.365c23.872-3.143,32.632-27.616,32.632-52.916c0-18.26-4.599-27.335-15.33-25.922
	C388.729,358.243,379.312,366.743,374.713,375.488z M197.782,307.075l15.769-3.616c0,4.4-2.409,12.637-4.818,16.695
	c-7.008,3.562-21.682,8.354-29.347,9.364c-2.628-4.274-4.818-11.686-5.475-17.1l-1.533,0.202
	c-5.913,10.458-16.207,19.954-33.289,22.203c-13.14,1.73-26.5-3.111-26.5-25.111c0-13.42,6.132-50.748,8.541-64.485l-15.549,3.587
	c0-2.86,2.19-12.829,4.599-15.566c5.913-4.079,15.111-7.489,24.748-8.758c2.847-0.375,8.322-0.436,11.169-0.15
	c-2.628,20.366-8.104,65.747-8.104,75.867c0,9.9,3.504,15.819,12.265,14.666c8.979-1.183,17.958-9.185,22.776-17.739l7.884-59.778
	l-14.455,3.443c0-3.08,2.409-12.857,4.818-15.594c5.694-4.05,14.235-7.375,23.652-8.614c2.847-0.375,8.103-0.407,10.731-0.093
	l-8.979,86.763C196.688,304.139,197.345,306.693,197.782,307.075z M177.274,480.407l-9.999-84.015l-1.895,0.261
	c-7.156,28.178-17.996,65.529-28.1,92.123l-26.1-1.271l-9.472-90.233l-13.682,5.21c0-3.096,1.895-12.862,3.999-15.806
	c5.894-3.906,13.472-8.718,20.628-9.703c3.789-0.521,7.367-0.571,10.735,0.07l5.051,63.87c0.421,6.354,0.631,18.927,0.631,26.664
	l1.895-0.261c8.841-27.305,17.365-62.789,23.89-90.217l30.521-4.854l7.367,59.1c0.842,7.18,3.263,21.502,3.263,29.019l1.894-0.261
	c8.84-23.767,16.102-52.245,22.627-75.251c0-0.664-0.421-2.596-0.842-3.643l-13.892,3.018c0.421-4.479,2.736-12.979,5.683-16.479
	c4.631-2.627,17.26-6.354,21.891-6.992c3.788,2.794,8.63,12.519,8.63,16.72c-10.735,31.323-23.89,70.119-39.677,104.349
	L177.274,480.407z M223.349,304.943l16.863-129.161l-15.331,3.559c0-3.08,2.19-12.829,4.599-15.566
	c6.132-4.107,15.111-7.489,24.528-8.729c2.847-0.375,8.322-0.436,11.169-0.15l-16.206,141.394c0,0.88,0.657,2.994,1.096,3.596
	l16.206-3.894c0,4.4-2.409,12.637-4.6,16.666c-7.227,3.812-21.9,8.383-29.565,9.392
	C227.947,318.197,223.349,309.563,223.349,304.943z M323.871,288.409c0,4.4-2.409,12.637-4.599,16.666
	c-7.228,3.812-21.9,8.383-29.565,9.393c-4.162-3.853-8.761-12.487-8.761-17.107l16.863-129.161l-15.33,3.558
	c0-3.08,2.189-12.829,4.599-15.566c6.133-4.107,15.111-7.489,24.529-8.729c2.847-0.375,8.322-0.436,11.169-0.15l-16.207,141.395
	c0,0.88,0.657,2.993,1.096,3.596L323.871,288.409z M289.957,444.287c10.294-1.355,25.843-8.022,34.822-14.484
	c0,5.061-1.971,12.8-4.381,17.297c-8.321,7.915-21.9,16.523-38.325,18.686c-23.652,3.114-34.603-9.305-34.603-35.704
	c0-18.04,5.256-40.072,16.425-55.403c9.198-12.431,22.558-21.67,39.421-23.89c19.054-2.509,29.565,6.008,29.565,22.508
	c0,17.38-11.826,36.977-60.226,45.989v4.84C272.656,440.405,278.131,445.844,289.957,444.287z M309.229,377.729
	c0-7.04-2.628-11.974-9.854-11.022c-7.446,0.98-14.455,7.183-18.835,15.02c-3.504,6.182-5.476,14.581-6.351,21.296
	C304.631,397.476,309.229,386.97,309.229,377.729z M34.377,241.424c3.942-2.059,9.198-4.291,14.016-5.806l1.314-11.173
	c3.723-31.73,23.872-46.703,45.553-49.557c6.79-0.894,15.55-0.728,24.748,1.142c0,8.14-3.285,21.553-6.789,29.494
	c-5.256,0.692-13.36-0.662-17.302-2.562l1.752-12.331c-1.533-0.678-3.723-0.61-5.256-0.408c-8.541,1.125-17.521,9.347-19.93,29.904
	l-1.752,14.971l28.033-3.69c0.438,4.342,0,12.54-0.876,17.056l-28.69,3.777L58.934,381.755c-3.504,1.122-11.198,4.312-16.235,4.975
	c-4.161,0.548-7.884,0.817-10.95,0.341l14.673-131.832l-17.301,2.278C29.778,252.37,32.406,245.204,34.377,241.424z M0,142.021
	l459-60.429v8L0,150.021V142.021z M0,122.021v-8l459-60.429v8v8L0,130.021V122.021z M446.856,29.78l-11.024-12.011l-0.105,0.014
	v13.462l-6.467,0.851V3.37l6.467-0.851v11.872l0.105-0.014l10.494-13.253L454.859,0L441.98,15.052l13.567,13.583L446.856,29.78z
	 M380.554,30.665c0.742,0.715,1.625,1.244,2.65,1.585c1.024,0.342,2.173,0.43,3.444,0.262c2.721-0.358,4.894-1.775,6.52-4.25
	l5.088,3.199c-1.166,1.744-2.677,3.25-4.531,4.519c-1.855,1.269-4.285,2.101-7.288,2.497c-2.332,0.307-4.435,0.221-6.307-0.256
	c-1.873-0.477-3.48-1.291-4.823-2.439s-2.377-2.61-3.101-4.388c-0.725-1.777-1.086-3.814-1.086-6.111
	c0-2.296,0.405-4.426,1.219-6.388c0.812-1.962,1.916-3.679,3.312-5.153c1.396-1.473,3.056-2.689,4.981-3.65
	c1.926-0.96,4.002-1.587,6.229-1.88c2.154-0.283,4.187-0.162,6.095,0.364c1.908,0.526,3.498,1.519,4.77,2.976l-4.929,4.73
	c-0.707-0.896-1.582-1.541-2.623-1.934c-1.043-0.393-2.2-0.505-3.472-0.338c-1.272,0.168-2.43,0.541-3.472,1.12
	c-1.043,0.58-1.935,1.324-2.677,2.234c-0.742,0.911-1.316,1.958-1.723,3.142c-0.406,1.185-0.609,2.465-0.609,3.843
	c0,1.343,0.203,2.553,0.609,3.63C379.237,29.054,379.812,29.95,380.554,30.665z M332.961,38.521l-11.819,1.556l-2.491,6.582
	l-6.996,0.921l12.455-30.366l6.201-0.816l12.402,27.093l-7.208,0.949L332.961,38.521z M327.024,24.303l-3.869,10.42L331,33.69
	L327.024,24.303z M277.945,52.017l-6.466,0.851V29.602l-8.374,1.103v-5.459l23.214-3.056v5.459l-8.374,1.103V52.017z
	 M227.807,35.483c-1.074-0.476-2.227-0.634-3.459-0.472c-0.528,0.069-1.056,0.192-1.584,0.367c-0.528,0.176-0.996,0.405-1.4,0.688
	c-0.405,0.284-0.73,0.635-0.977,1.056c-0.247,0.421-0.369,0.896-0.369,1.427c0,0.53,0.123,0.964,0.369,1.303
	c0.247,0.338,0.625,0.616,1.135,0.831c0.51,0.216,1.126,0.382,1.849,0.499s1.558,0.237,2.508,0.359
	c0.986,0.118,1.999,0.302,3.037,0.554c1.038,0.252,1.98,0.649,2.825,1.191c0.845,0.543,1.54,1.264,2.086,2.164
	c0.546,0.9,0.818,2.039,0.818,3.417c0,1.732-0.31,3.248-0.927,4.548c-0.619,1.3-1.458,2.4-2.518,3.299
	c-1.061,0.9-2.271,1.616-3.631,2.147c-1.36,0.532-2.782,0.896-4.267,1.092c-2.12,0.279-4.187,0.153-6.201-0.376
	s-3.675-1.468-4.982-2.815l4.505-5.151c0.707,0.932,1.669,1.653,2.889,2.164c1.219,0.511,2.57,0.668,4.054,0.473
	c0.495-0.065,0.998-0.185,1.511-0.358c0.512-0.173,0.98-0.412,1.404-0.715c0.424-0.303,0.769-0.675,1.034-1.117
	c0.265-0.44,0.397-0.979,0.397-1.616c0-0.6-0.133-1.086-0.397-1.458c-0.265-0.371-0.654-0.673-1.166-0.907
	c-0.513-0.232-1.158-0.412-1.935-0.54c-0.778-0.127-1.679-0.247-2.703-0.36c-1.025-0.112-2.014-0.292-2.968-0.537
	c-0.954-0.246-1.812-0.627-2.57-1.146c-0.761-0.518-1.37-1.206-1.829-2.065c-0.459-0.858-0.688-1.958-0.688-3.301
	c0-1.59,0.309-3,0.927-4.229c0.618-1.229,1.439-2.283,2.464-3.16c1.024-0.877,2.182-1.577,3.472-2.1
	c1.289-0.522,2.605-0.873,3.948-1.05c1.979-0.26,3.896-0.159,5.751,0.303c1.854,0.463,3.347,1.361,4.479,2.696l-4.384,4.764
	C229.716,36.584,228.879,35.961,227.807,35.483z M165.533,38.09l6.466-0.851v23.055l11.713-1.542v5.671l-18.179,2.393V38.09z
	 M116.084,44.601l6.466-0.852v23.055l11.713-1.542v5.671l-18.179,2.393V44.601z M78.296,76.049
	c-1.096,1.117-2.377,2.027-3.843,2.732c-1.466,0.705-3.03,1.167-4.69,1.386c-1.661,0.219-3.225,0.168-4.69-0.151
	c-1.467-0.318-2.748-0.892-3.842-1.72c-1.096-0.827-1.953-1.916-2.571-3.266s-0.927-2.943-0.927-4.78V52.283l6.466-0.851v17.49
	c0,1.768,0.451,3.174,1.352,4.221s2.306,1.445,4.213,1.194c1.908-0.251,3.321-1.021,4.24-2.307c0.918-1.287,1.378-2.813,1.378-4.581
	v-17.49l6.466-0.852v17.967c0,1.837-0.318,3.513-0.954,5.028C80.257,73.618,79.391,74.934,78.296,76.049z M12.364,70.499
	l12.137-1.598v5.194l-12.137,1.598v11.289l-6.466,0.852V59.107l19.345-2.547v5.459l-12.879,1.696V70.499z M26.137,635.265
	l0.106-0.015v-19.821l6.201-0.816v28.726l-7.844,1.033l-11.395-18.375l-0.106,0.014v19.875l-6.201,0.816v-28.726l7.844-1.033
	L26.137,635.265z M79.932,613.713l-13.356,1.759v6.042l12.667-1.668v5.088l-12.667,1.668v6.73l14.045-1.849v5.512l-20.511,2.7
	v-28.673l19.822-2.609V613.713z M115.282,623.846l0.106-0.014l5.565-20.873l7.155-0.941l5.618,19.4l0.106-0.014l5.3-20.838
	l6.943-0.914l-8.692,29.87l-6.996,0.921l-5.83-19.055l-0.106,0.015l-5.83,20.589l-6.943,0.914l-8.745-27.574l7.155-0.942
	L115.282,623.846z M174.562,618.691c1.219,0.512,2.57,0.669,4.054,0.474c0.495-0.065,0.998-0.185,1.511-0.357
	c0.512-0.174,0.98-0.412,1.404-0.716c0.424-0.302,0.769-0.675,1.034-1.116c0.265-0.44,0.397-0.979,0.397-1.616
	c0-0.6-0.133-1.086-0.397-1.458c-0.265-0.37-0.654-0.673-1.166-0.906c-0.513-0.232-1.158-0.412-1.935-0.54
	c-0.778-0.127-1.679-0.247-2.703-0.359c-1.025-0.112-2.014-0.292-2.968-0.537s-1.812-0.627-2.571-1.146
	c-0.76-0.518-1.37-1.206-1.829-2.065c-0.459-0.857-0.688-1.958-0.688-3.301c0-1.59,0.309-3,0.927-4.229
	c0.618-1.229,1.439-2.283,2.464-3.16c1.024-0.877,2.182-1.576,3.472-2.1c1.289-0.522,2.605-0.873,3.948-1.05
	c1.979-0.261,3.896-0.159,5.751,0.303c1.854,0.463,3.347,1.361,4.478,2.696l-4.383,4.764c-0.599-0.769-1.435-1.392-2.508-1.869
	c-1.074-0.477-2.227-0.634-3.459-0.472c-0.528,0.069-1.056,0.191-1.584,0.367c-0.529,0.176-0.996,0.405-1.4,0.688
	c-0.405,0.284-0.73,0.636-0.977,1.057c-0.247,0.422-0.369,0.896-0.369,1.427c0,0.529,0.123,0.964,0.369,1.303
	s0.625,0.615,1.135,0.831c0.51,0.216,1.126,0.382,1.849,0.498c0.722,0.117,1.558,0.237,2.508,0.359
	c0.985,0.118,1.998,0.303,3.037,0.554c1.039,0.253,1.98,0.649,2.825,1.192s1.541,1.264,2.086,2.163
	c0.545,0.9,0.819,2.038,0.819,3.417c0,1.731-0.31,3.247-0.928,4.547c-0.619,1.301-1.458,2.4-2.517,3.3
	c-1.061,0.899-2.271,1.615-3.631,2.147c-1.36,0.532-2.782,0.896-4.267,1.092c-2.12,0.279-4.187,0.153-6.201-0.376
	c-2.014-0.53-3.675-1.469-4.982-2.815l4.505-5.151C172.38,617.46,173.343,618.182,174.562,618.691z M222.182,612.688l11.713-1.542
	v5.671l-18.179,2.394v-28.727l6.466-0.851V612.688z M278.097,587.624l-13.355,1.759v6.042l12.667-1.668v5.088l-12.667,1.668v6.73
	l14.045-1.849v5.512l-20.511,2.7v-28.673l19.821-2.609V587.624z M324.207,581.66l-8.374,1.102v23.268l-6.466,0.852v-23.268
	l-8.374,1.103v-5.459l23.214-3.056V581.66z M366.66,576.07l-8.374,1.103v23.268l-6.466,0.851v-23.267l-8.375,1.103v-5.459
	l23.215-3.057V576.07z M410.332,570.215l-13.356,1.759v6.042l12.667-1.668v5.088l-12.667,1.668v6.73l14.045-1.849v5.512
	l-20.511,2.701v-28.674l19.822-2.609V570.215z M451.672,559.818c1.307,0.129,2.464,0.472,3.472,1.03
	c1.007,0.558,1.802,1.347,2.385,2.367s0.874,2.327,0.874,3.919c0,2.089-0.529,3.885-1.59,5.387c-1.06,1.503-2.385,2.606-3.975,3.312
	l6.837,11.259l-7.632,1.005l-5.725-10.43l-2.809,0.37v11.184l-6.466,0.851v-28.778l10.44-1.375
	C448.969,559.723,450.364,559.689,451.672,559.818z M443.51,565.741v7.367l3.286-0.433c0.601-0.079,1.21-0.213,1.828-0.4
	c0.618-0.187,1.166-0.453,1.644-0.799c0.477-0.345,0.865-0.794,1.166-1.346c0.299-0.552,0.45-1.234,0.45-2.047
	c0-0.671-0.133-1.21-0.397-1.617c-0.266-0.406-0.619-0.714-1.061-0.921c-0.441-0.206-0.945-0.326-1.51-0.357
	c-0.566-0.031-1.132-0.01-1.696,0.064L443.51,565.741z"/>
</svg>
