<svg style="position: absolute; width: 0; height: 0;" width="0" height="0" version="1.1" xmlns="http://www.w3.org/2000/svg" xmlns:xlink="http://www.w3.org/1999/xlink">
<defs>
<symbol id="icon--phone" viewBox="0 0 1024 1024">
	<title>phone</title>
	<path class="path1" d="M768 0h-512c-53.056 0-96 42.976-96 96v832c0 53.056 42.976 96 96 96h512c52.992 0 96-43.008 96-96v-832c0-53.056-43.008-96-96-96zM800 928c0 17.632-14.368 32-32 32h-512c-17.664 0-32-14.304-32-32v-64.128h576v64.128zM800 831.872h-576v-639.872h576v639.872zM800 160h-576v-64c0-17.664 14.336-32 32-32h512c17.632 0 32 14.336 32 32v64zM576 112c0 8.832-7.2 16-16 16h-96c-8.864 0-16-7.168-16-16v0c0-8.864 7.136-16 16-16h96c8.8 0 16 7.136 16 16v0zM544 911.872c0 8.8-7.2 16-16 16h-32c-8.832 0-16-7.2-16-16v0c0-8.864 7.168-16 16-16h32c8.8 0 16 7.136 16 16v0z"></path>
</symbol>
<symbol id="icon--github-alt" viewBox="0 0 950.8550338745117 1024">
	<title>github-alt</title>
	<path class="path1" d="M365.714 694.857q0 22.857-7.143 46.857t-24.571 43.429-41.429 19.429-41.429-19.429-24.571-43.429-7.143-46.857 7.143-46.857 24.571-43.429 41.429-19.429 41.429 19.429 24.571 43.429 7.143 46.857zM731.429 694.857q0 22.857-7.143 46.857t-24.571 43.429-41.429 19.429-41.429-19.429-24.571-43.429-7.143-46.857 7.143-46.857 24.571-43.429 41.429-19.429 41.429 19.429 24.571 43.429 7.143 46.857zM822.857 694.857q0-68.571-39.429-116.571t-106.857-48q-23.429 0-111.429 12-40.571 6.286-89.714 6.286t-89.714-6.286q-86.857-12-111.429-12-67.429 0-106.857 48t-39.429 116.571q0 50.286 18.286 87.714t46.286 58.857 69.714 34.286 80 16.857 85.143 4h96q46.857 0 85.143-4t80-16.857 69.714-34.286 46.286-58.857 18.286-87.714zM950.857 594.286q0 118.286-34.857 189.143-21.714 44-60.286 76t-80.571 49.143-97.143 27.143-98 12.571-95.429 2.571q-44.571 0-81.143-1.714t-84.286-7.143-87.143-17.143-78.286-29.429-69.143-46.286-49.143-65.714q-35.429-70.286-35.429-189.143 0-135.429 77.714-226.286-15.429-46.857-15.429-97.143 0-66.286 29.143-124.571 61.714 0 108.571 22.571t108 70.571q84-20 176.571-20 84.571 0 160 18.286 60-46.857 106.857-69.143t108-22.286q29.143 58.286 29.143 124.571 0 49.714-15.429 96 77.714 91.429 77.714 227.429z"></path>
</symbol>
<symbol id="icon--skype" viewBox="0 0 877.7150497436523 1024">
	<title>skype</title>
	<path class="path1" d="M670.286 607.429q0-28.571-11.143-52.286t-27.714-39.143-41.714-28-47.143-19.429-50-13.143l-59.429-13.714q-17.143-4-25.143-6t-20-6.571-17.143-9.143-9.429-12-4.286-17.143q0-44 82.286-44 24.571 0 44 6.857t30.857 16.286 21.714 19.143 22.857 16.571 27.429 6.857q26.857 0 43.143-18.286t16.286-44q0-31.429-32-56.857t-81.143-38.571-104-13.143q-38.857 0-75.429 8.857t-68.286 26.857-50.857 49.714-19.143 73.429q0 34.857 10.857 60.857t32 43.143 45.714 27.714 58.857 18.571l83.429 20.571q51.429 12.571 64 20.571 18.286 11.429 18.286 34.286 0 22.286-22.857 36.857t-60 14.571q-29.143 0-52.286-9.143t-37.143-22-26-25.714-26.286-22-30.857-9.143q-28.571 0-43.143 17.143t-14.571 42.857q0 52.571 69.714 90t166.286 37.429q41.714 0 80-10.571t70-30.571 50.571-53.429 18.857-75.143zM877.714 731.429q0 90.857-64.286 155.143t-155.143 64.286q-74.286 0-133.714-45.714-44 9.143-85.714 9.143-81.714 0-156.286-31.714t-128.571-85.714-85.714-128.571-31.714-156.286q0-41.714 9.143-85.714-45.714-59.429-45.714-133.714 0-90.857 64.286-155.143t155.143-64.286q74.286 0 133.714 45.714 44-9.143 85.714-9.143 81.714 0 156.286 31.714t128.571 85.714 85.714 128.571 31.714 156.286q0 41.714-9.143 85.714 45.714 59.429 45.714 133.714z"></path>
</symbol>
<symbol id="icon--mail" viewBox="0 0 1024 1024">
	<title>mail</title>
	<path class="path1" d="M170.667 128h682.667q53 0 90.5 37.5t37.5 90.5v512q0 53-37.5 90.5t-90.5 37.5h-682.667q-53 0-90.5-37.5t-37.5-90.5v-512q0-53 37.5-90.5t90.5-37.5zM896 768v-466l-357.333 286q-11.333 9.333-26.667 9.333t-26.667-9.333l-357.333-286v466q0 17.667 12.5 30.167t30.167 12.5h682.667q17.667 0 30.167-12.5t12.5-30.167zM853.333 213.333h-682.667q-6.333 0-14 2.333l355.333 284.333 355.333-284.333q-7.667-2.333-14-2.333z"></path>
</symbol>
</defs>
</svg>
