<?xml version="1.0" encoding="utf-8"?>
<!-- Generated by IcoMoon.io -->
<!DOCTYPE svg PUBLIC "-//W3C//DTD SVG 1.1//EN" "http://www.w3.org/Graphics/SVG/1.1/DTD/svg11.dtd">
<svg version="1.1" xmlns="http://www.w3.org/2000/svg" xmlns:xlink="http://www.w3.org/1999/xlink" width="32" height="32" viewBox="0 0 32 32">
<path fill="#444" d="M20.768 16.563c-0.020-2.275 1.806-3.368 1.888-3.421-1.027-1.547-2.626-1.759-3.196-1.784-1.36-0.142-2.655 0.824-3.344 0.824s-1.755-0.803-2.883-0.781c-1.484 0.023-2.851 0.887-3.615 2.254-1.54 2.75-0.393 6.826 1.107 9.058 0.734 1.091 1.609 2.321 2.758 2.275 1.108-0.045 1.526-0.737 2.863-0.737s1.713 0.737 2.884 0.715c1.19-0.024 1.946-1.115 2.674-2.21 0.841-1.267 1.189-2.493 1.209-2.558-0.026-0.011-2.321-0.917-2.345-3.637z"></path>
<path fill="#444" d="M16.904 8.374c-0.565 0.672-1.060 1.748-0.926 2.781 0.98 0.078 1.981-0.513 2.591-1.273 0.61-0.76 1.022-1.818 0.908-2.871-0.879 0.036-1.942 0.603-2.573 1.363z"></path>
</svg>
