<?xml version="1.0" encoding="utf-8"?>
<!-- Generated by IcoMoon.io -->
<!DOCTYPE svg PUBLIC "-//W3C//DTD SVG 1.1//EN" "http://www.w3.org/Graphics/SVG/1.1/DTD/svg11.dtd">
<svg version="1.1" xmlns="http://www.w3.org/2000/svg" xmlns:xlink="http://www.w3.org/1999/xlink" width="32" height="32" viewBox="0 0 32 32">
<path fill="#444" d="M9.949 16.822c0.021-0.041 0.055-0.11 0.069-0.144l0.835-2.026 0.821 2.046c0.014 0.034 0.041 0.089 0.061 0.137l-0.102 0.021c-0.233 0.062-0.493 0.103-0.76 0.103s-0.514-0.034-0.774-0.103c-0.048-0.014-0.116-0.034-0.151-0.034zM1.454 13.734c0.931 0 1.588 0.192 1.999 0.555 0.493 0.431 0.739 0.999 0.739 1.711 0 0.677-0.24 1.239-0.712 1.677-0.411 0.39-1.081 0.595-2.026 0.595h-0.301v-4.538h0.301zM30.203 14.316c0.466 0.452 0.692 1.020 0.692 1.684 0 0.657-0.233 1.218-0.692 1.684-0.459 0.459-1.013 0.691-1.663 0.691-1.308 0-2.348-1.075-2.348-2.375 0-0.657 0.233-1.225 0.691-1.691 0.452-0.459 1.013-0.685 1.657-0.685s1.198 0.233 1.663 0.692zM19.177 14.713l0.828-0.712c-0.712-0.951-1.663-1.424-2.786-1.424-1.91 0-3.45 1.526-3.45 3.436 0 1.869 1.533 3.409 3.402 3.409 0.472 0 0.924-0.103 1.362-0.301 0.425-0.192 0.794-0.459 1.096-0.808 0.287-0.322 0.472-0.691 0.582-1.095 0.089-0.335 0.144-0.746 0.116-1.239l-0.014-0.198h-2.984v1.048h1.834c-0.048 0.411-0.26 0.767-0.63 1.061-0.404 0.328-0.863 0.486-1.376 0.486-0.596 0-1.13-0.246-1.622-0.732-0.445-0.452-0.671-0.993-0.671-1.622 0-0.664 0.233-1.239 0.712-1.718 0.452-0.459 0.999-0.678 1.629-0.678 0.808 0 1.444 0.37 1.972 1.088zM12.16 17.869l0.609 1.451h1.205l-2.827-6.653h-0.548l-2.902 6.653h1.198l0.637-1.478c0.014-0.041 0.020-0.069 0.027-0.096 0.027 0.014 0.069 0.027 0.116 0.048 0.356 0.137 0.781 0.212 1.198 0.212 0.411 0 0.815-0.082 1.054-0.164 0.123-0.041 0.164-0.061 0.198-0.082 0.007 0.027 0.027 0.089 0.034 0.109zM1.42 19.32c1.219 0 2.156-0.274 2.786-0.842 0.719-0.643 1.081-1.465 1.081-2.471 0-1.047-0.37-1.889-1.109-2.519-0.623-0.534-1.547-0.801-2.745-0.801h-1.417v6.633h1.403zM7.266 12.687h-1.088v6.633h1.088v-6.633zM22.126 16.226h2.321v-1.040h-2.321v-1.451h2.526v-1.047h-3.614v6.633h3.621v-1.047h-2.533v-2.047zM26.11 13.584c-0.678 0.664-1.013 1.478-1.013 2.423 0 1.91 1.54 3.416 3.443 3.416 1.91 0 3.443-1.499 3.443-3.416 0-0.938-0.342-1.739-1.006-2.416-0.671-0.678-1.486-1.013-2.437-1.013-0.945 0-1.759 0.335-2.43 1.006z"></path>
</svg>
