<?xml version="1.0" encoding="utf-8"?>
<svg version="1.1" xmlns="http://www.w3.org/2000/svg" xmlns:xlink="http://www.w3.org/1999/xlink" width="32" height="32" viewBox="0 0 32 32">
  <g transform="matrix(0.322334, 0, 0, 0.322334, -0.003847, 12.590571)">
    <g>
      <g>
        <g>
          <g>
            <path fill="#444" d="M12.8,9.5c0,0,0,6,0,6c0,0.8-0.7,1.4-1.5,1.4c-0.4,0-0.8,0-0.8,0v0.3h6.9v-0.3c0,0-0.4,0-0.8,0&#10;&#9;&#9;&#9;&#9;&#9;&#9;c-0.8,0-1.5-0.7-1.5-1.4V9.4c0,0,0-6.3,0-7.3c0-0.7,0.7-1.4,1.5-1.4c0.4,0,0.8,0,0.8,0V0.4h-6.9v0.3c0,0,0.4,0,0.8,0&#10;&#9;&#9;&#9;&#9;&#9;&#9;c0.9,0,1.5,0.7,1.5,1.4c0,1,0,6.5,0,6.5H4.6c0,0,0-5.6,0-6.5c0-0.7,0.7-1.4,1.5-1.4c0.4,0,0.8,0,0.8,0V0.4H0v0.3&#10;&#9;&#9;&#9;&#9;&#9;&#9;c0,0,0.4,0,0.8,0c0.9,0,1.5,0.7,1.5,1.4c0,1,0,7.3,0,7.3v6.1c0,0.7-0.7,1.4-1.5,1.4c-0.4,0-0.8,0-0.8,0v0.3h6.9v-0.3&#10;&#9;&#9;&#9;&#9;&#9;&#9;c0,0-0.4,0-0.8,0c-0.8,0-1.5-0.7-1.5-1.4c0,0,0-6,0-6H12.8z"/>
          </g>
          <g>
            <path fill="#444" d="M29.2,12.8c0.1,1-0.6,2.5-1.4,3.3c-0.8,0.7-2,1.4-3.5,1.4c-1.8,0-3.3-0.9-3.9-1.2c-0.3-0.1-0.8-0.1-1,0&#10;&#9;&#9;&#9;&#9;&#9;&#9;c-0.3,0.2-0.5,0.5-0.6,1.1h-0.3v-5.8h0.3c0.2,1.8,1.1,2.9,1.6,3.5c0.9,1,2.5,1.5,4,1.3c1.2-0.2,2.6-1.5,2.4-3.2&#10;&#9;&#9;&#9;&#9;&#9;&#9;c-0.1-0.6-0.2-1.5-1.4-2.3c-0.8-0.5-1.9-1.2-2.9-1.9c-1.3-0.9-2.5-1.8-2.9-2.2c-0.4-0.5-1-1.2-1-2.4c0-1,0.4-2.1,1.2-2.9&#10;&#9;&#9;&#9;&#9;&#9;&#9;c0.8-0.8,1.9-1.3,3.5-1.3c1.6,0,2.7,0.8,3.1,1c0.4,0.2,0.8,0.1,1.1,0C27.7,1,27.9,0.8,28,0.2h0.3v5.5H28&#10;&#9;&#9;&#9;&#9;&#9;&#9;c-0.2-1.8-1-3.1-1.6-3.6c-0.5-0.5-1.6-1.2-3.2-0.9c-1.5,0.3-2.3,1-2.4,2.2c-0.1,0.9,0.4,1.5,0.7,1.8c0.6,0.7,4.3,2.8,6,4.3&#10;&#9;&#9;&#9;&#9;&#9;&#9;C28.4,10.3,29.1,11.2,29.2,12.8z"/>
          </g>
          <path fill="#444" d="M40.1,8.6c3,1,3.9,3.2,3.3,5.3c-0.7,2.6-3.6,3.1-4.5,3.2c-0.4,0.1-1.5,0.1-2.6,0.1c-1.9,0-4.3,0-6.3,0&#10;&#9;&#9;&#9;&#9;&#9;v-0.3c0,0,0.5,0,1,0c0.6,0,1.4-0.5,1.4-1.3c0,0,0-12.7,0-13.5c0-0.8-0.7-1.3-1.3-1.3c-0.5,0-1,0-1,0V0.5c1.7,0,4.2,0,6,0&#10;&#9;&#9;&#9;&#9;&#9;c1.4,0,2.2,0.1,2.7,0.2c0.9,0.2,3.3,0.9,3.9,3.2C43.2,5.7,42.3,8,40.1,8.6z M34.7,8.1c0.8,0.2,3.3,0.3,4.2-0.3&#10;&#9;&#9;&#9;&#9;&#9;c1.5-0.9,2-2.5,1.7-3.8c-0.2-0.8-0.6-1.5-1.3-2.1c-1.4-1-3.5-0.9-4.6-0.5V8.1z M34.7,16.3c1.2,0.4,3.4,0.6,4.9-0.5&#10;&#9;&#9;&#9;&#9;&#9;c1.9-1.3,2.3-4.6-0.4-6.3c-1.1-0.7-3.7-0.6-4.6-0.4V16.3z"/>
          <g>
            <path fill="#444" d="M59.3,0.7l0.2,5.7l-0.3,0c-0.2-1.4-0.7-2.5-1.4-3.1c-0.2-0.2-0.6-0.6-1.1-0.9c-0.9-0.6-2.2-1.1-3.8-0.8&#10;&#9;&#9;&#9;&#9;&#9;&#9;c-2.4,0.4-3.6,2-4.2,3.5c-0.8,1.9-1.2,5.1,0,7.8c1,2.2,3,3.1,4.6,3.3c1.3,0.2,4.2,0.1,6.5-2.9l0.4,0.2c-1.7,2.4-4,4-6.6,4&#10;&#9;&#9;&#9;&#9;&#9;&#9;c-3.4,0-5.5-1.9-6.4-3c-1-1.2-1.8-3.4-1.8-5.3c0-1.7,0.4-3.6,1-4.7c1.1-1.9,3.3-3.8,6.2-4.1c2.2-0.2,3.6,0.2,4.8,0.9&#10;&#9;&#9;&#9;&#9;&#9;&#9;c0.6,0.3,1,0.4,1.3,0.2c0.3-0.1,0.6-0.4,0.6-1H59.3z"/>
          </g>
        </g>
        <g>
          <rect x="73.5" y="0.4" fill="none" width="16.9" height="16.9"/>
          <g>
            <polygon fill="#444" points="65.1,8.8 73.5,17.2 73.5,0.4 &#9;&#9;&#9;&#9;&#9;"/>
          </g>
          <g>
            <polygon fill="#444" points="73.5,17.2 90.4,17.2 81.9,8.8 &#9;&#9;&#9;&#9;&#9;"/>
          </g>
          <g>
            <polygon fill="#444" points="81.9,8.8 90.4,0.4 73.5,0.4 &#9;&#9;&#9;&#9;&#9;"/>
          </g>
          <g>
            <polygon fill="#444" points="90.4,0.4 90.4,17.2 98.8,8.8 &#9;&#9;&#9;&#9;&#9;"/>
          </g>
        </g>
      </g>
    </g>
  </g>
</svg>
