<?xml version="1.0" encoding="utf-8"?>
<!-- Generated by IcoMoon.io -->
<!DOCTYPE svg PUBLIC "-//W3C//DTD SVG 1.1//EN" "http://www.w3.org/Graphics/SVG/1.1/DTD/svg11.dtd">
<svg version="1.1" xmlns="http://www.w3.org/2000/svg" xmlns:xlink="http://www.w3.org/1999/xlink" width="32" height="32" viewBox="0 0 32 32">
<path fill="#444" d="M16.052 10.696c-2.912 0-5.273 2.361-5.273 5.273s2.361 5.273 5.273 5.273 5.273-2.361 5.273-5.273-2.361-5.273-5.273-5.273zM15.939 19.091c-1.707 0-3.091-1.384-3.091-3.091s1.384-3.091 3.091-3.091 3.091 1.384 3.091 3.091-1.384 3.091-3.091 3.091z"></path>
<path fill="#444" d="M24.699 6.934h-17.398c-0.202 0-0.367 0.165-0.367 0.367v17.398c0 0.202 0.165 0.367 0.367 0.367h17.398c0.202 0 0.367-0.165 0.367-0.367v-17.398c0-0.202-0.165-0.367-0.367-0.367zM16.052 23.344c-4.095 0-7.415-3.32-7.415-7.415s3.32-7.415 7.415-7.415 7.415 3.32 7.415 7.415-3.32 7.415-7.415 7.415z"></path>
</svg>
