<?xml version="1.0" encoding="utf-8"?>
<!-- Generated by IcoMoon.io -->
<!DOCTYPE svg PUBLIC "-//W3C//DTD SVG 1.1//EN" "http://www.w3.org/Graphics/SVG/1.1/DTD/svg11.dtd">
<svg version="1.1" xmlns="http://www.w3.org/2000/svg" xmlns:xlink="http://www.w3.org/1999/xlink" width="32" height="32" viewBox="0 0 32 32">
<path fill="#444" d="M5.461 16.007c0 1.514-1.22 2.727-2.734 2.727-1.507 0-2.727-1.214-2.727-2.721 0-1.54 1.22-2.747 2.774-2.747 1.474 0 2.687 1.24 2.687 2.741zM0.28 16.007c0 1.354 1.094 2.441 2.447 2.441 1.347 0 2.447-1.080 2.447-2.434 0-1.38-1.080-2.46-2.467-2.46-1.327 0-2.427 1.107-2.427 2.454zM2.127 15.893l-0.033 0.067c-0.12-0.027-0.353-0.113-0.593-0.22l-0.033 0.060 0.1 0.053c0.347 0.18 0.467 0.22 0.66 0.22 0.407 0 0.713-0.227 0.86-0.633 0.247-0.053 0.567-0.073 0.954-0.073 0.327 0 0.607 0.013 0.974 0.060l-0.093 0.113c-0.167-0.020-0.48-0.040-0.7-0.040-0.273 0-0.433 0-0.527 0.007l-0.040 0.1c0.22-0.013 0.3-0.013 0.473-0.013 0.3 0 0.533 0.013 0.727 0.027l-0.093 0.127c-0.347-0.013-0.5-0.020-0.76-0.020-0.14 0-0.247 0.007-0.413 0.013l-0.047 0.1c0.147-0.013 0.353-0.020 0.56-0.020s0.447 0.007 0.587 0.013l-0.093 0.12c-0.1-0.007-0.287-0.007-0.433-0.007-0.233 0-0.533 0.013-0.68 0.033l-0.047 0.087c0.28-0.027 0.453-0.040 0.76-0.040 0.12 0 0.193 0 0.333 0.013l-0.107 0.127c-0.187-0.013-0.247-0.013-0.32-0.013-0.513 0-0.853 0.073-1.194 0.267 0.313 0.313 0.827 0.527 1.294 0.527 0.040 0 0.060 0 0.16-0.007l-0.22 0.227c-1.234-0.327-1.454-0.413-2.587-1.087-0.447-0.253-0.814-0.427-1.107-0.513l0.040-0.14c0.067 0.013 0.22 0.053 0.36 0.107l0.067-0.153 1.214 0.513z"></path>
<path fill="#444" d="M29.266 17.114c0-0.393 0.253-0.673 0.753-0.814 0.080-0.020 0.333-0.080 0.767-0.153 0.18-0.040 0.253-0.093 0.253-0.227 0-0.147-0.153-0.24-0.38-0.24-0.273 0-0.447 0.133-0.447 0.36h-0.78c0-0.593 0.467-0.947 1.247-0.947 0.814 0 1.207 0.34 1.207 1.027v1.34c0 0.227 0 0.227 0.080 0.367h-0.8l-0.047-0.22c-0.313 0.253-0.507 0.327-0.847 0.327-0.587 0-1.007-0.347-1.007-0.82zM30.833 16.64c-0.093 0.013-0.2 0.040-0.313 0.067-0.28 0.073-0.413 0.187-0.413 0.353 0 0.173 0.127 0.267 0.347 0.267 0.42 0 0.613-0.187 0.613-0.573v-0.18c-0.107 0.033-0.147 0.033-0.233 0.067zM26.539 16.954h0.84v0.033c0 0.22 0.18 0.353 0.467 0.353 0.247 0 0.4-0.093 0.4-0.24 0-0.153-0.14-0.247-0.473-0.3l-0.273-0.047c-0.62-0.107-0.887-0.333-0.887-0.747 0-0.573 0.473-0.914 1.254-0.914 0.547 0 0.887 0.147 1.060 0.467 0.073 0.127 0.087 0.173 0.107 0.46h-0.8c-0.020-0.247-0.127-0.34-0.387-0.34-0.213 0-0.347 0.080-0.347 0.22 0 0.127 0.127 0.2 0.413 0.247l0.293 0.053c0.62 0.107 0.907 0.373 0.907 0.827 0 0.553-0.467 0.907-1.214 0.907-0.88 0-1.36-0.347-1.36-0.98zM20.911 17.114c0-0.393 0.26-0.673 0.76-0.814 0.080-0.020 0.333-0.073 0.76-0.153 0.187-0.040 0.26-0.093 0.26-0.227 0-0.147-0.153-0.24-0.387-0.24-0.273 0-0.44 0.127-0.447 0.36h-0.78c0-0.593 0.467-0.947 1.24-0.947 0.814 0 1.22 0.34 1.22 1.027v1.34c0 0.227 0 0.227 0.067 0.367h-0.794l-0.047-0.22c-0.273 0.24-0.507 0.327-0.847 0.327-0.58 0-1.007-0.347-1.007-0.82zM22.485 16.64c-0.107 0.020-0.2 0.047-0.313 0.067-0.28 0.073-0.413 0.187-0.413 0.353 0 0.173 0.133 0.267 0.347 0.267 0.407 0 0.607-0.187 0.607-0.573v-0.18c-0.113 0.033-0.147 0.033-0.227 0.067zM11.849 17.48c-0.113-0.193-0.133-0.293-0.133-0.727v-1.547h0.86v1.514c0 0.387 0.107 0.54 0.38 0.54 0.28 0 0.427-0.18 0.427-0.54v-1.514h0.854v2.621h-0.78l-0.027-0.26c-0.213 0.227-0.453 0.327-0.754 0.327-0.367 0-0.673-0.147-0.827-0.413zM25.492 17.827v-1.487c0-0.387-0.113-0.547-0.38-0.547-0.28 0-0.42 0.18-0.42 0.547v1.487h-0.854v-2.621h0.78l0.027 0.293c0.2-0.26 0.44-0.373 0.76-0.373 0.367 0 0.66 0.16 0.814 0.433 0.113 0.2 0.127 0.313 0.127 0.747v1.52h-0.854zM19.864 17.827v-1.487c0-0.38-0.12-0.547-0.38-0.547-0.28 0-0.42 0.18-0.42 0.547v1.487h-0.86v-3.647h0.86v1.32c0.153-0.26 0.38-0.373 0.707-0.373 0.36 0 0.653 0.153 0.814 0.433 0.113 0.2 0.127 0.307 0.127 0.747v1.52h-0.847zM17.377 17.827c-0.507 0-0.74-0.24-0.74-0.767v-1.28h-0.36v-0.573h0.36v-0.827h0.854v0.827h0.487v0.573h-0.487v1.040c0.007 0.387 0.033 0.407 0.36 0.407h0.167v0.6h-0.64zM14.783 17.827v-2.047h-0.373v-0.573h0.373v-0.080c0-0.693 0.26-0.947 0.927-0.947h0.467v0.58h-0.14c-0.32 0-0.4 0.073-0.4 0.367v0.080h0.507v0.573h-0.507v2.047h-0.854zM9.102 17.827v-3.647h0.907v2.927h1.54v0.72h-2.447z"></path>
</svg>
