<?xml version="1.0" encoding="utf-8"?>
<!-- Generated by IcoMoon.io -->
<!DOCTYPE svg PUBLIC "-//W3C//DTD SVG 1.1//EN" "http://www.w3.org/Graphics/SVG/1.1/DTD/svg11.dtd">
<svg version="1.1" xmlns="http://www.w3.org/2000/svg" xmlns:xlink="http://www.w3.org/1999/xlink" width="32" height="32" viewBox="0 0 32 32">
<path fill="#444" d="M14.97 13.566c-0.007 0.020-0.014 0.038-0.025 0.051-0.010 0.014-0.025 0.023-0.047 0.029s-0.054 0.011-0.091 0.014c-0.038 0.002-0.088 0.002-0.151 0.002-0.050 0-0.091 0-0.126 0-0.036 0-0.067-0.002-0.090-0.005-0.026-0.003-0.045-0.007-0.062-0.012-0.015-0.005-0.027-0.011-0.037-0.018s-0.020-0.016-0.026-0.026c-0.006-0.012-0.009-0.025-0.015-0.041l-0.715-2.131c-0.015-0.044-0.025-0.080-0.028-0.106-0.002-0.026 0.003-0.044 0.019-0.059 0.016-0.012 0.041-0.020 0.079-0.024s0.089-0.005 0.157-0.005c0.056 0 0.1 0.001 0.133 0.003 0.033 0.003 0.057 0.007 0.074 0.012 0.017 0.007 0.029 0.016 0.036 0.029 0.007 0.012 0.014 0.026 0.019 0.045l0.586 1.855h0.002l0.574-1.845c0.005-0.021 0.010-0.038 0.018-0.052 0.007-0.012 0.020-0.024 0.038-0.030 0.018-0.008 0.044-0.011 0.076-0.015 0.035-0.002 0.080-0.003 0.138-0.003 0.059 0 0.101 0.002 0.134 0.006 0.032 0.002 0.053 0.012 0.064 0.026 0.012 0.015 0.016 0.034 0.012 0.062-0.005 0.025-0.015 0.060-0.030 0.103l-0.716 2.133z"></path>
<path fill="#444" d="M16.36 13.583c0 0.012-0.003 0.025-0.011 0.034-0.008 0.010-0.020 0.018-0.039 0.024-0.019 0.008-0.045 0.012-0.074 0.016-0.032 0.003-0.071 0.006-0.12 0.006-0.047 0-0.086-0.002-0.117-0.006-0.033-0.003-0.057-0.008-0.076-0.016-0.018-0.006-0.033-0.014-0.041-0.024-0.008-0.009-0.011-0.021-0.011-0.034v-2.27c0-0.012 0.003-0.023 0.011-0.033 0.008-0.011 0.023-0.019 0.041-0.025 0.019-0.006 0.045-0.011 0.076-0.015 0.032-0.003 0.070-0.005 0.117-0.005 0.049 0 0.088 0.001 0.12 0.005 0.029 0.003 0.055 0.009 0.074 0.015s0.032 0.014 0.039 0.025c0.008 0.010 0.011 0.020 0.011 0.033 0 0 0 2.27 0 2.27z"></path>
<path fill="#444" d="M18.054 13.447c0 0.038-0.002 0.070-0.005 0.094-0.003 0.027-0.008 0.046-0.014 0.064-0.008 0.017-0.015 0.028-0.024 0.035-0.010 0.009-0.020 0.012-0.033 0.012h-1.102c-0.041 0-0.074-0.014-0.104-0.036-0.028-0.025-0.042-0.063-0.042-0.118v-2.184c0-0.011 0.005-0.021 0.012-0.032s0.021-0.019 0.039-0.026c0.019-0.006 0.044-0.011 0.077-0.014 0.030-0.003 0.070-0.005 0.116-0.005 0.050 0 0.089 0.001 0.12 0.005 0.030 0.002 0.056 0.008 0.074 0.014 0.019 0.007 0.033 0.016 0.041 0.026 0.007 0.010 0.011 0.020 0.011 0.032v1.936h0.757c0.012 0 0.023 0.002 0.033 0.009 0.009 0.007 0.016 0.018 0.024 0.034 0.006 0.016 0.010 0.036 0.014 0.061 0.002 0.026 0.005 0.057 0.005 0.094z"></path>
<path fill="#444" d="M19.509 13.447c0 0.038-0.001 0.070-0.005 0.094-0.003 0.027-0.008 0.046-0.014 0.064-0.006 0.017-0.014 0.028-0.023 0.035-0.009 0.009-0.021 0.012-0.033 0.012h-1.102c-0.041 0-0.076-0.014-0.104-0.036-0.027-0.025-0.042-0.063-0.042-0.118v-2.184c0-0.011 0.005-0.021 0.012-0.032s0.021-0.019 0.041-0.026c0.018-0.006 0.043-0.011 0.074-0.014 0.032-0.003 0.071-0.005 0.118-0.005 0.049 0 0.088 0.001 0.118 0.005 0.030 0.002 0.056 0.008 0.074 0.014 0.018 0.007 0.032 0.016 0.041 0.026 0.008 0.010 0.011 0.020 0.011 0.032v1.936h0.757c0.011 0 0.024 0.002 0.033 0.009s0.017 0.018 0.023 0.034 0.010 0.036 0.014 0.061c0.003 0.026 0.005 0.057 0.005 0.094z"></path>
<path fill="#444" d="M21.872 13.575c-0.003-0.026-0.014-0.061-0.027-0.105l-0.744-2.132c-0.007-0.024-0.016-0.042-0.027-0.055-0.010-0.015-0.027-0.024-0.052-0.030-0.024-0.007-0.059-0.011-0.101-0.012-0.043-0.002-0.101-0.003-0.175-0.003-0.063 0-0.113 0.001-0.152 0.003-0.038 0.001-0.068 0.006-0.090 0.012-0.021 0.007-0.037 0.016-0.047 0.030-0.010 0.012-0.018 0.028-0.025 0.051l-0.742 2.132c-0.015 0.044-0.024 0.078-0.027 0.105-0.003 0.025 0 0.046 0.012 0.060s0.035 0.024 0.067 0.027c0.033 0.003 0.077 0.006 0.134 0.006 0.053 0 0.096-0.001 0.129-0.003 0.034-0.002 0.059-0.007 0.078-0.015 0.017-0.007 0.029-0.017 0.037-0.028s0.016-0.027 0.021-0.043l0.151-0.471h0.903l0.161 0.484c0.003 0.017 0.012 0.029 0.019 0.038 0.007 0.011 0.019 0.018 0.039 0.025 0.018 0.005 0.043 0.008 0.080 0.010 0.035 0.002 0.085 0.003 0.147 0.003s0.109-0.001 0.144-0.006c0.034-0.002 0.059-0.011 0.072-0.024 0.012-0.012 0.018-0.032 0.015-0.059zM20.398 12.728l0.339-1.022h0.002l0.341 1.022h-0.682z"></path>
<path fill="#444" d="M23.879 11.621c0 0.036-0.001 0.067-0.005 0.092s-0.007 0.047-0.012 0.063c-0.007 0.015-0.014 0.027-0.021 0.033s-0.017 0.008-0.028 0.008c-0.017 0-0.042-0.010-0.078-0.034-0.037-0.021-0.085-0.046-0.143-0.071-0.060-0.027-0.131-0.051-0.214-0.073-0.081-0.021-0.176-0.033-0.285-0.033-0.117 0-0.222 0.020-0.316 0.061-0.095 0.041-0.175 0.097-0.241 0.17-0.068 0.073-0.12 0.162-0.156 0.265-0.035 0.104-0.054 0.219-0.054 0.343 0 0.138 0.019 0.259 0.055 0.364 0.036 0.104 0.088 0.192 0.154 0.263 0.065 0.070 0.143 0.123 0.237 0.16 0.092 0.034 0.193 0.053 0.304 0.053 0.054 0 0.108-0.006 0.162-0.019 0.054-0.011 0.103-0.030 0.149-0.055v-0.556h-0.456c-0.024 0-0.039-0.015-0.052-0.043s-0.018-0.076-0.018-0.141c0-0.036 0.001-0.065 0.003-0.089 0.003-0.024 0.008-0.042 0.015-0.056 0.006-0.015 0.012-0.025 0.021-0.032s0.019-0.010 0.030-0.010h0.811c0.020 0 0.038 0.003 0.054 0.010s0.029 0.017 0.039 0.032c0.012 0.012 0.023 0.029 0.028 0.049s0.009 0.042 0.009 0.067v0.956c0 0.037-0.006 0.071-0.020 0.097-0.012 0.028-0.038 0.051-0.079 0.067-0.039 0.016-0.090 0.032-0.149 0.050-0.061 0.017-0.123 0.033-0.185 0.045-0.065 0.012-0.129 0.021-0.194 0.027-0.065 0.007-0.13 0.010-0.195 0.010-0.193 0-0.365-0.027-0.515-0.082-0.152-0.055-0.281-0.135-0.387-0.24s-0.185-0.231-0.24-0.382c-0.058-0.151-0.085-0.321-0.085-0.512 0-0.196 0.029-0.373 0.090-0.53 0.059-0.158 0.143-0.29 0.251-0.4 0.109-0.109 0.24-0.193 0.394-0.251 0.157-0.057 0.327-0.088 0.516-0.088 0.104 0 0.2 0.008 0.285 0.023 0.085 0.014 0.159 0.030 0.223 0.051 0.063 0.020 0.117 0.044 0.158 0.067 0.043 0.024 0.072 0.044 0.089 0.062s0.029 0.041 0.036 0.073c0.008 0.032 0.011 0.078 0.011 0.14zM25.572 13.46c0 0.035-0.002 0.067-0.006 0.089-0.003 0.025-0.008 0.044-0.015 0.059-0.006 0.015-0.012 0.026-0.023 0.033-0.009 0.008-0.019 0.011-0.030 0.011h-1.208c-0.041 0-0.076-0.014-0.101-0.037-0.029-0.025-0.043-0.064-0.043-0.118v-2.096c0-0.054 0.014-0.094 0.043-0.117 0.026-0.025 0.061-0.036 0.101-0.036h1.2c0.011 0 0.021 0.003 0.030 0.009 0.009 0.008 0.016 0.017 0.023 0.033 0.006 0.016 0.010 0.036 0.014 0.059 0.003 0.026 0.005 0.056 0.005 0.094 0 0.034-0.001 0.064-0.005 0.088s-0.008 0.044-0.014 0.057c-0.007 0.015-0.014 0.027-0.023 0.034-0.009 0.006-0.019 0.010-0.030 0.010h-0.857v0.585h0.725c0.011 0 0.023 0.005 0.032 0.012 0.009 0.006 0.017 0.017 0.024 0.030 0.005 0.015 0.011 0.034 0.014 0.057 0.003 0.024 0.005 0.054 0.005 0.088 0 0.036-0.001 0.067-0.005 0.089-0.002 0.024-0.009 0.043-0.014 0.056-0.007 0.015-0.015 0.026-0.024 0.032s-0.020 0.009-0.032 0.009h-0.725v0.679h0.865c0.011 0 0.021 0.003 0.030 0.010 0.010 0.007 0.017 0.017 0.023 0.032 0.007 0.016 0.011 0.034 0.015 0.060 0.003 0.024 0.006 0.053 0.006 0.090zM14.927 15.507c0-0.079-0.019-0.145-0.054-0.201-0.036-0.055-0.095-0.094-0.177-0.115-0.025-0.007-0.053-0.011-0.085-0.015s-0.076-0.006-0.132-0.006h-0.218v0.681h0.248c0.069 0 0.131-0.008 0.183-0.025 0.052-0.016 0.095-0.039 0.13-0.071 0.035-0.029 0.061-0.067 0.078-0.108s0.027-0.089 0.027-0.141zM15.556 17.138c0 0.012-0.002 0.024-0.008 0.035-0.005 0.008-0.017 0.016-0.036 0.021-0.017 0.007-0.045 0.010-0.081 0.014-0.035 0.002-0.086 0.005-0.147 0.005-0.052 0-0.094-0.002-0.124-0.005-0.032-0.003-0.056-0.008-0.074-0.014-0.017-0.008-0.030-0.016-0.037-0.026-0.008-0.011-0.014-0.024-0.018-0.038l-0.216-0.538c-0.026-0.060-0.051-0.114-0.076-0.16-0.025-0.049-0.052-0.087-0.083-0.118-0.030-0.032-0.064-0.056-0.105-0.072-0.039-0.015-0.085-0.024-0.136-0.024h-0.152v0.916c0 0.011-0.006 0.024-0.014 0.034s-0.020 0.018-0.038 0.024c-0.020 0.007-0.044 0.011-0.074 0.016-0.032 0.002-0.071 0.006-0.121 0.006-0.045 0-0.085-0.003-0.117-0.006-0.032-0.005-0.056-0.009-0.074-0.016-0.019-0.006-0.032-0.014-0.039-0.024s-0.011-0.023-0.011-0.034v-2.183c0-0.054 0.015-0.094 0.041-0.118 0.029-0.023 0.064-0.035 0.104-0.035h0.624c0.063 0 0.114 0.001 0.156 0.003 0.041 0.002 0.077 0.006 0.111 0.009 0.097 0.014 0.185 0.037 0.262 0.070 0.077 0.034 0.144 0.078 0.198 0.132 0.053 0.054 0.094 0.117 0.122 0.189 0.029 0.076 0.043 0.161 0.043 0.256 0 0.079-0.010 0.153-0.029 0.22-0.023 0.065-0.052 0.125-0.091 0.177s-0.088 0.097-0.145 0.136c-0.061 0.038-0.125 0.068-0.201 0.092 0.037 0.016 0.070 0.038 0.103 0.062 0.030 0.026 0.061 0.055 0.088 0.091 0.028 0.035 0.055 0.076 0.079 0.12 0.026 0.045 0.050 0.098 0.073 0.154l0.203 0.474c0.017 0.047 0.030 0.081 0.036 0.103 0.008 0.021 0.010 0.039 0.010 0.052z"></path>
<path fill="#444" d="M17.853 15.43c-0.047-0.153-0.118-0.281-0.211-0.38-0.094-0.1-0.211-0.175-0.351-0.223-0.138-0.049-0.3-0.072-0.481-0.072-0.191 0-0.359 0.028-0.502 0.087-0.144 0.059-0.266 0.143-0.364 0.251-0.097 0.108-0.171 0.241-0.221 0.396-0.050 0.157-0.073 0.33-0.073 0.525 0 0.212 0.023 0.396 0.068 0.55 0.047 0.154 0.117 0.282 0.211 0.382s0.209 0.175 0.347 0.224c0.14 0.049 0.302 0.073 0.489 0.073 0.189 0 0.357-0.028 0.502-0.087 0.143-0.058 0.264-0.141 0.363-0.251 0.098-0.108 0.17-0.244 0.221-0.4 0.050-0.157 0.073-0.335 0.073-0.536 0-0.207-0.024-0.388-0.071-0.54zM17.38 16.323c-0.019 0.103-0.054 0.192-0.105 0.268-0.050 0.077-0.114 0.136-0.194 0.182-0.081 0.045-0.182 0.068-0.301 0.068-0.121 0-0.22-0.020-0.3-0.059-0.078-0.038-0.142-0.096-0.189-0.169-0.047-0.076-0.080-0.165-0.1-0.27-0.019-0.104-0.029-0.222-0.029-0.354 0-0.113 0.010-0.22 0.030-0.32 0.021-0.101 0.055-0.189 0.106-0.265 0.050-0.074 0.114-0.135 0.195-0.18 0.079-0.045 0.179-0.069 0.3-0.069 0.118 0 0.219 0.021 0.298 0.062 0.079 0.038 0.142 0.097 0.191 0.17 0.047 0.073 0.081 0.162 0.1 0.266 0.021 0.103 0.030 0.218 0.030 0.344 0 0.115-0.009 0.223-0.032 0.326z"></path>
<path fill="#444" d="M20.18 17.126c-0.003-0.027-0.012-0.063-0.027-0.107l-0.743-2.13c-0.008-0.025-0.017-0.043-0.028-0.057-0.009-0.012-0.027-0.023-0.052-0.029-0.023-0.007-0.058-0.011-0.101-0.012-0.043-0.003-0.1-0.005-0.173-0.005-0.064 0-0.115 0.001-0.153 0.005-0.039 0.001-0.069 0.006-0.090 0.012s-0.037 0.017-0.049 0.029c-0.009 0.014-0.017 0.030-0.025 0.051l-0.741 2.132c-0.016 0.044-0.025 0.079-0.028 0.106-0.003 0.025 0.001 0.046 0.012 0.060 0.012 0.014 0.035 0.023 0.067 0.027 0.033 0.002 0.078 0.006 0.134 0.006 0.053 0 0.095-0.002 0.13-0.005 0.033-0.002 0.058-0.007 0.077-0.014 0.017-0.007 0.029-0.016 0.038-0.027 0.008-0.014 0.015-0.027 0.020-0.044l0.151-0.471h0.903l0.161 0.484c0.007 0.016 0.012 0.029 0.019 0.039 0.008 0.010 0.020 0.017 0.039 0.023 0.018 0.006 0.046 0.009 0.079 0.011 0.036 0.001 0.086 0.003 0.149 0.003 0.061 0 0.108-0.002 0.143-0.006 0.034-0.002 0.060-0.011 0.073-0.024 0.012-0.012 0.018-0.033 0.014-0.058zM18.708 16.278l0.339-1.023h0.002l0.341 1.023h-0.682z"></path>
<path fill="#444" d="M22.254 15.462c-0.053-0.147-0.131-0.267-0.233-0.366-0.101-0.099-0.228-0.175-0.377-0.224s-0.331-0.073-0.547-0.073h-0.615c-0.042 0-0.077 0.011-0.105 0.034-0.027 0.025-0.041 0.065-0.041 0.12v2.096c0 0.054 0.014 0.092 0.041 0.116 0.028 0.026 0.063 0.036 0.105 0.036h0.574c0.212 0 0.396-0.020 0.549-0.068 0.154-0.047 0.286-0.12 0.394-0.219 0.108-0.098 0.189-0.228 0.248-0.383 0.058-0.157 0.087-0.346 0.087-0.566 0-0.191-0.027-0.357-0.080-0.502zM21.783 16.344c-0.030 0.103-0.076 0.192-0.138 0.262-0.061 0.070-0.138 0.122-0.229 0.157s-0.204 0.052-0.338 0.052h-0.255v-1.636h0.248c0.149 0 0.271 0.021 0.363 0.061 0.092 0.041 0.167 0.097 0.226 0.17 0.060 0.071 0.101 0.154 0.129 0.254 0.027 0.097 0.041 0.203 0.041 0.318 0 0.138-0.015 0.259-0.046 0.363z"></path>
<path fill="#444" d="M24.008 16.48c0 0.126-0.025 0.238-0.071 0.333-0.047 0.095-0.11 0.175-0.192 0.239-0.080 0.064-0.174 0.112-0.283 0.142-0.107 0.035-0.221 0.050-0.345 0.050-0.082 0-0.16-0.007-0.231-0.019-0.071-0.016-0.134-0.030-0.188-0.050-0.055-0.021-0.1-0.041-0.138-0.061-0.035-0.021-0.062-0.041-0.078-0.056-0.017-0.016-0.028-0.041-0.035-0.070-0.006-0.028-0.009-0.074-0.009-0.13 0-0.039 0-0.071 0.003-0.097 0.002-0.027 0.006-0.047 0.011-0.064 0.006-0.016 0.012-0.026 0.024-0.033 0.008-0.008 0.019-0.010 0.030-0.010 0.018 0 0.043 0.010 0.074 0.029 0.032 0.021 0.071 0.043 0.122 0.068 0.049 0.025 0.109 0.047 0.177 0.068 0.068 0.023 0.149 0.030 0.239 0.030 0.060 0 0.113-0.006 0.159-0.021 0.047-0.012 0.088-0.032 0.121-0.061 0.034-0.025 0.058-0.058 0.076-0.096 0.017-0.037 0.025-0.081 0.025-0.129 0-0.053-0.014-0.1-0.044-0.14-0.030-0.037-0.068-0.072-0.115-0.105-0.048-0.029-0.103-0.059-0.163-0.085-0.061-0.025-0.122-0.055-0.188-0.083-0.063-0.030-0.126-0.065-0.187-0.1-0.061-0.039-0.115-0.085-0.162-0.136s-0.087-0.115-0.117-0.187c-0.028-0.072-0.043-0.158-0.043-0.259 0-0.114 0.021-0.215 0.063-0.303 0.043-0.087 0.1-0.159 0.174-0.216 0.072-0.057 0.157-0.1 0.256-0.129s0.203-0.043 0.313-0.043c0.058 0 0.114 0.005 0.17 0.012 0.056 0.007 0.109 0.019 0.159 0.035 0.051 0.015 0.094 0.032 0.132 0.052 0.039 0.017 0.065 0.033 0.077 0.045 0.012 0.012 0.020 0.021 0.025 0.033 0.005 0.007 0.009 0.019 0.012 0.032 0.002 0.016 0.006 0.035 0.007 0.054 0.001 0.024 0.001 0.049 0.001 0.081 0 0.037-0.001 0.067-0.002 0.091-0.002 0.025-0.006 0.045-0.010 0.060-0.005 0.018-0.011 0.030-0.019 0.037-0.007 0.008-0.018 0.012-0.033 0.012-0.014 0-0.034-0.010-0.064-0.027-0.029-0.018-0.067-0.037-0.109-0.057s-0.094-0.037-0.15-0.055c-0.058-0.017-0.121-0.024-0.188-0.024-0.053 0-0.099 0.005-0.139 0.019-0.041 0.012-0.073 0.030-0.099 0.054-0.028 0.021-0.047 0.050-0.061 0.081-0.012 0.033-0.019 0.067-0.019 0.104 0 0.052 0.015 0.099 0.044 0.136 0.029 0.041 0.068 0.076 0.116 0.105 0.050 0.030 0.106 0.059 0.167 0.085 0.062 0.028 0.126 0.055 0.191 0.086 0.063 0.032 0.127 0.062 0.189 0.101 0.061 0.037 0.116 0.082 0.163 0.134 0.050 0.053 0.088 0.115 0.117 0.187 0.030 0.071 0.046 0.154 0.046 0.251z"></path>
<path fill="#444" d="M26.105 17.134c0 0.011-0.003 0.024-0.011 0.034-0.009 0.010-0.021 0.018-0.039 0.024-0.019 0.006-0.044 0.011-0.076 0.015-0.030 0.003-0.069 0.005-0.116 0.005-0.049 0-0.089-0.001-0.121-0.005s-0.056-0.009-0.074-0.015c-0.018-0.006-0.030-0.014-0.038-0.024s-0.012-0.023-0.012-0.034v-0.972h-0.899v0.972c0 0.011-0.003 0.024-0.012 0.034-0.007 0.010-0.020 0.018-0.038 0.024-0.019 0.006-0.043 0.011-0.074 0.015s-0.070 0.005-0.118 0.005c-0.047 0-0.086-0.001-0.118-0.005-0.032-0.003-0.056-0.009-0.076-0.015-0.018-0.006-0.032-0.014-0.039-0.024-0.009-0.010-0.012-0.023-0.012-0.034v-2.27c0-0.012 0.003-0.024 0.012-0.034 0.008-0.010 0.021-0.018 0.039-0.024 0.019-0.007 0.044-0.011 0.076-0.015 0.033-0.003 0.071-0.007 0.118-0.007 0.049 0 0.087 0.003 0.118 0.007s0.055 0.008 0.074 0.015c0.018 0.006 0.032 0.014 0.038 0.024 0.009 0.010 0.012 0.021 0.012 0.034v0.883h0.899v-0.883c0-0.012 0.005-0.024 0.012-0.034s0.020-0.018 0.038-0.024c0.018-0.007 0.043-0.011 0.074-0.015s0.072-0.007 0.121-0.007c0.047 0 0.086 0.003 0.116 0.007 0.032 0.003 0.056 0.008 0.076 0.015 0.018 0.006 0.030 0.014 0.039 0.024 0.008 0.010 0.011 0.021 0.011 0.034v2.27z"></path>
<path fill="#444" d="M28.568 15.43c-0.047-0.153-0.12-0.281-0.212-0.38-0.094-0.1-0.21-0.175-0.35-0.223s-0.3-0.072-0.481-0.072c-0.192 0-0.36 0.028-0.503 0.087-0.144 0.059-0.265 0.143-0.364 0.251-0.096 0.108-0.17 0.241-0.22 0.396-0.050 0.157-0.076 0.33-0.076 0.525 0 0.212 0.024 0.396 0.071 0.55 0.046 0.154 0.115 0.282 0.209 0.382 0.092 0.1 0.21 0.175 0.35 0.224 0.139 0.049 0.301 0.073 0.488 0.073 0.189 0 0.356-0.028 0.501-0.087 0.143-0.058 0.266-0.141 0.363-0.251 0.098-0.108 0.171-0.244 0.221-0.4s0.073-0.335 0.073-0.536c0-0.207-0.023-0.388-0.070-0.54zM28.096 16.323c-0.020 0.103-0.054 0.192-0.105 0.268-0.049 0.077-0.115 0.136-0.194 0.182-0.081 0.045-0.182 0.068-0.302 0.068-0.12 0-0.22-0.020-0.299-0.059-0.080-0.038-0.142-0.096-0.189-0.169-0.047-0.076-0.081-0.165-0.1-0.27-0.020-0.104-0.030-0.222-0.030-0.354 0-0.113 0.010-0.22 0.032-0.32 0.020-0.101 0.055-0.189 0.105-0.265 0.050-0.074 0.114-0.135 0.194-0.18 0.081-0.045 0.182-0.069 0.301-0.069s0.219 0.021 0.299 0.062c0.078 0.038 0.142 0.097 0.191 0.17 0.047 0.073 0.080 0.162 0.1 0.266 0.020 0.103 0.030 0.218 0.030 0.344 0 0.115-0.010 0.223-0.032 0.326z"></path>
<path fill="#444" d="M31.429 17.076c-0.008 0.029-0.019 0.054-0.032 0.070-0.012 0.020-0.032 0.033-0.059 0.043-0.026 0.008-0.059 0.015-0.1 0.018-0.041 0.002-0.092 0.003-0.154 0.003-0.072 0-0.127-0.001-0.171-0.003-0.042-0.003-0.077-0.010-0.101-0.018-0.024-0.010-0.042-0.023-0.053-0.043-0.010-0.016-0.020-0.041-0.026-0.070l-0.386-1.523h-0.003l-0.364 1.523c-0.006 0.028-0.015 0.052-0.025 0.069-0.011 0.018-0.029 0.033-0.053 0.042-0.025 0.010-0.056 0.017-0.099 0.020-0.041 0.002-0.096 0.003-0.165 0.003-0.071 0-0.13-0.001-0.171-0.003-0.043-0.003-0.077-0.010-0.101-0.018-0.025-0.010-0.042-0.023-0.054-0.043-0.011-0.016-0.020-0.041-0.027-0.070l-0.547-2.097c-0.011-0.044-0.017-0.080-0.018-0.106-0.001-0.025 0.006-0.045 0.020-0.059 0.017-0.012 0.042-0.020 0.077-0.024 0.036-0.005 0.086-0.006 0.148-0.006 0.059 0 0.105 0.001 0.139 0.005 0.035 0.001 0.060 0.006 0.078 0.011 0.017 0.008 0.028 0.017 0.035 0.029 0.005 0.014 0.011 0.032 0.015 0.055l0.421 1.841h0.002l0.44-1.828c0.005-0.025 0.011-0.043 0.018-0.057 0.009-0.016 0.023-0.027 0.042-0.035 0.018-0.008 0.045-0.012 0.079-0.016 0.033-0.005 0.078-0.006 0.133-0.006 0.061 0 0.108 0.001 0.142 0.005 0.035 0.002 0.063 0.008 0.082 0.016 0.020 0.008 0.034 0.019 0.042 0.035 0.009 0.014 0.016 0.033 0.020 0.059l0.453 1.828h0.005l0.421-1.836c0.005-0.020 0.009-0.037 0.016-0.051 0.006-0.015 0.018-0.026 0.035-0.034s0.042-0.012 0.074-0.016c0.033-0.005 0.078-0.006 0.135-0.006 0.055 0 0.096 0.001 0.127 0.006 0.030 0.003 0.053 0.011 0.067 0.024 0.014 0.014 0.019 0.035 0.017 0.060-0.001 0.028-0.008 0.064-0.018 0.109 0 0-0.552 2.093-0.552 2.093z"></path>
<path fill="#444" d="M15.378 18.811c-0.026-0.079-0.067-0.148-0.118-0.205-0.052-0.059-0.116-0.107-0.188-0.147-0.074-0.038-0.147-0.065-0.219-0.079s-0.134-0.023-0.185-0.028c-0.052-0.005-0.106-0.007-0.162-0.007h-0.567c-0.050 0-0.089 0.016-0.12 0.045-0.030 0.028-0.046 0.073-0.046 0.131v2.163c0 0.012 0.003 0.024 0.012 0.033 0.007 0.010 0.020 0.019 0.038 0.025 0.019 0.006 0.043 0.011 0.076 0.014 0.032 0.005 0.071 0.007 0.118 0.007 0.048 0 0.087-0.002 0.118-0.007 0.030-0.002 0.055-0.008 0.074-0.014s0.032-0.015 0.039-0.025c0.008-0.009 0.012-0.020 0.012-0.033v-0.768h0.201c0.158 0 0.295-0.018 0.414-0.055 0.116-0.038 0.215-0.092 0.295-0.162 0.081-0.072 0.142-0.16 0.185-0.264 0.042-0.104 0.063-0.222 0.063-0.357 0-0.098-0.014-0.186-0.042-0.266zM14.882 19.283c-0.017 0.052-0.043 0.098-0.076 0.135-0.034 0.038-0.076 0.068-0.13 0.089-0.053 0.020-0.117 0.030-0.196 0.030h-0.219v-0.815h0.209c0.050 0 0.099 0.003 0.147 0.011 0.047 0.007 0.094 0.023 0.135 0.050 0.045 0.025 0.081 0.065 0.111 0.12 0.030 0.054 0.045 0.124 0.045 0.207 0 0.063-0.009 0.121-0.026 0.173z"></path>
<path fill="#444" d="M16.136 20.683c0 0.012-0.003 0.024-0.011 0.033-0.010 0.010-0.023 0.019-0.041 0.025-0.019 0.006-0.044 0.011-0.076 0.015-0.029 0.003-0.070 0.006-0.118 0.006-0.046 0-0.086-0.002-0.117-0.006s-0.057-0.009-0.076-0.015-0.033-0.015-0.039-0.025c-0.009-0.009-0.012-0.020-0.012-0.033v-2.27c0-0.012 0.003-0.025 0.012-0.034 0.007-0.010 0.021-0.018 0.041-0.024 0.018-0.008 0.044-0.012 0.074-0.016 0.032-0.003 0.071-0.006 0.117-0.006 0.049 0 0.089 0.002 0.118 0.006 0.032 0.003 0.056 0.008 0.076 0.016 0.018 0.006 0.030 0.014 0.041 0.024 0.008 0.009 0.011 0.021 0.011 0.034v2.27z"></path>
<path fill="#444" d="M18.17 20.386c0 0.032-0.001 0.058-0.002 0.079-0.002 0.023-0.006 0.041-0.010 0.056-0.003 0.015-0.009 0.029-0.015 0.039-0.006 0.011-0.016 0.023-0.029 0.038-0.014 0.014-0.039 0.033-0.079 0.055-0.038 0.021-0.087 0.043-0.143 0.063-0.055 0.021-0.121 0.038-0.193 0.051-0.072 0.016-0.151 0.021-0.236 0.021-0.165 0-0.313-0.026-0.447-0.076-0.131-0.052-0.245-0.126-0.337-0.229-0.092-0.1-0.165-0.227-0.213-0.379-0.050-0.15-0.076-0.325-0.076-0.527 0-0.204 0.028-0.386 0.083-0.544 0.053-0.159 0.131-0.292 0.228-0.4 0.098-0.107 0.215-0.189 0.352-0.246 0.138-0.055 0.288-0.082 0.452-0.082 0.067 0 0.133 0.006 0.194 0.017 0.061 0.010 0.118 0.024 0.171 0.044 0.053 0.017 0.1 0.038 0.142 0.061 0.042 0.025 0.072 0.044 0.088 0.061 0.018 0.018 0.028 0.032 0.035 0.041 0.007 0.012 0.010 0.026 0.015 0.044 0.003 0.018 0.007 0.037 0.008 0.061 0.003 0.024 0.003 0.053 0.003 0.087 0 0.038-0.001 0.070-0.005 0.096-0.002 0.026-0.007 0.046-0.012 0.063-0.006 0.016-0.014 0.027-0.021 0.035-0.009 0.008-0.019 0.012-0.030 0.012-0.018 0-0.043-0.012-0.071-0.034s-0.065-0.046-0.11-0.073c-0.045-0.026-0.099-0.051-0.161-0.072s-0.138-0.032-0.223-0.032c-0.096 0-0.18 0.019-0.255 0.058-0.076 0.039-0.14 0.095-0.192 0.168-0.053 0.072-0.094 0.159-0.122 0.263-0.026 0.104-0.039 0.219-0.039 0.347 0 0.141 0.015 0.264 0.043 0.366 0.030 0.105 0.071 0.188 0.125 0.256 0.054 0.067 0.118 0.117 0.195 0.149 0.077 0.034 0.161 0.050 0.257 0.050 0.087 0 0.161-0.009 0.226-0.030 0.062-0.020 0.117-0.042 0.162-0.068 0.045-0.025 0.081-0.047 0.112-0.067 0.029-0.020 0.051-0.030 0.067-0.030 0.014 0 0.024 0.003 0.030 0.008s0.012 0.015 0.018 0.030c0.007 0.014 0.009 0.034 0.012 0.061 0.002 0.027 0.003 0.062 0.003 0.107z"></path>
<path fill="#444" d="M20.196 18.547c0 0.035-0.001 0.067-0.005 0.092-0.003 0.024-0.007 0.045-0.014 0.061-0.007 0.015-0.014 0.026-0.024 0.035-0.009 0.007-0.019 0.011-0.030 0.011h-0.602v1.937c0 0.012-0.003 0.023-0.012 0.033-0.007 0.010-0.021 0.019-0.039 0.025s-0.044 0.011-0.074 0.015c-0.032 0.003-0.072 0.006-0.118 0.006-0.047 0-0.087-0.002-0.117-0.006-0.033-0.003-0.059-0.009-0.076-0.015-0.019-0.006-0.034-0.015-0.041-0.025-0.008-0.010-0.012-0.020-0.012-0.033v-1.937h-0.602c-0.012 0-0.021-0.005-0.030-0.011-0.009-0.009-0.017-0.020-0.023-0.035-0.007-0.016-0.011-0.037-0.015-0.061-0.002-0.026-0.005-0.058-0.005-0.092 0-0.037 0.002-0.069 0.005-0.095 0.003-0.026 0.008-0.046 0.015-0.062 0.006-0.016 0.014-0.027 0.023-0.033 0.009-0.009 0.018-0.011 0.030-0.011h1.695c0.011 0 0.021 0.002 0.030 0.011 0.010 0.006 0.017 0.017 0.024 0.033s0.010 0.036 0.014 0.062c0.003 0.026 0.005 0.058 0.005 0.095z"></path>
<path fill="#444" d="M22.367 19.855c0 0.148-0.020 0.28-0.064 0.396-0.043 0.116-0.108 0.214-0.192 0.297-0.085 0.079-0.187 0.141-0.312 0.184-0.123 0.041-0.266 0.062-0.427 0.062-0.151 0-0.286-0.019-0.406-0.056-0.122-0.038-0.222-0.095-0.306-0.171-0.083-0.078-0.147-0.174-0.191-0.289-0.044-0.114-0.065-0.247-0.065-0.4v-1.462c0-0.012 0.005-0.025 0.011-0.034 0.007-0.010 0.020-0.018 0.039-0.024 0.019-0.008 0.045-0.012 0.074-0.015 0.032-0.005 0.072-0.007 0.12-0.007s0.087 0.002 0.117 0.007c0.032 0.002 0.058 0.007 0.074 0.015 0.019 0.006 0.033 0.014 0.041 0.024 0.008 0.009 0.011 0.021 0.011 0.034v1.419c0 0.096 0.011 0.178 0.036 0.248 0.023 0.071 0.056 0.129 0.1 0.175 0.044 0.045 0.097 0.079 0.158 0.103 0.061 0.023 0.131 0.034 0.205 0.034 0.077 0 0.147-0.011 0.206-0.034 0.061-0.025 0.113-0.060 0.154-0.105 0.043-0.044 0.074-0.101 0.097-0.167 0.024-0.065 0.035-0.141 0.035-0.226v-1.447c0-0.012 0.003-0.025 0.010-0.034 0.008-0.010 0.023-0.018 0.041-0.024 0.017-0.008 0.043-0.012 0.073-0.015 0.033-0.005 0.072-0.007 0.12-0.007 0.046 0 0.086 0.002 0.115 0.007 0.030 0.002 0.056 0.007 0.074 0.015 0.018 0.006 0.032 0.014 0.039 0.024 0.007 0.009 0.010 0.021 0.010 0.034v1.441z"></path>
<path fill="#444" d="M24.433 20.636c-0.006-0.023-0.018-0.056-0.036-0.104l-0.203-0.474c-0.023-0.058-0.047-0.107-0.072-0.153-0.025-0.045-0.051-0.086-0.079-0.12-0.027-0.036-0.058-0.067-0.090-0.091-0.030-0.025-0.064-0.046-0.1-0.064 0.074-0.023 0.14-0.053 0.2-0.092 0.058-0.037 0.107-0.082 0.147-0.134 0.038-0.052 0.070-0.113 0.089-0.177 0.020-0.068 0.032-0.141 0.032-0.221 0-0.096-0.015-0.18-0.043-0.254-0.028-0.074-0.070-0.138-0.123-0.191-0.055-0.054-0.12-0.098-0.198-0.132-0.077-0.034-0.163-0.056-0.26-0.070-0.034-0.003-0.071-0.008-0.11-0.010-0.042-0.002-0.094-0.005-0.157-0.005h-0.622c-0.042 0-0.074 0.014-0.104 0.037-0.028 0.024-0.042 0.063-0.042 0.118v2.183c0 0.012 0.005 0.024 0.012 0.033 0.007 0.010 0.019 0.019 0.038 0.025s0.043 0.011 0.076 0.014c0.032 0.005 0.070 0.007 0.117 0.007 0.049 0 0.087-0.002 0.12-0.007 0.029-0.002 0.056-0.008 0.073-0.014 0.019-0.006 0.033-0.015 0.041-0.025 0.007-0.009 0.012-0.020 0.012-0.033v-0.917h0.152c0.052 0 0.098 0.008 0.139 0.025 0.037 0.016 0.073 0.039 0.104 0.071 0.029 0.032 0.058 0.072 0.081 0.118 0.026 0.047 0.052 0.101 0.078 0.161l0.215 0.537c0.005 0.016 0.011 0.028 0.018 0.038 0.008 0.010 0.019 0.019 0.038 0.027 0.018 0.006 0.043 0.010 0.073 0.012 0.032 0.003 0.072 0.005 0.125 0.005 0.061 0 0.11-0.001 0.147-0.005 0.036-0.002 0.063-0.007 0.081-0.011 0.018-0.007 0.032-0.015 0.036-0.025 0.005-0.009 0.007-0.020 0.007-0.034 0-0.012-0.002-0.029-0.010-0.051zM23.787 19.196c-0.017 0.043-0.043 0.079-0.078 0.109-0.034 0.029-0.078 0.054-0.129 0.070-0.053 0.017-0.114 0.026-0.183 0.026h-0.249v-0.682h0.219c0.055 0 0.099 0.002 0.131 0.006s0.060 0.009 0.086 0.016c0.081 0.021 0.14 0.060 0.175 0.114 0.036 0.055 0.055 0.122 0.055 0.201 0 0.052-0.010 0.099-0.027 0.141z"></path>
<path fill="#444" d="M26.075 20.558c0 0.036-0.002 0.065-0.005 0.090-0.003 0.024-0.007 0.044-0.014 0.059-0.008 0.015-0.015 0.026-0.024 0.033s-0.019 0.010-0.032 0.010h-1.206c-0.041 0-0.074-0.012-0.103-0.036-0.029-0.025-0.043-0.063-0.043-0.118v-2.095c0-0.055 0.014-0.095 0.043-0.118 0.028-0.024 0.062-0.036 0.103-0.036h1.199c0.014 0 0.023 0.002 0.032 0.009 0.008 0.007 0.016 0.018 0.021 0.032 0.007 0.017 0.012 0.036 0.015 0.060 0.003 0.025 0.005 0.056 0.005 0.092 0 0.035-0.001 0.065-0.005 0.088-0.002 0.025-0.008 0.044-0.015 0.060-0.006 0.014-0.014 0.025-0.021 0.032-0.009 0.007-0.018 0.010-0.032 0.010h-0.857v0.587h0.726c0.012 0 0.023 0.003 0.030 0.010 0.010 0.007 0.018 0.018 0.025 0.032 0.006 0.014 0.010 0.033 0.014 0.058 0.002 0.024 0.005 0.054 0.005 0.089s-0.002 0.064-0.005 0.089c-0.003 0.023-0.008 0.042-0.014 0.056-0.007 0.014-0.015 0.024-0.025 0.029-0.008 0.008-0.018 0.011-0.030 0.011h-0.726v0.678h0.865c0.012 0 0.023 0.002 0.032 0.009 0.009 0.008 0.016 0.018 0.024 0.034 0.007 0.014 0.010 0.033 0.014 0.058 0.002 0.025 0.005 0.053 0.005 0.090z"></path>
<path fill="#444" d="M27.855 20.029c0 0.126-0.024 0.238-0.070 0.333-0.047 0.096-0.11 0.175-0.192 0.239-0.080 0.063-0.174 0.112-0.282 0.144s-0.223 0.049-0.346 0.049c-0.082 0-0.16-0.008-0.231-0.021-0.072-0.014-0.133-0.029-0.188-0.050-0.054-0.018-0.1-0.038-0.136-0.060-0.037-0.020-0.063-0.039-0.080-0.055-0.016-0.016-0.027-0.039-0.033-0.071-0.007-0.030-0.012-0.073-0.012-0.13 0-0.038 0.003-0.071 0.006-0.097s0.007-0.047 0.011-0.064c0.007-0.016 0.014-0.026 0.023-0.033 0.008-0.008 0.020-0.011 0.033-0.011 0.017 0 0.042 0.011 0.073 0.032 0.032 0.019 0.072 0.042 0.122 0.067 0.050 0.026 0.108 0.047 0.177 0.069 0.068 0.020 0.149 0.030 0.239 0.030 0.060 0 0.113-0.008 0.159-0.021 0.047-0.014 0.088-0.035 0.121-0.060 0.033-0.027 0.058-0.059 0.074-0.096 0.018-0.039 0.027-0.082 0.027-0.13 0-0.054-0.015-0.101-0.044-0.14-0.030-0.041-0.070-0.073-0.116-0.104-0.050-0.032-0.103-0.059-0.163-0.086s-0.124-0.055-0.188-0.086c-0.063-0.028-0.127-0.063-0.187-0.1-0.061-0.038-0.115-0.082-0.161-0.136-0.049-0.053-0.087-0.114-0.117-0.186-0.029-0.071-0.045-0.158-0.045-0.258 0-0.115 0.023-0.215 0.064-0.303 0.044-0.087 0.101-0.161 0.173-0.218 0.073-0.058 0.159-0.1 0.257-0.13 0.098-0.028 0.203-0.044 0.312-0.044 0.058 0 0.115 0.007 0.173 0.015 0.056 0.009 0.109 0.020 0.158 0.035 0.051 0.015 0.094 0.032 0.132 0.051 0.039 0.019 0.064 0.034 0.078 0.047 0.011 0.012 0.020 0.021 0.025 0.030 0.003 0.008 0.007 0.020 0.010 0.035 0.003 0.014 0.006 0.032 0.008 0.053 0.001 0.023 0.001 0.049 0.001 0.081 0 0.037 0 0.065-0.003 0.091-0.002 0.024-0.006 0.045-0.009 0.061-0.005 0.016-0.010 0.028-0.019 0.036-0.007 0.007-0.019 0.011-0.033 0.011-0.012 0-0.035-0.009-0.064-0.027-0.029-0.017-0.065-0.035-0.109-0.058-0.043-0.019-0.094-0.038-0.151-0.055-0.056-0.016-0.118-0.025-0.188-0.025-0.052 0-0.099 0.007-0.139 0.019-0.038 0.014-0.072 0.032-0.099 0.054-0.026 0.024-0.046 0.051-0.059 0.083-0.014 0.032-0.019 0.065-0.019 0.103 0 0.053 0.014 0.098 0.043 0.138 0.028 0.039 0.068 0.073 0.116 0.104 0.051 0.030 0.105 0.059 0.168 0.086 0.062 0.027 0.124 0.055 0.189 0.086 0.063 0.028 0.126 0.063 0.189 0.1 0.061 0.038 0.116 0.082 0.165 0.136 0.049 0.053 0.087 0.114 0.117 0.184 0.029 0.072 0.044 0.157 0.044 0.253z"></path>
<path fill="#444" d="M8.39 14.41c0.148 0 0.339-0.010 0.569-0.027l-0.6 1.011 0.007 0.014c0.135 0.221 0.242 0.398 0.56 0.398 0.417 0 0.493-0.113 0.818-0.715 0.326-0.6 2.158-3.733 2.176-3.764l0.021-0.035h-0.22l-0.007 0.009c-0.008 0.015-0.866 1.45-1.256 2.155l-0.067 0.123c-0.297 0.543-0.368 0.672-0.831 0.672-0.492 0-0.715-0.536-0.719-0.543l-1.38-2.405-0.007-0.010h-1.281l1.589 2.766c0.002 0.003 0.177 0.352 0.627 0.352z"></path>
<path fill="#444" d="M10.143 12.563c0.395 0 0.486-0.136 0.822-0.643l0.043-0.064c0.070-0.104 0.282-0.514 0.29-0.531l0.018-0.033h-1.227l-0.511 0.865 0.007 0.011c0.129 0.212 0.238 0.395 0.558 0.395z"></path>
<path fill="#444" d="M9.050 12.805c0.129 0 0.285-0.006 0.465-0.019l-0.521 0.972 0.007 0.011c0.136 0.224 0.247 0.372 0.543 0.372 0.389 0 0.453-0.106 0.76-0.62l0.057-0.095c0.35-0.582 1.228-2.086 1.238-2.1l0.019-0.035h-0.207l-0.006 0.009c-0.18 0.307-0.302 0.505-0.346 0.576-0.056 0.091-0.105 0.173-0.148 0.245-0.254 0.427-0.321 0.543-0.748 0.543-0.491 0-0.718-0.528-0.722-0.536l-0.033-0.063c-0.043-0.076-0.082-0.15-0.12-0.219l-0.298-0.556h-1.264l0.643 1.145c0.001 0.003 0.185 0.369 0.679 0.369z"></path>
<path fill="#444" d="M7.758 15.926c0.16 0 0.37 0.007 0.622 0.018l-0.648 1.072 0.009 0.011c0.125 0.209 0.236 0.39 0.554 0.39 0.378 0 0.445-0.109 0.732-0.573 0.026-0.044 0.055-0.091 0.086-0.141 0.364-0.584 3.118-5.331 3.146-5.377l0.019-0.035h-0.232l-0.006 0.010c-0.018 0.033-1.809 3.191-2.194 3.818-0.055 0.090-0.104 0.173-0.147 0.246-0.258 0.434-0.327 0.55-0.753 0.55-0.489 0-0.714-0.537-0.716-0.543l-2.333-4.081h-1.256l2.49 4.264c0.001 0.005 0.144 0.37 0.628 0.37z"></path>
<path fill="#444" d="M6.542 20.502l-0.067-0.074c-0.089-0.115-5.169-9.043-5.22-9.133l-0.007-0.012h-1.249l5.248 9.061c0.002 0.005 0.197 0.369 0.626 0.369 0.286 0 0.633 0.017 0.887 0.030l0.143 0.007 0.005-0.045c-0.090-0.018-0.177-0.059-0.259-0.118-0.039-0.025-0.074-0.053-0.107-0.083z"></path>
<path fill="#444" d="M12.677 11.292l-0.006 0.010c-0.039 0.065-3.705 6.4-4.091 7.027-0.055 0.090-0.104 0.17-0.149 0.244-0.258 0.433-0.325 0.551-0.752 0.551-0.456 0-0.648-0.397-0.712-0.525l-0.007-0.014c-0.101-0.18-0.286-0.51-0.524-0.933-1.104-1.954-3.583-6.351-3.583-6.351l-0.007-0.010h-1.223l4.267 7.47c0.001 0.006 0.133 0.373 0.629 0.373 0.152 0 0.344 0.006 0.574 0.018l-0.628 1.087 0.007 0.012c0.117 0.179 0.255 0.356 0.558 0.356 0.383 0 0.454-0.116 0.76-0.598l0.074-0.116c0.387-0.608 4.931-8.491 4.976-8.57l0.021-0.034z"></path>
<path fill="#444" d="M7.169 17.548c0.153 0 0.348 0.005 0.582 0.012-0.103 0.171-0.428 0.727-0.627 1.067l-0.007 0.012 0.007 0.010c0.13 0.212 0.244 0.363 0.539 0.363 0.389 0 0.452-0.106 0.757-0.615l0.061-0.099c0.355-0.587 4.036-6.911 4.073-6.973l0.020-0.035h-0.21l-0.006 0.011c-0.027 0.047-2.736 4.714-3.146 5.432-0.318 0.557-0.586 0.794-0.899 0.794-0.489 0-0.714-0.534-0.717-0.542l-3.251-5.694h-1.204l3.401 5.888c0.001 0.003 0.188 0.369 0.627 0.369z"></path>
</svg>
