<?xml version="1.0" encoding="utf-8"?>
<!-- Generated by IcoMoon.io -->
<!DOCTYPE svg PUBLIC "-//W3C//DTD SVG 1.1//EN" "http://www.w3.org/Graphics/SVG/1.1/DTD/svg11.dtd">
<svg version="1.1" xmlns="http://www.w3.org/2000/svg" xmlns:xlink="http://www.w3.org/1999/xlink" width="32" height="32" viewBox="0 0 32 32">
<path fill="#444" d="M20.7 13.326l-0.155-0.013v0.506l0.139-0.013c0.098-0.009 0.158-0.033 0.204-0.079 0.1-0.101 0.113-0.218 0.033-0.311-0.054-0.063-0.094-0.079-0.221-0.090z"></path>
<path fill="#444" d="M0 12.362v0.163l1.188 0.015 0.11 0.826c0.060 0.454 0.113 0.823 0.117 0.819s0.057-0.345 0.117-0.758c0.061-0.413 0.117-0.785 0.126-0.826l0.016-0.075h1.358l0.029 0.171c0.016 0.094 0.067 0.442 0.114 0.773s0.094 0.624 0.104 0.651c0.010 0.027 0.068-0.321 0.127-0.773l0.108-0.822h0.596c0.549 0 0.596 0.004 0.596 0.048 0 0.026-0.151 0.746-0.335 1.6l-0.335 1.553h-1.43l-0.029-0.198c-0.016-0.109-0.069-0.481-0.117-0.828s-0.096-0.638-0.105-0.649-0.071 0.361-0.137 0.828l-0.12 0.848h-0.721c-0.396 0-0.721-0.011-0.721-0.024s-0.148-0.705-0.328-1.539c-0.181-0.833-0.328-1.543-0.328-1.577l-0-0.062v7.112h31.967v-7.276h-31.967zM7.906 15.276v0.451h-2.517v-3.201h2.462v0.903h-1.176v0.246h1.094v0.903h-1.094v0.246h1.231v0.451zM11.627 17.392c0 0.637-0.012 1.18-0.028 1.263-0.087 0.46-0.402 0.749-0.936 0.858-0.264 0.054-0.92 0.055-1.167 0.001-0.23-0.050-0.49-0.174-0.629-0.3-0.062-0.056-0.153-0.183-0.202-0.283l-0.089-0.181-0.016-2.477h1.315l0 1.060c0 0.955 0.005 1.069 0.048 1.154 0.060 0.117 0.115 0.152 0.207 0.129 0.15-0.038 0.155-0.079 0.155-1.261v-1.082h1.341v1.118zM11.602 15.057c-0.103 0.313-0.351 0.539-0.726 0.661-0.198 0.064-0.271 0.073-0.699 0.080-0.263 0.005-0.542-0.003-0.62-0.017v0c-0.312-0.056-0.629-0.219-0.76-0.391-0.099-0.13-0.171-0.328-0.195-0.533l-0.019-0.169h0.646c0.633 0 0.646 0.001 0.646 0.056 0 0.079 0.073 0.211 0.135 0.244 0.1 0.053 0.22 0.033 0.305-0.052 0.174-0.174 0.091-0.234-0.605-0.441-0.72-0.214-0.858-0.295-0.979-0.573-0.11-0.253-0.098-0.665 0.027-0.909 0.128-0.25 0.429-0.447 0.806-0.527 0.258-0.055 0.883-0.054 1.153 0.002 0.513 0.106 0.786 0.381 0.822 0.825l0.014 0.171h-1.211v-0.064c0-0.094-0.108-0.183-0.224-0.183-0.093 0-0.241 0.085-0.241 0.138 0 0.068 0.143 0.137 0.447 0.217 0.677 0.176 0.893 0.265 1.077 0.445 0.177 0.172 0.238 0.338 0.238 0.651 0 0.143-0.016 0.309-0.036 0.369zM12.283 12.978v-0.451h2.845v0.903h-0.766v2.298h-1.313v-2.298h-0.766v-0.451zM15.812 17.875v1.6l-1.573-0.001-0.575-1.667-0.007 0.834-0.007 0.834h-1.094v-3.201h1.582l0.081 0.226c0.044 0.124 0.172 0.487 0.283 0.805l0.202 0.58 0.014-1.611h1.093v1.6zM18.11 17.875v1.6h-1.313v-3.201h1.313v1.6zM18.411 15.276v0.451h-2.517v-3.201h2.462v0.903h-1.176v0.246h1.094v0.903h-1.094v0.246h1.231v0.451zM21.851 19.132c-0.311 0.311-0.647 0.426-1.235 0.424-0.261-0.001-0.412-0.016-0.558-0.054v0c-0.276-0.072-0.455-0.174-0.652-0.373-0.305-0.306-0.428-0.667-0.428-1.254s0.126-0.951 0.436-1.262c0.296-0.297 0.65-0.419 1.214-0.419 0.567 0 0.921 0.122 1.219 0.421 0.312 0.312 0.434 0.667 0.434 1.26 0 0.596-0.12 0.948-0.43 1.257zM21.723 15.727h-0.655l-0.028-0.103c-0.015-0.056-0.053-0.275-0.084-0.486-0.064-0.435-0.094-0.487-0.294-0.52l-0.116-0.019v1.126h-1.286v-3.201h1.107c1.162 0 1.297 0.011 1.52 0.124 0.256 0.129 0.354 0.318 0.355 0.68 0 0.134-0.013 0.29-0.031 0.347-0.042 0.139-0.168 0.288-0.303 0.356l-0.11 0.056 0.115 0.057c0.198 0.098 0.246 0.215 0.315 0.773 0.024 0.196 0.068 0.453 0.097 0.571s0.053 0.22 0.053 0.226-0.295 0.010-0.655 0.010zM26.4 17.875v1.6h-1.576l-0.572-1.652-0.014 1.652h-1.093v-3.201h1.58l0.568 1.628 0.015-1.628h1.093v1.6zM26.4 14.127v1.6h-1.574l-0.573-1.652-0.014 1.652h-1.093v-3.201h1.58l0.568 1.628 0.015-1.628h1.093v1.6zM27.713 15.973v3.529h-0.492v-7.058h0.492v3.529zM30.503 16.014v3.488h-0.465v-6.976h0.465v3.488z"></path>
<path fill="#444" d="M20.436 17.231c-0.168 0.328-0.105 1.328 0.088 1.405 0.070 0.028 0.175 0.017 0.233-0.024 0.18-0.126 0.226-1.056 0.068-1.379-0.090-0.183-0.296-0.184-0.389-0.002z"></path>
<path fill="#444" d="M1.414 14.364c0.008-0.020 0.007-0.043-0.002-0.052s-0.016 0.007-0.014 0.036c0.001 0.032 0.008 0.038 0.017 0.017z"></path>
</svg>
