<svg xmlns="http://www.w3.org/2000/svg" width="459.675" height="646.701" viewBox="0 0 459.675 646.701"><path fill-rule="evenodd" clip-rule="evenodd" fill="#333" d="M0 576.02v-8l459-60.427v16L0 584.02v-8zm0-28l459-60.427v8L0 556.02v-8zm407.126-210.9c16.645-2.19 31.536 5.75 31.536 37.65 0 39.16-21.9 73.282-59.35 78.213-11.827 1.558-26.062.13-36.574-2.005l18.645-174.572-15.33 3.56c0-3.08 2.19-12.83 4.6-15.566 6.13-4.107 15.11-7.49 24.527-8.73 2.848-.374 8.322-.435 11.17-.15l-5.066 66.525c-1.095 11.144-2.16 27.388-4.79 37.634l.63-.348c4.597-10.286 14.67-20.192 30.002-22.21zm-32.413 38.368l-6.352 60.017c3.286.668 7.667.97 12.266.365 23.872-3.143 32.632-27.616 32.632-52.916 0-18.26-4.6-27.335-15.33-25.922-9.2 1.21-18.616 9.71-23.215 18.456zm-176.93-68.413l15.768-3.616c0 4.4-2.408 12.636-4.817 16.694-7.008 3.562-21.682 8.354-29.347 9.364-2.628-4.274-4.818-11.686-5.475-17.1l-1.532.202c-5.913 10.458-16.207 19.954-33.29 22.203-13.14 1.73-26.5-3.11-26.5-25.11 0-13.42 6.133-50.75 8.542-64.486l-15.55 3.587c0-2.86 2.19-12.83 4.6-15.566 5.913-4.08 15.11-7.49 24.748-8.758 2.847-.375 8.322-.436 11.17-.15-2.63 20.366-8.105 65.747-8.105 75.867 0 9.9 3.504 15.82 12.265 14.666 8.98-1.183 17.958-9.185 22.776-17.74l7.884-59.777-14.455 3.443c0-3.08 2.41-12.858 4.818-15.595 5.695-4.05 14.236-7.375 23.653-8.614 2.847-.374 8.103-.406 10.73-.092l-8.978 86.763c.003.88.66 3.433 1.097 3.815zm-20.51 173.332l-9.998-84.015-1.895.26c-7.156 28.18-17.996 65.53-28.1 92.124l-26.1-1.27-9.472-90.234-13.682 5.21c0-3.096 1.895-12.862 4-15.806 5.893-3.906 13.47-8.718 20.627-9.703 3.79-.52 7.367-.57 10.735.07l5.05 63.87c.422 6.354.632 18.927.632 26.664l1.895-.26c8.84-27.306 17.365-62.79 23.89-90.218l30.52-4.855 7.368 59.1c.842 7.18 3.263 21.502 3.263 29.02l1.894-.262c8.84-23.767 16.102-52.245 22.627-75.25 0-.665-.42-2.597-.842-3.644l-13.892 3.017c.42-4.48 2.736-12.98 5.683-16.48 4.63-2.626 17.26-6.353 21.89-6.99 3.79 2.793 8.63 12.518 8.63 16.72-10.734 31.322-23.89 70.118-39.676 104.348l-25.046-1.418zm46.076-175.464l16.862-129.16-15.33 3.558c0-3.08 2.19-12.828 4.598-15.565 6.132-4.107 15.11-7.49 24.528-8.73 2.847-.374 8.322-.435 11.17-.15L248.97 296.29c0 .88.658 2.994 1.097 3.596l16.206-3.894c0 4.4-2.41 12.637-4.6 16.666-7.227 3.812-21.9 8.383-29.565 9.392-4.16-3.853-8.76-12.487-8.76-17.107zm100.52-16.534c0 4.4-2.408 12.636-4.598 16.665-7.228 3.812-21.9 8.383-29.565 9.393-4.162-3.853-8.76-12.487-8.76-17.107l16.862-129.16-15.33 3.558c0-3.08 2.188-12.83 4.598-15.566 6.133-4.107 15.11-7.49 24.53-8.73 2.846-.374 8.32-.435 11.168-.15L306.57 288.71c0 .88.656 2.993 1.095 3.596l16.206-3.895zm-33.913 155.877c10.294-1.355 25.843-8.022 34.822-14.484 0 5.06-1.972 12.8-4.382 17.297-8.32 7.915-21.9 16.523-38.325 18.686-23.652 3.114-34.603-9.305-34.603-35.704 0-18.04 5.256-40.072 16.425-55.403 9.198-12.432 22.558-21.67 39.42-23.89 19.055-2.51 29.566 6.007 29.566 22.507 0 17.38-11.825 36.977-60.225 45.99v4.84c0 16.278 5.476 21.717 17.302 20.16zm19.272-66.558c0-7.04-2.63-11.975-9.855-11.023-7.446.98-14.455 7.183-18.835 15.02-3.504 6.182-5.476 14.58-6.35 21.296 30.44-5.547 35.04-16.053 35.04-25.294zM34.376 241.423c3.942-2.06 9.198-4.29 14.016-5.806l1.314-11.173c3.723-31.73 23.872-46.703 45.553-49.557 6.79-.894 15.55-.728 24.748 1.142 0 8.14-3.285 21.553-6.79 29.494-5.255.692-13.36-.662-17.3-2.562l1.75-12.33c-1.532-.68-3.722-.61-5.255-.41-8.54 1.126-17.52 9.348-19.93 29.905l-1.752 14.97 28.034-3.69c.438 4.343 0 12.54-.876 17.057l-28.69 3.777-10.264 129.515c-3.504 1.122-11.198 4.312-16.235 4.975-4.162.548-7.885.817-10.95.34L46.42 255.24l-17.3 2.277c.656-5.147 3.284-12.313 5.255-16.093zM0 142.02l459-60.428v8L0 150.022v-8zm0-20v-8l459-60.428v16L0 130.022v-8zm446.856-92.24l-11.024-12.01-.105.013v13.462l-6.467.85V3.37l6.467-.85v11.87l.105-.013 10.494-13.253L454.86 0l-12.88 15.052 13.567 13.583-8.69 1.145zm-66.302.885c.742.715 1.625 1.244 2.65 1.585 1.024.342 2.173.43 3.444.262 2.72-.358 4.894-1.775 6.52-4.25l5.088 3.2c-1.166 1.743-2.677 3.25-4.53 4.518-1.856 1.27-4.286 2.1-7.29 2.497-2.33.307-4.434.22-6.306-.256-1.873-.476-3.48-1.29-4.823-2.438s-2.377-2.61-3.1-4.388c-.726-1.777-1.087-3.814-1.087-6.11 0-2.297.405-4.427 1.22-6.39.81-1.96 1.915-3.678 3.31-5.152 1.397-1.473 3.057-2.69 4.982-3.65 1.926-.96 4.002-1.587 6.23-1.88 2.153-.283 4.186-.162 6.094.364 1.908.526 3.498 1.52 4.77 2.976l-4.93 4.73c-.706-.896-1.58-1.54-2.622-1.934-1.043-.393-2.2-.505-3.472-.338-1.272.168-2.43.54-3.472 1.12-1.043.58-1.935 1.324-2.677 2.234-.742.91-1.316 1.958-1.723 3.142-.406 1.185-.61 2.465-.61 3.843 0 1.342.204 2.552.61 3.63.407 1.074.982 1.97 1.724 2.685zM332.96 38.52l-11.818 1.557-2.49 6.582-6.997.92 12.455-30.366 6.2-.816 12.403 27.093-7.208.95-2.544-5.92zm-5.936-14.217l-3.87 10.42L331 33.69l-3.976-9.387zm-49.08 27.714l-6.465.85V29.603l-8.375 1.103v-5.46l23.214-3.055v5.46l-8.375 1.102v23.265zm-50.137-16.534c-1.074-.476-2.227-.634-3.46-.472-.527.07-1.055.193-1.583.368-.528.176-.996.405-1.4.688-.405.284-.73.635-.977 1.056-.247.42-.37.896-.37 1.427 0 .53.124.963.37 1.302.247.338.625.616 1.135.83.51.217 1.126.383 1.85.5s1.557.237 2.507.36c.985.117 1.998.3 3.036.553 1.038.252 1.98.65 2.825 1.19.846.544 1.54 1.265 2.087 2.165.546.9.818 2.04.818 3.417 0 1.732-.31 3.248-.927 4.548-.62 1.3-1.458 2.4-2.518 3.3-1.06.9-2.27 1.615-3.63 2.146-1.36.533-2.783.897-4.268 1.093-2.12.28-4.187.153-6.2-.376s-3.676-1.468-4.983-2.815l4.504-5.15c.707.93 1.67 1.652 2.89 2.163 1.218.51 2.57.668 4.053.473.495-.065.998-.185 1.51-.358.513-.173.98-.412 1.405-.715.424-.303.77-.675 1.034-1.117.265-.44.397-.98.397-1.616 0-.6-.133-1.086-.397-1.458-.265-.37-.654-.673-1.166-.907-.513-.232-1.158-.412-1.935-.54-.778-.127-1.68-.247-2.703-.36-1.025-.112-2.014-.292-2.968-.537-.954-.246-1.812-.627-2.57-1.146-.76-.518-1.37-1.206-1.83-2.065-.458-.86-.687-1.96-.687-3.302 0-1.59.31-3 .927-4.23.618-1.228 1.44-2.282 2.464-3.16 1.024-.876 2.182-1.576 3.472-2.1 1.29-.52 2.605-.872 3.948-1.05 1.98-.26 3.896-.158 5.75.304 1.855.463 3.348 1.36 4.48 2.696l-4.384 4.764c-.598-.768-1.435-1.39-2.507-1.87zm-62.274 2.607l6.466-.85v23.054l11.712-1.542v5.67l-18.18 2.394V38.09zm-49.45 6.51l6.467-.85v23.054l11.713-1.542v5.67l-18.18 2.394V44.6zM78.297 76.05c-1.096 1.116-2.377 2.026-3.843 2.73-1.466.706-3.03 1.168-4.69 1.387-1.66.22-3.225.168-4.69-.15-1.467-.32-2.748-.893-3.842-1.72-1.095-.828-1.952-1.917-2.57-3.267s-.927-2.943-.927-4.78V52.283l6.466-.85v17.49c0 1.767.45 3.173 1.35 4.22s2.307 1.445 4.214 1.194c1.908-.25 3.32-1.02 4.24-2.307.918-1.287 1.378-2.813 1.378-4.58V49.96l6.466-.853v17.967c0 1.837-.318 3.513-.954 5.028-.637 1.516-1.503 2.832-2.598 3.947zM12.364 70.5L24.5 68.9v5.195l-12.136 1.598v11.29l-6.466.85V59.108l19.345-2.547v5.46l-12.88 1.695V70.5zm13.773 564.765l.106-.015v-19.82l6.2-.817v28.726L24.6 644.37l-11.395-18.375-.106.014v19.876l-6.202.816v-28.726l7.844-1.033 11.395 18.322zm53.795-21.552l-13.356 1.76v6.04l12.667-1.667v5.088l-12.667 1.668v6.73l14.045-1.85v5.513l-20.51 2.7v-28.673l19.822-2.61v5.3zm35.35 10.133l.106-.014 5.565-20.873 7.155-.942 5.618 19.4.106-.014 5.3-20.838 6.943-.914-8.692 29.87-6.996.92-5.83-19.054-.106.015-5.83 20.59-6.942.913-8.745-27.574 7.155-.942 5.194 19.456zm59.28-5.155c1.22.513 2.57.67 4.054.475.495-.065.998-.185 1.51-.357.513-.174.98-.412 1.405-.716.425-.302.77-.675 1.035-1.116.265-.44.397-.98.397-1.616 0-.6-.133-1.086-.397-1.458-.265-.37-.654-.673-1.166-.906-.514-.232-1.16-.412-1.936-.54-.778-.127-1.68-.247-2.703-.36-1.024-.11-2.013-.29-2.967-.536s-1.812-.627-2.57-1.146c-.76-.518-1.37-1.206-1.83-2.065-.46-.858-.688-1.96-.688-3.302 0-1.59.31-3 .927-4.23.618-1.228 1.44-2.282 2.464-3.16 1.024-.876 2.182-1.575 3.472-2.1 1.29-.52 2.605-.872 3.948-1.05 1.98-.26 3.896-.158 5.75.304 1.855.463 3.348 1.36 4.48 2.696l-4.384 4.764c-.6-.77-1.435-1.392-2.508-1.87-1.074-.476-2.227-.633-3.46-.47-.527.068-1.055.19-1.583.366s-.995.405-1.4.688c-.404.284-.73.636-.976 1.057-.247.422-.37.896-.37 1.427 0 .53.124.964.37 1.303s.625.615 1.135.83c.51.217 1.125.383 1.848.5.722.116 1.558.236 2.508.358.985.12 1.998.304 3.037.555 1.04.253 1.98.65 2.825 1.192s1.54 1.264 2.086 2.163c.545.9.82 2.038.82 3.417 0 1.73-.31 3.247-.93 4.547-.618 1.3-1.457 2.4-2.516 3.3-1.06.9-2.27 1.615-3.63 2.147-1.36.533-2.783.897-4.268 1.093-2.12.28-4.187.153-6.2-.376-2.015-.53-3.676-1.47-4.983-2.815l4.505-5.15c.708.928 1.67 1.65 2.89 2.16zm47.62-6.002l11.713-1.542v5.67l-18.18 2.395v-28.726l6.467-.85v23.054zm55.915-25.064l-13.355 1.76v6.04l12.667-1.667v5.088l-12.668 1.668v6.73l14.045-1.85v5.513l-20.51 2.7v-28.673l19.82-2.61v5.3zm46.11-5.964l-8.374 1.102v23.268l-6.466.852v-23.268l-8.374 1.103v-5.46l23.214-3.055v5.458zm42.453-5.59l-8.374 1.103v23.268l-6.466.852v-23.267l-8.375 1.103v-5.46l23.215-3.056v5.458zm43.672-5.855l-13.356 1.76v6.04l12.667-1.667v5.088l-12.667 1.668v6.73l14.045-1.85v5.513l-20.51 2.7v-28.673l19.822-2.61v5.3zm41.34-10.397c1.307.13 2.464.472 3.472 1.03 1.007.558 1.802 1.347 2.385 2.367s.873 2.327.873 3.92c0 2.088-.53 3.884-1.59 5.386-1.06 1.504-2.385 2.607-3.975 3.313l6.837 11.26-7.632 1.004-5.725-10.43-2.81.37v11.184l-6.465.852v-28.778l10.44-1.375c1.486-.197 2.88-.23 4.19-.102zm-8.162 5.923v7.368l3.286-.433c.6-.08 1.21-.213 1.828-.4.618-.187 1.166-.453 1.644-.8.477-.344.865-.793 1.166-1.345.3-.552.45-1.234.45-2.047 0-.67-.133-1.21-.397-1.617-.266-.406-.62-.714-1.06-.92-.442-.207-.946-.327-1.51-.358-.567-.03-1.133-.01-1.697.064l-3.71.49z"/></svg>