<svg style="position:absolute;width:0;height:0" width="0" height="0" xmlns="http://www.w3.org/2000/svg"><defs><symbol viewBox="0 0 1024 1024"><title>cool</title><path class="path1" d="M512 1024c282.77 0 512-229.23 512-512S794.77 0 512 0 0 229.23 0 512s229.23 512 512 512zm0-928c229.75 0 416 186.25 416 416S741.75 928 512 928 96 741.75 96 512 282.25 96 512 96zm288 160c17.6 0 32 14.4 32 32v96c0 35.2-28.8 64-64 64H640c-35.2 0-64-28.8-64-64H448c0 35.2-28.8 64-64 64H256c-35.2 0-64-28.8-64-64v-96c0-17.6 14.4-32 32-32h192c17.6 0 32 14.4 32 32v32h128v-32c0-17.6 14.4-32 32-32h192zM512 768c93.208 0 174.772-49.818 219.546-124.278l54.88 32.934C730.46 769.726 628.51 832 512 832c-48.458 0-94.384-10.796-135.54-30.082l33.162-55.278C440.976 760.354 475.586 768 512 768z"/></symbol><symbol viewBox="0 0 658 1024"><title>angle-down</title><path class="path1" d="M614.286 420.57q0 7.43-5.714 13.144L342.286 700q-5.714 5.714-13.143 5.714T316 700L49.714 433.714Q44 428 44 420.57t5.714-13.142l28.57-28.57q5.715-5.715 13.144-5.715t13.143 5.714l224.572 224.57 224.57-224.57q5.715-5.714 13.144-5.714T580 378.857l28.57 28.57q5.714 5.715 5.714 13.144z"/></symbol><symbol viewBox="0 0 658 1024"><title>angle-up</title><path class="path1" d="M614.286 676.57q0 7.43-5.714 13.144l-28.57 28.57Q574.286 724 566.857 724t-13.143-5.715l-224.57-224.57-224.572 224.57Q98.86 724 91.43 724t-13.143-5.715l-28.57-28.57Q44 684 44 676.57t5.714-13.142l266.286-266.286q5.714-5.714 13.143-5.714t13.143 5.714l266.286 266.286q5.714 5.714 5.714 13.143z"/></symbol><symbol viewBox="0 0 347 1024"><title>angle-right</title><path class="path1" d="M340 548.57q0 7.43-5.714 13.144L68 828q-5.714 5.714-13.143 5.714T41.714 828l-28.57-28.57q-5.715-5.715-5.715-13.144t5.713-13.143l224.57-224.57L13.144 324Q7.43 318.288 7.43 310.86t5.713-13.143l28.57-28.57q5.715-5.715 13.144-5.715T68 269.144L334.286 535.43Q340 541.144 340 548.573z"/></symbol><symbol viewBox="0 0 384 1024"><title>angle-left</title><path class="path1" d="M358.286 310.857q0 7.43-5.714 13.143l-224.57 224.57 224.57 224.572q5.714 5.714 5.714 13.143t-5.714 13.143l-28.57 28.57q-5.715 5.715-13.144 5.715T297.715 828L31.43 561.712Q25.714 556 25.714 548.57t5.714-13.143L297.714 269.14q5.714-5.713 13.143-5.713T324 269.14l28.572 28.572q5.714 5.714 5.714 13.143z"/></symbol><symbol viewBox="0 0 1024 1024"><title>apple-logo</title><path class="path1" d="M664.564 530.003c-.634-72.81 57.784-107.766 60.427-109.47-32.872-49.496-84.033-56.277-102.284-57.075-43.514-4.532-84.95 26.36-107.006 26.36s-56.163-25.708-92.243-24.982c-47.496.725-91.22 28.392-115.674 72.122-49.293 88.004-12.58 218.433 35.41 289.866 23.5 34.92 51.477 74.26 88.262 72.81 35.446-1.45 48.835-23.568 91.61-23.568s54.823 23.57 92.277 22.88c38.088-.76 62.26-35.68 85.584-70.707 26.92-40.54 38.053-79.774 38.687-81.84-.846-.364-74.274-29.336-75.05-116.397z"/><path class="path2" d="M540.913 267.962c-18.075 21.503-33.93 55.95-29.633 88.984 31.36 2.502 63.386-16.428 82.908-40.722 19.52-24.33 32.697-58.162 29.067-91.883-28.12 1.163-62.153 19.292-82.343 43.622z"/></symbol><symbol viewBox="0 0 1024 1024"><title>check</title><path class="path1" d="M954.857 323.43q0 22.856-16 38.856l-491.43 491.43q-16 16-38.856 16t-38.856-16L85.144 569.143q-16-16-16-38.857t16-38.857l77.713-77.714q16-16 38.857-16t38.857 16l168 168.57L783.43 206.86q16-16 38.857-16t38.857 16l77.714 77.714q16 16 16 38.857z"/></symbol><symbol viewBox="0 0 1024 1024"><title>clear--day</title><path class="path1" d="M512 288c-123.5 0-224 100.5-224 224s100.5 224 224 224 224-100.5 224-224-100.5-224-224-224zm0 384c-88.376 0-160-71.624-160-160s71.624-160 160-160 160 71.624 160 160-71.624 160-160 160zm0-448c17.666 0 32-14.334 32-32v-64c0-17.666-14.334-32-32-32s-32 14.334-32 32v64c0 17.666 14.334 32 32 32zm0 576c-17.666 0-32 14.334-32 32v64c0 17.666 14.334 32 32 32s32-14.334 32-32v-64c0-17.666-14.334-32-32-32zm248.876-491.666l45.25-45.25c12.5-12.5 12.5-32.75 0-45.25s-32.75-12.5-45.25 0l-45.25 45.25c-12.5 12.5-12.5 32.75 0 45.25 12.498 12.5 32.75 12.5 45.25 0zM263.124 715.668l-45.25 45.25c-12.5 12.498-12.5 32.748 0 45.248s32.75 12.5 45.25 0l45.25-45.248c12.5-12.542 12.5-32.752 0-45.25-12.498-12.502-32.75-12.544-45.25 0zM224 512c0-17.666-14.334-32-32-32h-64c-17.666 0-32 14.334-32 32s14.334 32 32 32h64c17.666 0 32-14.334 32-32zm672-32h-64c-17.666 0-32 14.334-32 32s14.334 32 32 32h64c17.666 0 32-14.334 32-32s-14.334-32-32-32zM263.082 308.334c12.502 12.5 32.752 12.5 45.25 0 12.502-12.5 12.502-32.75 0-45.25l-45.25-45.25c-12.5-12.5-32.748-12.5-45.25 0-12.5 12.5-12.5 32.75 0 45.25l45.25 45.25zm497.836 407.29c-12.542-12.5-32.752-12.5-45.25 0-12.502 12.5-12.542 32.75 0 45.25l45.25 45.25c12.498 12.5 32.748 12.5 45.248 0s12.5-32.748 0-45.25l-45.248-45.25z"/></symbol><symbol viewBox="0 0 1024 1024"><title>clear--night</title><path class="path1" d="M699.704 686.3c-99.752 99.832-262.166 99.832-362 0-99.832-99.834-99.832-262.25 0-362.042 26.418-26.374 58.624-46.5 95.664-59.624 11.668-4.084 24.586-1.124 33.25 7.584 8.752 8.75 11.71 21.666 7.586 33.25-25.084 70.75-8 147.332 44.498 199.834 52.418 52.456 129.002 69.5 199.834 44.5 11.584-4.124 24.542-1.166 33.25 7.584 8.752 8.666 11.668 21.624 7.542 33.25-13.042 37.04-33.208 69.246-59.624 95.664zm-316.75-316.792c-74.876 74.876-74.876 196.708 0 271.542 80 80.042 216.25 72.834 286-16.334-71.918 4.5-142.75-21.458-195.5-74.168-52.75-52.708-78.666-123.542-74.168-195.458-5.748 4.502-11.208 9.294-16.332 14.418z"/></symbol><symbol viewBox="0 0 1024 1024"><title>cloudy--day</title><path class="path1" d="M416 128c17.666 0 32-14.334 32-32V32c0-17.666-14.334-32-32-32s-32 14.334-32 32v64c0 17.666 14.334 32 32 32zm248.876 84.334l45.25-45.25c12.498-12.5 12.498-32.75 0-45.25-12.5-12.5-32.75-12.5-45.25 0l-45.25 45.25c-12.5 12.5-12.5 32.75 0 45.25 12.498 12.5 32.75 12.5 45.25 0zM32 448h64c17.666 0 32-14.334 32-32s-14.334-32-32-32H32c-17.666 0-32 14.334-32 32s14.334 32 32 32zm672-32c0 17.666 14.334 32 32 32h64c17.666 0 32-14.334 32-32s-14.334-32-32-32h-64c-17.666 0-32 14.334-32 32zM167.082 212.334c12.502 12.5 32.752 12.5 45.25 0 12.502-12.5 12.502-32.75 0-45.25l-45.25-45.25c-12.5-12.5-32.748-12.5-45.25 0-12.5 12.5-12.5 32.75 0 45.25l45.25 45.25zM800 512c-10.624 0-21.124.75-31.584 2.25-33.542-45.75-78.248-80.666-128.916-103C636.918 290 537.876 192 416 192c-123.5 0-224 100.5-224 224 0 34.876 8.668 67.5 23 96.876C95.75 517.75 0 615.624 0 736c0 123.5 100.5 224 224 224 27.376 0 54.168-5 79.418-14.666C361.332 995.834 435 1024 512 1024c77.084 0 150.666-28.166 208.582-78.666C745.832 955 772.624 960 800 960c123.5 0 224-100.5 224-224S923.5 512 800 512zM416 256c79.624 0 145.124 58.334 157.416 134.5-20.042-4-40.498-6.5-61.416-6.5-91.876 0-177 39.624-236.75 106.5C263.376 468.166 256 443.084 256 416c0-88.376 71.624-160 160-160zm384 640c-34.25 0-65.832-11-91.876-29.334C661.168 923.25 591.248 960 512 960c-79.25 0-149.168-36.75-196.124-93.334C289.876 885 258.25 896 224 896c-88.376 0-160-71.624-160-160s71.624-160 160-160c15.5 0 30.124 2.916 44.25 7.082 5.624 1.584 11.334 2.834 16.624 5.042 8.75-17.124 19.75-32.792 31.958-47.5C363.584 484.376 433.124 448 512 448c20.25 0 39.668 2.916 58.5 7.418C591.624 460.416 611.584 468 630.168 478 676.75 502.75 715 541.084 739.082 588.126 757.876 580.376 778.418 576 800 576c88.376 0 160 71.624 160 160s-71.624 160-160 160z"/></symbol><symbol viewBox="0 0 1024 1024"><title>cloudy--night</title><path class="path1" d="M870.124 524.332c9.75-7.25 19.624-14.376 28.458-23.208 26.416-26.458 46.542-58.666 59.584-95.708 4.166-11.584 1.208-24.584-7.544-33.25-8.708-8.75-21.624-11.708-33.246-7.584-70.792 25-147.376 8-199.792-44.5-52.5-52.502-69.584-129.042-44.5-199.792 4.084-11.626 1.166-24.542-7.584-33.292-8.666-8.666-21.624-11.668-33.25-7.582-37.084 13.164-69.25 33.246-95.668 59.664-67.082 67-87.958 162-64.958 247.584-86.5 11.042-164.25 57-216.042 127.586-10.458-1.5-20.958-2.25-31.584-2.25-123.5 0-224 100.5-224 224.002 0 123.498 100.5 223.998 224 223.998 27.376 0 54.168-5 79.418-14.668C361.33 995.832 434.998 1024 511.998 1024c77.084 0 150.666-28.168 208.582-78.668C745.83 955 772.622 960 799.998 960c123.5 0 224-100.5 224-223.998.002-98.878-64.832-182.044-153.874-211.67zm-288.292-340c5.084-5.166 10.542-9.958 16.292-14.458-4.5 71.958 21.458 142.75 74.208 195.458 52.752 52.75 123.542 78.666 195.502 74.208-27.584 35.168-65.584 57.042-106.252 66.376-54.75-69.5-135.208-113.25-223.916-120.374-24.542-67.918-10.166-146.876 44.166-201.21zM800 896c-34.25 0-65.832-11-91.876-29.334C661.166 923.25 591.248 960 512 960c-79.25 0-149.168-36.75-196.124-93.334C289.876 885 258.252 896 224 896c-88.376 0-160-71.624-160-159.998 0-88.376 71.624-160 160-160 21.624 0 42.124 4.376 60.876 12.124 40.376-78.71 119.5-133.792 212.624-139.086 4.876-.29 9.624-1.042 14.5-1.042 25.832 0 50.624 4.042 74 11.166 31.582 9.668 60.376 25.416 85.376 45.708 23.876 19.376 43.876 43.124 59.624 69.792 2.666 4.5 5.668 8.75 8.082 13.458 18.792-7.75 39.336-12.124 60.918-12.124 88.376 0 160 71.624 160 160S888.376 896 800 896z"/></symbol><symbol viewBox="0 0 1024 1024"><title>diageo-logo</title><path class="path1" d="M318.36 538.29c.657-1.327 1.76-3.507 2.194-4.61l26.73-64.83 26.283 65.487c.44 1.103 1.308 2.85 1.964 4.387l-3.27.657c-7.454 1.97-15.775 3.285-24.32 3.285s-16.433-1.09-24.76-3.284c-1.537-.44-3.717-1.09-4.82-1.09zM46.533 439.494c29.79 0 50.827 6.134 63.97 17.746 15.76 13.792 23.648 31.984 23.648 54.76 0 21.68-7.67 39.656-22.782 53.67-13.143 12.486-34.605 19.054-64.836 19.054h-9.635v-145.23h9.635zm919.98 18.625c14.908 14.455 22.13 32.634 22.13 53.88 0 21.03-7.452 38.985-22.13 53.887-14.673 14.672-32.412 22.12-53.218 22.12-41.842 0-75.134-34.388-75.134-76.007 0-21.023 7.443-39.21 22.12-54.104 14.457-14.672 32.425-21.91 53.015-21.91s38.328 7.454 53.217 22.133zm-352.865 12.695l26.5-22.783c-22.783-30.44-53.23-45.553-89.15-45.553-61.123 0-110.407 48.843-110.407 109.96 0 59.806 49.068 109.082 108.866 109.082 15.112 0 29.567-3.29 43.59-9.64 13.587-6.135 25.41-14.68 35.057-25.844 9.194-10.292 15.112-22.12 18.612-35.052 2.85-10.725 4.604-23.873 3.718-39.648l-.434-6.35h-95.5v33.52h58.7c-1.53 13.148-8.326 24.536-20.155 33.955-12.918 10.508-27.603 15.546-44.023 15.546-19.06 0-36.148-7.882-51.91-23.434-14.24-14.462-21.476-31.76-21.476-51.917 0-21.247 7.453-39.65 22.783-54.978 14.454-14.68 31.976-21.693 52.126-21.693 25.85 0 46.223 11.828 63.102 34.827zM389.113 571.8l19.5 46.432h38.557L356.702 405.33H339.18L246.3 618.23h38.336l20.372-47.307c.434-1.314.65-2.194.874-3.067.867.44 2.193.873 3.718 1.537 11.388 4.38 24.977 6.784 38.342 6.784 13.136 0 26.067-2.628 33.738-5.255 3.933-1.314 5.24-1.964 6.343-2.627.224.88.874 2.85 1.09 3.5zM45.437 618.23c38.992 0 69-8.754 89.155-26.94 22.993-20.59 34.605-46.873 34.605-79.073 0-33.515-11.828-60.448-35.478-80.605-19.933-17.09-49.508-25.633-87.843-25.633H.534v212.25h44.903zm187.065-212.25H197.68v212.25h34.822V405.98zm475.54 113.244h74.262v-33.29h-74.26v-46.44h80.827v-33.515H673.215v212.25h115.873v-33.507h-81.044v-65.5zm127.492-84.544c-21.693 21.246-32.41 47.306-32.41 77.537 0 61.118 49.276 109.305 110.17 109.305 61.113 0 110.173-47.97 110.173-109.305 0-30.007-10.955-55.64-32.195-77.32-21.476-21.687-47.537-32.42-77.977-32.42-30.237 0-56.297 10.733-77.76 32.202z"/></symbol><symbol viewBox="0 0 1024 1024"><title>foggy</title><path class="path1" d="M67.208 512C65.124 501.666 64 490.958 64 480c0-88.376 71.624-160 160-160 21.624 0 42.124 4.416 60.876 12.166C327.334 249.334 412.582 192 512 192s184.668 57.334 227.082 140.166C757.876 324.416 778.418 320 800 320c88.376 0 160 71.624 160 160 0 10.958-1.124 21.666-3.25 32h64c1.584-10.542 3.25-21.042 3.25-32 0-123.5-100.5-224-224-224-10.624 0-21.124.75-31.584 2.25C708.668 176.834 614.376 128 512 128s-196.624 48.834-256.416 130.25c-10.46-1.5-20.96-2.25-31.584-2.25C100.5 256 0 356.5 0 480c0 10.958 1.708 21.458 3.25 32h63.958zM992 576H32c-17.666 0-32 14.334-32 32s14.334 32 32 32h960c17.666 0 32-14.334 32-32s-14.334-32-32-32zm0 128H32c-17.666 0-32 14.334-32 32s14.334 32 32 32h960c17.666 0 32-14.334 32-32s-14.334-32-32-32zm0 128H32c-17.666 0-32 14.334-32 32s14.334 32 32 32h960c17.666 0 32-14.334 32-32s-14.334-32-32-32z"/></symbol><symbol viewBox="0 0 1024 1024"><title>github-alt</title><path class="path1" d="M365.714 694.857q0 22.857-7.143 46.857T334 785.144t-41.43 19.428-41.428-19.43-24.57-43.428-7.144-46.857T226.57 648t24.572-43.43 41.43-19.428T334 604.572 358.57 648t7.144 46.857zm365.715 0q0 22.857-7.144 46.857t-24.57 43.43-41.43 19.428-41.43-19.43-24.57-43.428-7.143-46.857T592.286 648t24.57-43.43 41.43-19.428 41.43 19.43T724.285 648t7.143 46.857zm91.427 0q0-68.57-39.43-116.57t-106.856-48q-23.428 0-111.428 12-40.57 6.285-89.714 6.285t-89.714-6.286q-86.857-12-111.43-12-67.428 0-106.856 48t-39.43 116.57q0 50.287 18.287 87.715t46.286 58.858 69.715 34.286 80 16.857 85.143 4h96q46.857 0 85.143-4t80-16.856 69.715-34.286 46.286-58.857 18.287-87.713zm128-100.57q0 118.285-34.857 189.142-21.714 44-60.286 76t-80.57 49.142T678 935.715t-98 12.57-95.43 2.572q-44.57 0-81.142-1.714T319.142 942 232 924.857t-78.287-29.43-69.143-46.285-49.143-65.714Q-.003 713.142-.003 594.285q0-135.43 77.715-226.286-15.43-46.858-15.43-97.144 0-66.286 29.144-124.57 61.714 0 108.57 22.57t108 70.57q84-20 176.572-20 84.57 0 160 18.287 60-46.857 106.857-69.143t108-22.286q29.143 58.286 29.143 124.57 0 49.715-15.43 96 77.715 91.43 77.715 227.43z"/></symbol><symbol viewBox="0 0 1024 1024"><title>heavy-rain</title><path class="path1" d="M800 128c-10.624 0-21.124.75-31.584 2.25C708.668 48.834 614.376 0 512 0S315.376 48.834 255.584 130.25c-10.46-1.5-20.96-2.25-31.584-2.25C100.5 128 0 228.5 0 352s100.5 224 224 224c27.376 0 54.168-5 79.418-14.666C361.332 611.834 435 640 512 640c77.084 0 150.666-28.166 208.582-78.666C745.832 571 772.624 576 800 576c123.5 0 224-100.5 224-224S923.5 128 800 128zm0 384c-34.25 0-65.832-11-91.876-29.334C661.168 539.25 591.248 576 512 576c-79.25 0-149.168-36.75-196.124-93.334C289.876 501 258.25 512 224 512c-88.376 0-160-71.624-160-160s71.624-160 160-160c21.624 0 42.124 4.416 60.876 12.166C327.334 121.334 412.582 64 512 64s184.668 57.334 227.082 140.166C757.876 196.416 778.418 192 800 192c88.376 0 160 71.624 160 160s-71.624 160-160 160zM450 960c0 35.376 28.624 64 64 64s64-28.624 64-64-64-128-64-128-64 92.624-64 128zm254-64c0 35.376 28.624 64 64 64s64-28.624 64-64-64-128-64-128-64 92.624-64 128zM192 768c0 35.376 28.624 64 64 64s64-28.624 64-64-64-128-64-128-64 92.624-64 128z"/></symbol><symbol viewBox="0 0 1024 1024"><title>heavy-snow</title><path class="path1" d="M652.084 887.376l-36-20.752c1.084-6.248 1.916-12.622 1.916-19.248 0-6.624-.832-13-2-19.25l36.084-20.792c16.834-9.834 22.582-31.458 12.916-48.208-9.752-16.958-31.334-22.75-48.25-13l-36.376 21c-9.752-8.292-20.75-14.792-33-19.208v-41.792c0-19.542-15.876-35.376-35.376-35.376s-35.332 15.834-35.332 35.376v41.75c-12.252 4.376-23.292 10.958-33.042 19.25l-36.292-21c-16.958-9.75-38.584-4-48.334 12.958-9.75 16.834-3.876 38.5 13 48.252l35.918 20.75c-1.168 6.292-1.918 12.668-1.918 19.292 0 6.626.75 13 1.918 19.248L372 887.376c-16.918 9.75-22.75 31.5-13 48.376s31.376 22.624 48.25 12.876l36.334-20.876c9.748 8.25 20.792 14.75 33.084 19.124v41.876C476.668 1008.25 492.5 1024 512 1024s35.376-15.75 35.376-35.248v-41.876c12.25-4.376 23.376-10.876 33.042-19.25l36.334 21c16.916 9.75 38.498 4 48.25-12.876 9.748-16.874 3.998-38.5-12.918-48.374zM512 882.75c-19.5 0-35.376-15.876-35.376-35.376S492.5 812.082 512 812.082s35.334 15.792 35.334 35.292S531.5 882.75 512 882.75zm436.332-90.25l-24.166-6.416c-.582-7.666-2.416-14.958-5.792-21.958l17.542-17.542c8.25-8.25 8.208-21.584 0-29.708-8.166-8.208-21.416-8.25-29.666 0l-17.582 17.5c-6.918-3.25-14.292-5.124-21.918-5.75l-6.418-24.124c-2.998-11.166-14.5-17.876-25.748-14.876-11.208 3.042-17.75 14.542-14.834 25.75l6.418 23.792c-3.168 2.168-6.168 4.584-9 7.334-2.75 2.834-5.084 5.832-7.252 8.918l-23.792-6.418c-11.208-2.998-22.792 3.752-25.792 14.876-2.998 11.25 3.752 22.708 14.834 25.75l24 6.458c.668 7.542 2.584 14.916 5.958 21.918L787.5 835.628c-8.166 8.208-8.124 21.458.084 29.624 8.166 8.166 21.416 8.25 29.584.084l17.664-17.666c6.918 3.414 14.336 5.332 22.002 5.914l6.332 24.042c3.084 11.208 14.5 17.876 25.752 14.876 11.166-3 17.914-14.498 14.916-25.834l-6.418-23.792c3-2.124 6.084-4.5 8.918-7.25 2.75-2.792 5.084-5.876 7.248-8.958l23.834 6.418c11.208 3 22.75-3.708 25.708-14.834 3-11.17-3.624-22.668-14.792-25.752zm-71.708 13.376c-8.25 8.25-21.542 8.208-29.75 0-8.124-8.124-8.208-21.458 0-29.708 8.208-8.166 21.542-8.166 29.75 0 8.126 8.208 8.126 21.582 0 29.708zM237.876 685l-23.75 6.376c-2.208-3-4.5-6.042-7.292-8.876-2.832-2.75-5.832-5.124-8.958-7.25l6.376-23.876c3-11.208-3.668-22.75-14.75-25.708-11.25-3-22.75 3.668-25.75 14.834l-6.5 24.124c-7.624.624-14.916 2.5-21.876 5.792l-17.624-17.542c-8.25-8.25-21.5-8.208-29.668 0-8.208 8.208-8.208 21.5 0 29.708l17.542 17.542c-3.292 7-5.208 14.376-5.792 21.958l-24.084 6.416c-11.25 3.084-17.918 14.5-14.916 25.75 3.042 11.166 14.542 17.75 25.792 14.834l23.75-6.46c2.124 3.208 4.5 6.21 7.376 9.002 2.75 2.75 5.75 5.208 8.876 7.25l-6.376 23.792c-3 11.25 3.668 22.834 14.832 25.834 11.252 3 22.668-3.666 25.668-14.876l6.5-24c7.624-.624 15-2.542 22-5.876l17.582 17.584c8.168 8.248 21.418 8.082 29.668-.084 8.124-8.124 8.25-21.416 0-29.624L218.878 754c3.376-6.92 5.376-14.376 5.876-22.002l24.124-6.376c11.124-3.042 17.792-14.5 14.792-25.75-3.002-11.12-14.502-17.788-25.794-14.872zm-60.752 56.916c-8.208 8.208-21.5 8.208-29.75 0-8.124-8.166-8.124-21.542 0-29.666 8.25-8.166 21.542-8.166 29.75 0s8.126 21.5 0 29.666zM1024 352c0-123.5-100.5-224-224-224-10.624 0-21.124.75-31.584 2.25C708.668 48.834 614.376 0 512 0S315.376 48.834 255.584 130.25c-10.46-1.5-20.96-2.25-31.584-2.25C100.5 128 0 228.5 0 352s100.5 224 224 224c27.376 0 54.168-5 79.418-14.666C361.332 611.834 435 640 512 640c77.084 0 150.666-28.166 208.582-78.666C745.832 571 772.624 576 800 576c123.5 0 224-100.5 224-224zM708.124 482.666C661.168 539.25 591.248 576 512 576c-79.25 0-149.168-36.75-196.124-93.334C289.876 501 258.25 512 224 512c-88.376 0-160-71.624-160-160s71.624-160 160-160c21.624 0 42.124 4.416 60.876 12.166C327.334 121.334 412.582 64 512 64s184.668 57.334 227.082 140.166C757.876 196.416 778.418 192 800 192c88.376 0 160 71.624 160 160s-71.624 160-160 160c-34.25 0-65.832-11-91.876-29.334z"/></symbol><symbol viewBox="0 0 1024 1024"><title>light-rain</title><path class="path1" d="M800 192c-10.624 0-21.124.75-31.584 2.25C708.668 112.834 614.376 64 512 64s-196.624 48.834-256.416 130.25c-10.46-1.5-20.96-2.25-31.584-2.25C100.5 192 0 292.5 0 416s100.5 224 224 224c27.376 0 54.168-5 79.418-14.666C361.332 675.834 435 704 512 704c77.084 0 150.666-28.166 208.582-78.666C745.832 635 772.624 640 800 640c123.5 0 224-100.5 224-224S923.5 192 800 192zm0 384c-34.25 0-65.832-11-91.876-29.334C661.168 603.25 591.248 640 512 640c-79.25 0-149.168-36.75-196.124-93.334C289.876 565 258.25 576 224 576c-88.376 0-160-71.624-160-160s71.624-160 160-160c21.624 0 42.124 4.416 60.876 12.166C327.334 185.334 412.582 128 512 128s184.668 57.334 227.082 140.166C757.876 260.416 778.418 256 800 256c88.376 0 160 71.624 160 160s-71.624 160-160 160zM448 896c0 35.376 28.624 64 64 64s64-28.624 64-64-64-128-64-128-64 92.624-64 128z"/></symbol><symbol viewBox="0 0 1024 1024"><title>light-snow</title><path class="path1" d="M652.084 887.376l-36-20.752c1.084-6.248 1.916-12.622 1.916-19.248 0-6.624-.832-13-2-19.25l36.084-20.792c16.834-9.834 22.582-31.458 12.916-48.208-9.752-16.958-31.334-22.75-48.25-13l-36.376 21c-9.752-8.292-20.75-14.792-33-19.208v-41.792c0-19.542-15.876-35.376-35.376-35.376s-35.332 15.834-35.332 35.376v41.75c-12.252 4.376-23.292 10.958-33.042 19.25l-36.292-21c-16.958-9.75-38.584-4-48.334 12.958-9.75 16.834-3.876 38.5 13 48.252l35.918 20.75c-1.168 6.292-1.918 12.668-1.918 19.292 0 6.626.75 13 1.918 19.248L372 887.376c-16.918 9.75-22.75 31.5-13 48.376s31.376 22.624 48.25 12.876l36.334-20.876c9.748 8.25 20.792 14.75 33.084 19.124v41.876C476.668 1008.25 492.5 1024 512 1024s35.376-15.75 35.376-35.248v-41.876c12.25-4.376 23.376-10.876 33.042-19.25l36.334 21c16.916 9.75 38.498 4 48.25-12.876 9.748-16.874 3.998-38.5-12.918-48.374zM512 882.75c-19.5 0-35.376-15.876-35.376-35.376S492.5 812.082 512 812.082s35.334 15.792 35.334 35.292S531.5 882.75 512 882.75zM800 128c-10.624 0-21.124.75-31.584 2.25C708.668 48.834 614.376 0 512 0S315.376 48.834 255.584 130.25c-10.46-1.5-20.96-2.25-31.584-2.25C100.5 128 0 228.5 0 352s100.5 224 224 224c27.376 0 54.168-5 79.418-14.666C361.332 611.834 435 640 512 640c77.084 0 150.666-28.166 208.582-78.666C745.832 571 772.624 576 800 576c123.5 0 224-100.5 224-224S923.5 128 800 128zm0 384c-34.25 0-65.832-11-91.876-29.334C661.168 539.25 591.248 576 512 576c-79.25 0-149.168-36.75-196.124-93.334C289.876 501 258.25 512 224 512c-88.376 0-160-71.624-160-160s71.624-160 160-160c21.624 0 42.124 4.416 60.876 12.166C327.334 121.334 412.582 64 512 64s184.668 57.334 227.082 140.166C757.876 196.416 778.418 192 800 192c88.376 0 160 71.624 160 160s-71.624 160-160 160z"/></symbol><symbol viewBox="0 0 1024 1024"><title>lightening</title><path class="path1" d="M800 128c-10.624 0-21.124.75-31.584 2.25C708.668 48.834 614.376 0 512 0S315.376 48.834 255.584 130.25c-10.46-1.5-20.96-2.25-31.584-2.25C100.5 128 0 228.5 0 352s100.5 224 224 224c27.376 0 54.168-5 79.418-14.666 24.582 21.416 52.5 37.916 81.832 50.832l49.832-49.748c-46.916-15.252-88.332-42.542-119.208-79.752C289.876 501 258.25 512 224 512c-88.376 0-160-71.624-160-160s71.624-160 160-160c21.624 0 42.124 4.416 60.876 12.166C327.334 121.334 412.582 64 512 64s184.668 57.334 227.082 140.166C757.876 196.416 778.418 192 800 192c88.376 0 160 71.624 160 160s-71.624 160-160 160c-34.25 0-65.832-11-91.876-29.334-20.75 25.042-46.624 45.334-75.25 61.168L606 624.5c41.75-13.124 81-33.876 114.582-63.166C745.832 571 772.624 576 800 576c123.5 0 224-100.5 224-224S923.5 128 800 128zM384 704l64 64-64 192 192-192-64-64 64-192-192 192z"/></symbol><symbol viewBox="0 0 1024 1024"><title>linkedin</title><path class="path1" d="M199.43 357.143V923.43H10.857V357.142h188.57zm12-174.857Q212 224 182.57 252t-77.43 28H104q-46.857 0-75.43-28T0 182.286q0-42.286 29.43-70t76.856-27.714 76 27.714 29.143 70zm666.284 416.57V923.43h-188V620.57q0-60-23.143-94t-72.285-34q-36 0-60.286 19.715t-36.287 48.857q-6.286 17.143-6.286 46.286v316h-188q1.143-228 1.143-369.714T304 384.57l-.572-27.428h188v82.286h-1.143q11.43-18.286 23.43-32T546 377.714t49.714-24.857 65.43-8.857q97.713 0 157.142 64.857t59.43 190z"/></symbol><symbol viewBox="0 0 1024 1024"><title>lowe-profero-logo</title><path class="path1" d="M513.676 342.272c-93.197 0-168.748 75.55-168.748 168.748s75.55 168.748 168.748 168.748 168.748-75.55 168.748-168.748-75.55-168.748-168.748-168.748zM510.042 610.9c-54.62 0-98.9-44.28-98.9-98.9s44.28-98.9 98.9-98.9 98.9 44.28 98.9 98.9-44.28 98.9-98.9 98.9z"/><path class="path2" d="M790.374 221.876H233.626c-6.463 0-11.75 5.288-11.75 11.75v556.748c0 6.463 5.288 11.75 11.75 11.75h556.748c6.463 0 11.75-5.288 11.75-11.75V233.626c0-6.463-5.288-11.75-11.75-11.75zm-276.698 525.13c-131.053 0-237.292-106.238-237.292-237.29s106.24-237.293 237.292-237.293 237.292 106.24 237.292 237.292-106.24 237.292-237.292 237.292z"/></symbol><symbol viewBox="0 0 1024 1024"><title>lufthansa-logo</title><path class="path1" d="M174.756 512.213c0 48.437-39.048 87.272-87.485 87.272C39.05 599.485 0 560.65 0 512.427c0-49.29 39.047-87.912 88.764-87.912 47.157 0 85.99 39.688 85.99 87.698zm-165.794 0c0 43.316 34.994 78.096 78.31 78.096 43.102 0 78.31-34.568 78.31-77.884 0-44.17-34.567-78.736-78.95-78.736-42.462 0-77.67 35.42-77.67 78.523zm59.106-3.627L67 510.72c-3.84-.854-11.308-3.628-18.99-7.042l-1.067 1.92 3.2 1.707c11.097 5.76 14.937 7.04 21.125 7.04 13.016 0 22.83-7.254 27.526-20.27 7.895-1.707 18.137-2.347 30.513-2.347 10.456 0 19.417.427 31.153 1.92l-2.987 3.628c-5.334-.64-15.363-1.28-22.405-1.28-8.748 0-13.87 0-16.857.213l-1.28 3.2c7.042-.427 9.603-.427 15.15-.427 9.603 0 17.07.427 23.26.854l-2.988 4.054c-11.096-.426-16.003-.64-24.325-.64-4.48 0-7.895.214-13.23.428l-1.493 3.2c4.694-.426 11.31-.64 17.924-.64s14.296.214 18.777.428l-2.987 3.84c-3.2-.212-9.175-.212-13.87-.212-7.468 0-17.07.427-21.765 1.067l-1.494 2.775c8.96-.853 14.51-1.28 24.324-1.28 3.84 0 6.188 0 10.67.427l-3.415 4.054c-5.976-.427-7.896-.427-10.243-.427-16.43 0-27.312 2.346-38.195 8.534 10.03 10.03 26.46 16.857 41.395 16.857 1.28 0 1.92 0 5.12-.212l-7.04 7.255c-39.475-10.456-46.516-13.23-82.79-34.78-14.297-8.11-26.033-13.657-35.422-16.43l1.28-4.482c2.134.428 7.04 1.708 11.522 3.415l2.134-4.908 38.836 16.43z"/><path class="path2" d="M936.516 547.634c0-12.59 8.108-21.55 24.112-26.032 2.56-.64 10.67-2.56 24.538-4.908 5.76-1.28 8.108-2.987 8.108-7.255 0-4.695-4.908-7.683-12.162-7.683-8.748 0-14.296 4.268-14.296 11.522H941.85c0-18.992 14.937-30.3 39.903-30.3 26.032 0 38.62 10.88 38.62 32.86v42.888c0 7.255 0 7.255 2.562 11.736H997.33l-1.494-7.04c-10.03 8.107-16.217 10.455-27.1 10.455-18.776 0-32.22-11.097-32.22-26.247zm50.143-15.15c-2.988.427-6.402 1.28-10.03 2.134-8.962 2.347-13.23 5.975-13.23 11.31 0 5.547 4.055 8.534 11.097 8.534 13.443 0 19.63-5.975 19.63-18.35v-5.762c-3.413 1.067-4.693 1.067-7.467 2.134zm-137.416 10.03h26.886v1.066c0 7.04 5.76 11.31 14.937 11.31 7.895 0 12.803-2.988 12.803-7.682 0-4.908-4.48-7.895-15.15-9.602l-8.75-1.494c-19.843-3.414-28.378-10.67-28.378-23.898 0-18.35 15.15-29.233 40.115-29.233 17.497 0 28.38 4.695 33.927 14.938 2.347 4.054 2.774 5.548 3.414 14.723h-25.605c-.64-7.894-4.054-10.88-12.376-10.88-6.828 0-11.096 2.56-11.096 7.04 0 4.054 4.055 6.4 13.23 7.895l9.39 1.707c19.843 3.414 29.02 11.95 29.02 26.46 0 17.71-14.937 29.018-38.836 29.018-28.166 0-43.53-11.096-43.53-31.367zm-180.09 5.12c0-12.59 8.32-21.55 24.324-26.032 2.56-.64 10.67-2.347 24.325-4.908 5.975-1.28 8.322-2.987 8.322-7.255 0-4.695-4.908-7.683-12.376-7.683-8.75 0-14.084 4.054-14.297 11.522h-24.965c0-18.992 14.936-30.3 39.688-30.3 26.032 0 39.048 10.88 39.048 32.86v42.888c0 7.255 0 7.255 2.134 11.736h-25.392l-1.494-7.04c-8.75 7.68-16.217 10.455-27.1 10.455-18.563 0-32.22-11.097-32.22-26.247zm50.356-15.15c-3.414.64-6.4 1.494-10.03 2.134-8.96 2.347-13.228 5.975-13.228 11.31 0 5.547 4.268 8.534 11.096 8.534 13.016 0 19.417-5.975 19.417-18.35v-5.762c-3.627 1.067-4.694 1.067-7.255 2.134zM379.173 559.37c-3.627-6.188-4.268-9.39-4.268-23.258v-49.504h27.526v48.437c0 12.376 3.415 17.284 12.164 17.284 8.962 0 13.656-5.762 13.656-17.285v-48.437h27.312v83.857h-24.965l-.853-8.322c-6.828 7.255-14.51 10.456-24.112 10.456-11.736 0-21.55-4.695-26.46-13.23zm436.57 11.096v-47.583c0-12.376-3.626-17.497-12.162-17.497-8.96 0-13.442 5.76-13.442 17.497v47.583h-27.312V486.61h24.965l.854 9.388c6.4-8.322 14.083-11.95 24.325-11.95 11.735 0 21.123 5.122 26.03 13.87 3.628 6.402 4.055 10.03 4.055 23.9v48.65h-27.312zm-180.09 0v-47.583c0-12.162-3.84-17.497-12.163-17.497-8.962 0-13.443 5.76-13.443 17.497v47.583H582.52V453.748h27.527v42.25c4.908-8.323 12.162-11.95 22.618-11.95 11.522 0 20.91 4.908 26.032 13.87 3.628 6.4 4.054 9.815 4.054 23.898v48.65h-27.098zm-79.59 0c-16.217 0-23.685-7.682-23.685-24.538V504.96h-11.522v-18.35h11.522v-26.46h27.312v26.46h15.576v18.35H559.69v33.287c.213 12.376 1.067 13.016 11.522 13.016h5.334v19.204h-20.484zm-83.004 0V504.96h-11.95v-18.352h11.95v-2.56c0-22.192 8.32-30.3 29.658-30.3h14.936v18.563h-4.48c-10.243 0-12.804 2.348-12.804 11.737v2.56h16.217v18.352H500.37v65.506h-27.312zm-181.8 0V453.748h29.02v93.673h49.29v23.046h-78.31z"/></symbol><symbol viewBox="0 0 1024 1024"><title>mail</title><path class="path1" d="M170.667 128h682.667q53 0 90.5 37.5t37.5 90.5v512q0 53-37.5 90.5t-90.5 37.5H170.667q-53 0-90.5-37.5t-37.5-90.5V256q0-53 37.5-90.5t90.5-37.5zM896 768V302L538.667 588q-11.333 9.333-26.667 9.333T485.333 588L128 302v466q0 17.667 12.5 30.167t30.167 12.5h682.667q17.667 0 30.167-12.5T896 768zm-42.667-554.667H170.666q-6.333 0-14 2.333L512 500 867.33 215.665q-7.667-2.333-14-2.333z"/></symbol><symbol viewBox="0 0 1024 1024"><title>overcast</title><path class="path1" d="M800 320c-10.624 0-21.124.75-31.584 2.25C708.668 240.834 614.376 192 512 192s-196.624 48.834-256.416 130.25c-10.46-1.5-20.96-2.25-31.584-2.25C100.5 320 0 420.5 0 544s100.5 224 224 224c27.376 0 54.168-5 79.418-14.666C361.332 803.834 435 832 512 832c77.084 0 150.666-28.166 208.582-78.666C745.832 763 772.624 768 800 768c123.5 0 224-100.5 224-224S923.5 320 800 320zm0 384c-34.25 0-65.832-11-91.876-29.334C661.168 731.248 591.248 768 512 768c-79.25 0-149.168-36.752-196.124-93.334C289.876 693 258.25 704 224 704c-88.376 0-160-71.624-160-160s71.624-160 160-160c21.624 0 42.124 4.416 60.876 12.166C327.334 313.334 412.582 256 512 256s184.668 57.334 227.082 140.166C757.876 388.416 778.418 384 800 384c88.376 0 160 71.624 160 160s-71.624 160-160 160z"/></symbol><symbol viewBox="0 0 1024 1024"><title>phone</title><path class="path1" d="M768 0H256c-53.056 0-96 42.976-96 96v832c0 53.056 42.976 96 96 96h512c52.992 0 96-43.008 96-96V96c0-53.056-43.008-96-96-96zm32 928c0 17.632-14.368 32-32 32H256c-17.664 0-32-14.304-32-32v-64.128h576V928zm0-96.128H224V192h576v639.872zM800 160H224V96c0-17.664 14.336-32 32-32h512c17.632 0 32 14.336 32 32v64zm-224-48c0 8.832-7.2 16-16 16h-96c-8.864 0-16-7.168-16-16 0-8.864 7.136-16 16-16h96c8.8 0 16 7.136 16 16zm-32 799.872c0 8.8-7.2 16-16 16h-32c-8.832 0-16-7.2-16-16 0-8.864 7.168-16 16-16h32c8.8 0 16 7.136 16 16z"/></symbol><symbol viewBox="0 0 1024 1024"><title>skype</title><path class="path1" d="M670.286 607.43q0-28.572-11.143-52.287T631.43 516t-41.715-28-47.143-19.43-50-13.142l-59.43-13.714q-17.142-4-25.142-6t-20-6.57T370.857 420t-9.43-12-4.285-17.143q0-44 82.286-44 24.57 0 44 6.857T514.285 370 536 389.143t22.856 16.57 27.43 6.858q26.856 0 43.142-18.285t16.286-44q0-31.43-32-56.857t-81.143-38.57-104-13.144q-38.856 0-75.428 8.857t-68.286 26.858T234 327.142t-19.144 73.43q0 34.856 10.857 60.856t32 43.143 45.714 27.715 58.857 18.57l83.43 20.572q51.428 12.57 64 20.57 18.285 11.43 18.285 34.287 0 22.286-22.858 36.857t-60 14.572q-29.143 0-52.286-9.143t-37.143-22-26-25.715-26.286-22-30.857-9.143q-28.57 0-43.143 17.143t-14.57 42.857q0 52.57 69.713 90t166.286 37.43q41.714 0 80-10.572t70-30.57 50.57-53.43 18.858-75.143zm207.428 124q0 90.856-64.286 155.142t-155.143 64.286q-74.286 0-133.714-45.714-44 9.143-85.713 9.143-81.714 0-156.286-31.714T154 796.86 68.286 668.287 36.572 512.002q0-41.714 9.143-85.714Q0 366.858 0 292.574q0-90.857 64.287-155.143T219.43 73.146q74.286 0 133.714 45.714 44-9.144 85.714-9.144 81.714 0 156.286 31.714t128.57 85.714 85.715 128.57 31.713 156.287q0 41.715-9.143 85.715 45.714 59.43 45.714 133.714z"/></symbol><symbol viewBox="0 0 1024 1024"><title>village-roadshow-logo</title><path class="path1" d="M479.03 434.116c-.215.65-.432 1.227-.793 1.624-.325.433-.794.722-1.515.938s-1.732.36-2.923.433c-1.228.073-2.815.073-4.836.073h-4.04c-1.156 0-2.13-.072-2.888-.144-.83-.11-1.443-.218-1.985-.398-.468-.144-.865-.36-1.19-.577s-.65-.505-.83-.83c-.18-.397-.29-.794-.47-1.3l-22.875-68.195c-.47-1.407-.794-2.562-.902-3.392-.072-.83.108-1.407.613-1.876.505-.397 1.3-.65 2.526-.758s2.85-.144 5.015-.144c1.804 0 3.21.036 4.258.108 1.046.108 1.84.216 2.38.397.542.216.94.505 1.156.938.217.397.434.83.614 1.443l18.763 59.356h.072l18.365-59.03c.144-.687.325-1.228.577-1.66.216-.398.65-.76 1.227-.975.576-.253 1.406-.36 2.416-.47 1.12-.07 2.562-.107 4.402-.107 1.876 0 3.247.072 4.294.18 1.01.072 1.696.397 2.057.83.396.47.504 1.082.396 1.985-.144.794-.47 1.912-.974 3.283l-22.912 68.268z"/><path class="path2" d="M523.52 434.657c0 .397-.107.794-.36 1.082-.253.324-.65.576-1.263.757-.613.253-1.443.397-2.38.505-1.01.108-2.274.18-3.826.18-1.514 0-2.74-.072-3.752-.18-1.046-.108-1.84-.253-2.417-.505-.576-.18-1.045-.433-1.298-.758-.253-.29-.36-.687-.36-1.083v-72.634c0-.397.107-.722.36-1.046.253-.36.722-.613 1.3-.794.612-.18 1.442-.36 2.416-.47 1.01-.107 2.237-.143 3.753-.143 1.553 0 2.815.036 3.826.144.938.108 1.768.29 2.38.47s1.01.432 1.264.793c.253.325.36.65.36 1.046v72.634z"/><path class="path3" d="M577.716 430.29c0 1.228-.072 2.238-.144 2.996-.108.866-.253 1.48-.433 2.057-.254.54-.47.902-.76 1.12-.324.288-.648.396-1.045.396h-35.253c-1.3 0-2.38-.434-3.32-1.156-.902-.794-1.335-2.02-1.335-3.79v-69.89c0-.362.144-.687.397-1.01s.686-.614 1.263-.83c.613-.18 1.407-.362 2.454-.434.975-.108 2.238-.144 3.717-.144 1.588 0 2.85.036 3.825.144.974.072 1.804.253 2.38.433.614.217 1.047.505 1.3.83.216.325.36.65.36 1.01v61.954h24.212c.397 0 .722.072 1.046.29.29.215.505.576.758 1.08.18.506.325 1.156.433 1.95.073.83.145 1.84.145 2.994z"/><path class="path4" d="M624.3 430.29c0 1.228-.037 2.238-.145 2.996-.108.866-.253 1.48-.433 2.057-.18.54-.433.902-.722 1.12-.29.288-.686.396-1.046.396H586.7c-1.298 0-2.416-.434-3.32-1.156-.865-.794-1.334-2.02-1.334-3.79v-69.89c0-.362.144-.687.397-1.01s.686-.614 1.3-.83c.576-.18 1.37-.362 2.38-.434 1.01-.108 2.273-.144 3.79-.144 1.55 0 2.813.036 3.788.144.975.072 1.805.253 2.382.433.577.217 1.01.505 1.3.83.252.325.36.65.36 1.01v61.954h24.21c.362 0 .76.072 1.047.29s.54.576.72 1.08.326 1.156.434 1.95c.108.83.144 1.84.144 2.994z"/><path class="path5" d="M699.892 434.405c-.108-.83-.433-1.948-.866-3.356l-23.814-68.233c-.217-.758-.505-1.335-.866-1.768-.325-.47-.866-.76-1.66-.975-.758-.216-1.876-.36-3.247-.397-1.372-.072-3.248-.108-5.594-.108-2.02 0-3.608.036-4.87.108-1.228.036-2.166.18-2.888.397-.686.216-1.19.505-1.515.974-.325.396-.577.9-.794 1.623l-23.743 68.232c-.47 1.407-.758 2.49-.866 3.356-.107.795 0 1.48.398 1.913s1.12.758 2.13.866c1.045.107 2.453.18 4.293.18 1.697 0 3.068-.037 4.114-.11 1.082-.07 1.876-.215 2.49-.468.54-.216.938-.54 1.19-.902s.506-.866.687-1.37l4.836-15.083h28.902l5.16 15.48c.108.54.397.937.613 1.226.218.36.614.577 1.264.794.577.144 1.37.253 2.562.325 1.12.072 2.706.108 4.69.108s3.5-.036 4.62-.18c1.082-.072 1.876-.36 2.31-.758.396-.397.577-1.01.468-1.876zm-47.16-27.098l10.86-32.69h.073l10.897 32.69h-21.83z"/><path class="path6" d="M764.12 371.874c0 1.155-.037 2.13-.145 2.96s-.216 1.514-.397 2.02c-.216.47-.433.866-.686 1.046s-.54.253-.902.253c-.54 0-1.335-.325-2.49-1.082-1.19-.685-2.706-1.478-4.582-2.272-1.912-.866-4.186-1.624-6.856-2.345-2.598-.686-5.63-1.046-9.13-1.046-3.752 0-7.107.65-10.102 1.948-3.03 1.3-5.593 3.103-7.722 5.448-2.165 2.345-3.825 5.196-4.98 8.48-1.118 3.32-1.73 7-1.73 10.968 0 4.403.612 8.3 1.767 11.656 1.155 3.32 2.814 6.134 4.943 8.407 2.093 2.237 4.582 3.933 7.577 5.124 2.96 1.082 6.17 1.696 9.742 1.696 1.732 0 3.464-.18 5.196-.613 1.732-.36 3.284-.974 4.763-1.768v-17.79H733.81c-.76 0-1.264-.468-1.66-1.37s-.578-2.418-.578-4.51c0-1.155.036-2.093.108-2.85.108-.76.253-1.336.47-1.805.18-.47.396-.794.685-1.01s.613-.325.974-.325h25.942c.65 0 1.227.108 1.732.325s.938.54 1.263 1.01c.397.397.722.938.902 1.552s.288 1.334.288 2.128v30.598c0 1.19-.18 2.273-.65 3.103-.396.9-1.226 1.623-2.525 2.128-1.263.505-2.887 1.01-4.763 1.588-1.95.54-3.933 1.046-5.918 1.443-2.093.396-4.113.685-6.206.865-2.093.216-4.15.325-6.242.325-6.17 0-11.69-.866-16.49-2.634-4.87-1.768-8.985-4.33-12.376-7.686s-5.918-7.397-7.686-12.232c-1.84-4.835-2.706-10.283-2.706-16.38 0-6.28.938-11.944 2.887-16.96 1.876-5.052 4.582-9.273 8.046-12.81 3.5-3.5 7.685-6.17 12.592-8.045 5.015-1.84 10.464-2.814 16.526-2.814 3.32 0 6.387.252 9.13.72 2.705.434 5.087.975 7.143 1.625 2.022.65 3.754 1.407 5.053 2.13 1.37.757 2.31 1.406 2.85 1.984s.94 1.298 1.156 2.344c.252 1.01.36 2.49.36 4.474zm54.194 58.85c0 1.12-.072 2.13-.18 2.85-.108.795-.253 1.408-.47 1.877-.18.47-.396.83-.72 1.047-.29.253-.614.36-.975.36h-38.645c-1.3 0-2.418-.432-3.247-1.19-.938-.794-1.37-2.057-1.37-3.79v-67.076c0-1.73.432-2.994 1.37-3.752.83-.794 1.95-1.155 3.247-1.155h38.392c.36 0 .686.108.974.29.29.252.506.54.723 1.045.18.505.325 1.155.433 1.876.108.83.144 1.804.144 2.995 0 1.08-.036 2.056-.144 2.813s-.253 1.407-.433 1.84c-.216.47-.433.866-.722 1.082-.288.18-.612.325-.973.325h-27.423v18.727h23.2c.362 0 .723.144 1.01.397.29.18.542.54.76.974.143.47.36 1.082.432 1.84.108.758.144 1.732.144 2.814 0 1.155-.036 2.13-.144 2.85-.072.76-.29 1.372-.433 1.805-.216.47-.47.83-.758 1.01s-.65.29-1.01.29h-23.2v21.72h27.674c.36 0 .685.11.973.326.325.216.54.54.722 1.01.216.505.36 1.082.47 1.912.107.758.18 1.696.18 2.887zm-340.654 65.49c0-2.526-.613-4.655-1.732-6.423-1.155-1.767-3.03-2.994-5.665-3.68-.794-.215-1.696-.36-2.706-.468s-2.418-.18-4.222-.18h-6.964v21.794h7.94c2.2 0 4.184-.253 5.844-.794 1.66-.505 3.03-1.263 4.15-2.273 1.12-.94 1.948-2.13 2.49-3.465s.866-2.85.866-4.51zm20.134 52.21c0 .398-.072.76-.253 1.12-.143.253-.54.505-1.154.686-.54.217-1.443.325-2.598.433-1.12.072-2.742.144-4.69.144-1.66 0-2.996-.072-3.97-.144-1.01-.108-1.804-.253-2.38-.433-.542-.253-.975-.505-1.192-.83-.252-.36-.433-.758-.577-1.227l-6.93-17.21c-.83-1.913-1.623-3.645-2.417-5.125-.794-1.552-1.66-2.778-2.67-3.79-.974-1.01-2.057-1.803-3.356-2.308-1.263-.47-2.706-.758-4.366-.758h-4.87v29.3c0 .36-.18.757-.433 1.08s-.65.578-1.227.76c-.65.215-1.407.36-2.38.504-1.01.072-2.274.18-3.862.18-1.443 0-2.706-.108-3.753-.18-1.01-.144-1.804-.29-2.382-.505-.613-.18-1.01-.432-1.263-.757s-.36-.722-.36-1.082v-69.855c0-1.732.468-2.995 1.298-3.79.938-.72 2.057-1.118 3.32-1.118h19.954c2.02 0 3.644.036 4.98.108 1.298.072 2.453.18 3.535.29 3.103.432 5.917 1.19 8.37 2.236 2.455 1.083 4.62 2.49 6.352 4.223 1.695 1.732 2.994 3.753 3.896 6.062.938 2.418 1.37 5.16 1.37 8.19 0 2.527-.324 4.908-.937 7.037-.723 2.093-1.66 4.005-2.924 5.665s-2.815 3.103-4.655 4.366c-1.947 1.227-4.004 2.165-6.422 2.96 1.19.504 2.237 1.226 3.284 1.984.974.83 1.948 1.768 2.814 2.923.902 1.12 1.768 2.418 2.526 3.825.83 1.443 1.588 3.14 2.345 4.943l6.495 15.155c.54 1.515.974 2.598 1.155 3.283.252.686.325 1.263.325 1.66z"/><path class="path7" d="M571.294 493.76c-1.515-4.907-3.79-8.984-6.747-12.16-2.995-3.21-6.747-5.593-11.222-7.144-4.402-1.552-9.598-2.31-15.407-2.31-6.098 0-11.474.903-16.057 2.78-4.618 1.875-8.515 4.582-11.654 8.045-3.103 3.465-5.484 7.723-7.072 12.666-1.588 5.015-2.345 10.572-2.345 16.814 0 6.784.72 12.665 2.164 17.608 1.516 4.943 3.753 9.02 6.748 12.232s6.675 5.593 11.113 7.18c4.474 1.552 9.67 2.345 15.66 2.345 6.062 0 11.438-.902 16.057-2.778 4.582-1.84 8.443-4.51 11.62-8.046 3.138-3.463 5.447-7.793 7.07-12.808 1.59-5.015 2.346-10.716 2.346-17.14 0-6.638-.758-12.41-2.273-17.283zm-15.12 28.578c-.612 3.283-1.73 6.134-3.355 8.588-1.59 2.454-3.645 4.366-6.207 5.81-2.598 1.442-5.81 2.164-9.634 2.164-3.862 0-7.037-.65-9.6-1.876-2.49-1.227-4.545-3.067-6.06-5.412-1.517-2.417-2.563-5.268-3.212-8.624-.613-3.32-.938-7.108-.938-11.33 0-3.608.325-7.036.974-10.247.686-3.246 1.768-6.06 3.392-8.478 1.588-2.38 3.644-4.33 6.242-5.773 2.526-1.444 5.737-2.202 9.598-2.202 3.79 0 7 .686 9.526 1.984 2.526 1.227 4.546 3.103 6.098 5.448 1.515 2.345 2.598 5.196 3.21 8.516.687 3.284.975 6.964.975 11.005 0 3.68-.29 7.145-1.01 10.43z"/><path class="path8" d="M645.768 548.028c-.108-.866-.397-2.02-.866-3.428l-23.778-68.16c-.252-.794-.54-1.37-.902-1.84-.29-.397-.866-.722-1.66-.938-.722-.216-1.84-.36-3.247-.397-1.37-.108-3.21-.144-5.52-.144-2.058 0-3.68.037-4.908.145-1.263.036-2.2.18-2.887.397s-1.19.54-1.552.938c-.29.433-.54.974-.794 1.624l-23.706 68.232c-.505 1.407-.794 2.526-.902 3.392-.108.794.036 1.48.397 1.912.397.433 1.12.722 2.13.866 1.045.072 2.49.18 4.293.18 1.696 0 3.03-.072 4.15-.144 1.045-.072 1.84-.216 2.453-.433.54-.217.937-.506 1.226-.867.253-.433.47-.866.65-1.407l4.834-15.082h28.902l5.16 15.48c.217.504.397.937.613 1.262.253.325.65.54 1.263.722.577.18 1.48.29 2.526.36 1.155.037 2.742.11 4.763.11 1.948 0 3.464-.073 4.583-.18 1.082-.073 1.912-.362 2.345-.76.397-.396.577-1.045.433-1.84zm-47.124-27.134l10.86-32.727h.073l10.897 32.727h-21.83z"/><path class="path9" d="M712.124 494.77c-1.696-4.69-4.186-8.55-7.47-11.726-3.246-3.175-7.288-5.593-12.05-7.18s-10.61-2.345-17.5-2.345h-19.666c-1.335 0-2.454.36-3.356 1.08-.866.795-1.3 2.094-1.3 3.826v67.077c0 1.732.434 2.96 1.3 3.716.902.83 2.02 1.154 3.356 1.154h18.366c6.784 0 12.665-.65 17.572-2.165 4.943-1.516 9.165-3.826 12.593-7 3.463-3.14 6.06-7.29 7.937-12.27 1.84-5.014 2.778-11.076 2.778-18.112 0-6.098-.866-11.438-2.562-16.057zm-15.083 28.253c-.973 3.284-2.416 6.134-4.4 8.37-1.95 2.238-4.403 3.898-7.326 5.016s-6.53 1.66-10.825 1.66h-8.156v-52.357h7.938c4.763 0 8.66.686 11.62 1.948 2.958 1.3 5.34 3.104 7.215 5.45 1.912 2.272 3.247 4.942 4.113 8.118.866 3.103 1.3 6.495 1.3 10.175 0 4.402-.47 8.3-1.48 11.62z"/><path class="path10" d="M768.268 527.353c0 4.04-.794 7.613-2.273 10.644-1.516 3.03-3.536 5.593-6.134 7.65-2.56 2.056-5.556 3.57-9.056 4.545-3.428 1.12-7.072 1.588-11.04 1.588-2.635 0-5.125-.217-7.398-.613-2.273-.505-4.294-.974-6.026-1.588-1.768-.687-3.21-1.3-4.402-1.95-1.12-.685-1.984-1.298-2.49-1.803-.54-.505-.902-1.3-1.12-2.237-.18-.902-.288-2.38-.288-4.15 0-1.262 0-2.272.108-3.102.072-.866.18-1.515.36-2.057.18-.504.398-.83.76-1.045.252-.253.612-.325.973-.325.578 0 1.372.325 2.382.938 1.01.686 2.273 1.37 3.897 2.165 1.55.794 3.5 1.515 5.664 2.165 2.165.722 4.763.974 7.65.974 1.91 0 3.607-.18 5.087-.686 1.516-.397 2.815-1.01 3.862-1.948 1.082-.794 1.84-1.84 2.417-3.067.54-1.19.793-2.597.793-4.112 0-1.696-.433-3.21-1.407-4.474-.974-1.19-2.165-2.31-3.68-3.356-1.55-.938-3.283-1.876-5.232-2.706-1.948-.794-3.897-1.768-6.026-2.67-2.02-.974-4.04-2.093-5.99-3.21-1.948-1.264-3.68-2.707-5.196-4.367s-2.778-3.68-3.753-5.99c-.903-2.31-1.372-5.052-1.372-8.3 0-3.643.686-6.89 2.02-9.705 1.372-2.778 3.212-5.088 5.558-6.928 2.31-1.84 5.016-3.21 8.19-4.113s6.496-1.372 10.032-1.372c1.84 0 3.644.144 5.448.397 1.804.216 3.5.613 5.088 1.12 1.624.468 2.995 1.01 4.222 1.66 1.263.54 2.093 1.045 2.454 1.442.397.397.65.686.794 1.046.144.217.29.613.397 1.01.073.505.18 1.12.217 1.732.036.758.036 1.552.036 2.598 0 1.19-.036 2.13-.072 2.923-.07.794-.18 1.443-.324 1.912-.144.577-.36.974-.613 1.19-.217.254-.577.398-1.046.398-.433 0-1.082-.325-2.057-.866-.938-.577-2.13-1.19-3.5-1.84s-2.995-1.19-4.8-1.768c-1.84-.54-3.86-.758-6.025-.758-1.696 0-3.175.144-4.438.613-1.3.397-2.345.974-3.175 1.732-.902.685-1.516 1.587-1.948 2.597-.397 1.046-.613 2.13-.613 3.32 0 1.66.47 3.175 1.408 4.366.938 1.3 2.165 2.418 3.717 3.356 1.588.973 3.392 1.875 5.34 2.705 1.984.902 4.04 1.768 6.098 2.742 2.02 1.01 4.077 1.985 6.062 3.247 1.948 1.19 3.716 2.634 5.232 4.294 1.588 1.696 2.814 3.68 3.753 5.99.974 2.273 1.48 4.943 1.48 8.046z"/><path class="path11" d="M835.345 548.28c0 .362-.108.76-.36 1.083-.29.325-.687.577-1.264.758-.612.18-1.406.362-2.416.47-.974.108-2.2.144-3.717.144-1.552 0-2.85-.036-3.86-.144s-1.805-.29-2.382-.47c-.577-.18-.974-.432-1.227-.757s-.397-.722-.397-1.082V517.18h-28.757v31.103c0 .362-.108.76-.397 1.083-.216.325-.65.577-1.227.758-.614.18-1.372.362-2.382.47s-2.237.144-3.79.144c-1.514 0-2.74-.036-3.788-.144-1.01-.108-1.804-.29-2.417-.47-.577-.18-1.01-.432-1.263-.757-.29-.325-.397-.722-.397-1.082v-72.633c0-.397.108-.758.397-1.082.253-.325.686-.577 1.263-.758.613-.217 1.407-.36 2.417-.47 1.046-.107 2.273-.216 3.79-.216 1.55 0 2.777.11 3.788.218s1.768.253 2.38.47c.578.18 1.01.432 1.228.757.29.325.397.686.397 1.082V503.9h28.758v-28.253c0-.397.145-.758.398-1.082s.65-.577 1.227-.758c.577-.217 1.37-.36 2.38-.47s2.31-.216 3.862-.216c1.516 0 2.742.11 3.717.218 1.01.108 1.804.253 2.417.47.578.18.975.432 1.264.757.252.325.36.686.36 1.082v72.634z"/><path class="path12" d="M914.186 493.76c-1.515-4.907-3.825-8.984-6.784-12.16-2.995-3.21-6.71-5.593-11.186-7.144s-9.598-2.31-15.407-2.31c-6.135 0-11.51.903-16.094 2.78-4.618 1.875-8.48 4.582-11.655 8.045-3.066 3.465-5.447 7.723-7.035 12.666-1.588 5.015-2.418 10.572-2.418 16.814 0 6.784.758 12.665 2.273 17.608 1.48 4.943 3.68 9.02 6.675 12.232 2.96 3.21 6.71 5.593 11.185 7.18 4.438 1.552 9.634 2.345 15.624 2.345 6.062 0 11.402-.902 16.02-2.778 4.584-1.84 8.516-4.51 11.62-8.046 3.14-3.463 5.485-7.793 7.072-12.808s2.345-10.716 2.345-17.14c0-6.638-.72-12.41-2.236-17.283zm-15.12 28.578c-.648 3.283-1.73 6.134-3.355 8.588-1.55 2.454-3.68 4.366-6.205 5.81-2.598 1.442-5.81 2.164-9.67 2.164-3.825 0-7.036-.65-9.562-1.876-2.562-1.227-4.546-3.067-6.062-5.412-1.514-2.417-2.597-5.268-3.21-8.624-.65-3.32-.974-7.108-.974-11.33 0-3.608.325-7.036 1.01-10.247.65-3.246 1.768-6.06 3.356-8.478 1.588-2.38 3.644-4.33 6.206-5.773 2.598-1.444 5.81-2.202 9.634-2.202s7 .686 9.562 1.984c2.49 1.227 4.546 3.103 6.098 5.448 1.515 2.345 2.562 5.196 3.21 8.516.65 3.284.975 6.964.975 11.005 0 3.68-.325 7.145-1.01 10.43z"/><path class="path13" d="M1005.727 546.44c-.253.94-.613 1.733-1.01 2.238-.397.65-1.01 1.046-1.876 1.37-.83.254-1.875.47-3.21.578-1.3.072-2.96.108-4.943.108-2.31 0-4.077-.036-5.484-.108-1.335-.108-2.454-.325-3.247-.577-.758-.326-1.335-.723-1.696-1.372-.325-.505-.65-1.3-.83-2.237l-12.34-48.746h-.108l-11.655 48.747c-.18.903-.47 1.66-.794 2.202-.36.577-.938 1.046-1.696 1.335-.794.325-1.804.54-3.175.65-1.3.07-3.067.107-5.268.107-2.273 0-4.15-.036-5.484-.108-1.37-.108-2.454-.325-3.247-.577-.794-.326-1.335-.723-1.732-1.372-.36-.505-.648-1.3-.865-2.237l-17.5-67.112c-.36-1.407-.54-2.562-.577-3.392-.036-.794.18-1.443.65-1.876.54-.397 1.334-.65 2.453-.758 1.156-.144 2.743-.18 4.728-.18 1.876 0 3.356.036 4.438.144 1.12.036 1.912.18 2.49.36.54.254.902.542 1.12.94.143.432.36 1.01.468 1.767l13.46 58.923h.07l14.073-58.49c.144-.794.36-1.37.577-1.84.29-.505.722-.866 1.335-1.12.576-.252 1.442-.396 2.525-.504 1.046-.144 2.49-.18 4.258-.18 1.948 0 3.464.036 4.546.144 1.118.072 2.02.253 2.633.505.65.254 1.082.614 1.335 1.12.29.433.505 1.046.65 1.876l14.504 58.49h.144l13.46-58.742c.143-.65.288-1.19.504-1.624.18-.47.577-.83 1.12-1.082s1.334-.397 2.38-.505c1.046-.144 2.49-.18 4.33-.18 1.768 0 3.067.036 4.077.18.974.108 1.696.36 2.13.758.432.434.612 1.12.54 1.913-.036.902-.253 2.057-.577 3.5l-17.68 66.97z"/><path class="path14" d="M492.093 601.936c-.83-2.526-2.13-4.727-3.79-6.567-1.66-1.877-3.715-3.43-6.025-4.692-2.38-1.227-4.69-2.093-7-2.526s-4.294-.722-5.918-.902c-1.66-.144-3.392-.216-5.196-.216h-18.15c-1.587 0-2.85.505-3.824 1.443-.974.902-1.48 2.345-1.48 4.186v69.206c0 .396.11.757.398 1.045.216.325.65.613 1.227.794.613.18 1.37.36 2.418.432 1.01.144 2.273.216 3.79.216 1.55 0 2.777-.072 3.788-.216.975-.072 1.77-.253 2.382-.433s1.01-.47 1.263-.795c.253-.29.397-.65.397-1.046v-24.573h6.423c5.052 0 9.454-.577 13.242-1.768 3.717-1.228 6.892-2.96 9.454-5.197 2.6-2.31 4.547-5.124 5.92-8.443 1.334-3.32 2.02-7.108 2.02-11.438 0-3.14-.433-5.954-1.335-8.515zm-15.877 15.118c-.54 1.66-1.37 3.14-2.417 4.33-1.083 1.227-2.418 2.165-4.15 2.85-1.696.65-3.753.975-6.278.975h-7v-26.09h6.675c1.588 0 3.175.11 4.69.362 1.516.216 2.996.722 4.33 1.588 1.444.794 2.6 2.093 3.537 3.825.974 1.732 1.443 3.97 1.443 6.64 0 2.02-.29 3.86-.83 5.52z"/><path class="path15" d="M516.34 661.87c0 .396-.108.757-.36 1.045-.326.325-.723.613-1.3.794-.613.18-1.407.36-2.417.468-.938.108-2.237.18-3.79.18-1.478 0-2.74-.072-3.752-.18s-1.84-.29-2.416-.47-1.046-.468-1.263-.793c-.288-.29-.396-.65-.396-1.046v-72.635c0-.397.108-.794.397-1.082.218-.325.687-.577 1.3-.758.577-.253 1.407-.397 2.38-.505 1.01-.108 2.274-.18 3.754-.18 1.552 0 2.85.072 3.79.18 1.01.108 1.803.253 2.416.505.577.18.974.433 1.3.758.252.29.36.686.36 1.082v72.634z"/><path class="path16" d="M581.433 652.343c0 1.01-.036 1.84-.072 2.526-.07.72-.18 1.298-.324 1.803-.108.47-.29.938-.47 1.263-.18.36-.504.722-.937 1.227-.434.433-1.264 1.046-2.527 1.768-1.227.687-2.778 1.372-4.583 2.022-1.768.686-3.86 1.227-6.17 1.624-2.31.505-4.835.686-7.54.686-5.27 0-10.032-.83-14.29-2.418-4.186-1.66-7.83-4.04-10.79-7.325-2.958-3.212-5.267-7.254-6.82-12.125-1.587-4.8-2.416-10.392-2.416-16.85 0-6.532.902-12.34 2.67-17.393 1.696-5.088 4.186-9.345 7.29-12.81 3.138-3.427 6.89-6.06 11.257-7.865 4.403-1.768 9.202-2.634 14.47-2.634 2.13 0 4.258.18 6.206.54 1.948.326 3.79.76 5.484 1.408 1.696.542 3.21 1.228 4.546 1.95 1.335.793 2.31 1.406 2.814 1.947.577.577.902 1.01 1.12 1.3.216.396.324.83.468 1.406.108.577.217 1.19.253 1.948.11.76.11 1.697.11 2.78 0 1.226-.037 2.236-.145 3.066-.072.83-.217 1.48-.397 2.02-.18.506-.433.867-.686 1.12-.29.253-.613.397-.974.397-.577 0-1.37-.397-2.273-1.082s-2.093-1.478-3.536-2.344c-1.444-.83-3.176-1.624-5.16-2.31s-4.403-1.01-7.145-1.01c-3.067 0-5.773.614-8.155 1.84-2.417 1.264-4.474 3.032-6.134 5.377-1.696 2.31-2.995 5.088-3.897 8.407-.83 3.32-1.264 7-1.264 11.113 0 4.51.47 8.443 1.37 11.727.975 3.356 2.274 6.026 4.006 8.19 1.732 2.13 3.79 3.754 6.242 4.764 2.454 1.082 5.16 1.588 8.227 1.588 2.78 0 5.16-.29 7.217-.974 1.985-.65 3.753-1.335 5.196-2.165 1.443-.794 2.598-1.515 3.572-2.13.938-.648 1.624-.973 2.13-.973.432 0 .757.108.973.253s.397.47.577.974c.216.433.29 1.082.397 1.948.072.866.108 1.985.108 3.428z"/><path class="path17" d="M646.273 593.492c0 1.12-.036 2.13-.144 2.96-.11.757-.217 1.442-.434 1.947-.217.468-.433.83-.758 1.118-.29.217-.613.36-.974.36h-19.268v61.99c0 .398-.108.723-.397 1.047-.218.325-.687.613-1.264.794s-1.407.36-2.38.468c-1.01.108-2.31.18-3.79.18-1.516 0-2.778-.072-3.753-.18-1.046-.108-1.876-.29-2.417-.47-.613-.18-1.082-.468-1.3-.793-.252-.325-.396-.65-.396-1.046v-61.99h-19.268c-.397 0-.686-.145-.974-.362-.29-.29-.54-.65-.722-1.12-.217-.504-.36-1.19-.47-1.947-.07-.83-.143-1.84-.143-2.958 0-1.19.072-2.2.144-3.03.108-.83.252-1.48.47-1.986.18-.505.432-.866.72-1.046.29-.29.578-.36.975-.36h54.232c.36 0 .686.07.974.36.325.18.54.54.758 1.046s.325 1.155.433 1.985c.107.83.143 1.84.143 3.032z"/><path class="path18" d="M715.732 635.348c0 4.727-.65 8.948-2.057 12.665-1.37 3.717-3.464 6.856-6.134 9.49-2.705 2.526-5.99 4.51-9.994 5.88-3.933 1.3-8.516 1.986-13.675 1.986-4.834 0-9.164-.614-12.99-1.805-3.896-1.227-7.107-3.03-9.777-5.485-2.67-2.49-4.69-5.557-6.098-9.237-1.407-3.644-2.093-7.902-2.093-12.81v-46.798c0-.397.144-.794.36-1.082.217-.325.65-.577 1.264-.758.613-.253 1.443-.397 2.38-.47 1.01-.143 2.31-.216 3.826-.216s2.778.07 3.753.216c1.01.072 1.84.216 2.38.47.614.18 1.047.432 1.3.757.253.29.36.686.36 1.082v45.392c0 3.067.362 5.7 1.156 7.938.723 2.273 1.805 4.113 3.212 5.593 1.407 1.443 3.103 2.526 5.052 3.283 1.948.723 4.186 1.083 6.567 1.083 2.455 0 4.692-.36 6.604-1.082 1.948-.793 3.608-1.91 4.943-3.355 1.37-1.407 2.38-3.247 3.103-5.34.758-2.093 1.12-4.51 1.12-7.217v-46.294c0-.397.107-.794.324-1.082.253-.325.722-.577 1.3-.758.54-.253 1.37-.397 2.344-.47 1.046-.143 2.31-.216 3.825-.216 1.48 0 2.742.072 3.68.217.974.072 1.804.216 2.38.47.578.18 1.01.432 1.264.757.216.29.325.686.325 1.082v46.113z"/><path class="path19" d="M781.87 660.353c-.18-.722-.576-1.804-1.154-3.32l-6.495-15.155c-.72-1.84-1.515-3.428-2.308-4.908-.794-1.443-1.624-2.742-2.526-3.825-.866-1.155-1.84-2.13-2.886-2.923-.974-.794-2.057-1.48-3.21-2.057 2.38-.722 4.473-1.696 6.385-2.96 1.84-1.19 3.428-2.633 4.69-4.293 1.228-1.66 2.238-3.608 2.85-5.665.65-2.165 1.01-4.51 1.01-7.072 0-3.067-.468-5.773-1.37-8.12-.902-2.38-2.237-4.4-3.933-6.097-1.768-1.732-3.825-3.14-6.35-4.222-2.454-1.082-5.232-1.804-8.335-2.237-1.082-.11-2.273-.254-3.536-.326-1.334-.072-2.994-.144-5.014-.144h-19.918c-1.335 0-2.38.433-3.32 1.19-.902.76-1.335 2.022-1.335 3.79v69.856c0 .397.144.758.397 1.046.216.325.614.614 1.227.794s1.37.36 2.417.433c1.01.143 2.237.215 3.753.215 1.552 0 2.778-.072 3.825-.216.938-.073 1.804-.253 2.345-.434.614-.18 1.047-.47 1.3-.794.215-.29.396-.65.396-1.046V632.53h4.87c1.66 0 3.14.253 4.44.795 1.19.505 2.344 1.263 3.32 2.273.937 1.01 1.84 2.31 2.597 3.79.83 1.514 1.66 3.246 2.49 5.16l6.892 17.174c.144.505.36.902.577 1.227.25.324.612.612 1.226.865.577.18 1.37.325 2.345.397 1.01.108 2.31.144 4.006.144 1.95 0 3.536-.036 4.69-.144 1.156-.072 2.022-.217 2.6-.36.576-.218 1.01-.47 1.154-.795.145-.29.217-.65.217-1.082 0-.397-.072-.938-.325-1.624zm-20.674-46.077c-.54 1.37-1.37 2.526-2.49 3.5-1.082.938-2.49 1.732-4.113 2.237-1.696.54-3.644.83-5.845.83h-7.974v-21.83h7c1.768 0 3.175.072 4.186.18s1.912.29 2.742.505c2.598.686 4.474 1.912 5.593 3.644 1.155 1.768 1.768 3.897 1.768 6.423 0 1.66-.325 3.175-.866 4.51z"/><path class="path20" d="M834.407 657.863c0 1.155-.072 2.093-.144 2.887-.108.758-.216 1.407-.433 1.876-.253.47-.47.83-.758 1.046s-.613.325-1.01.325h-38.608c-1.3 0-2.38-.397-3.284-1.155-.938-.794-1.37-2.02-1.37-3.79v-67.04c0-1.768.432-3.03 1.37-3.79.902-.757 1.985-1.154 3.284-1.154h38.356c.433 0 .722.072 1.01.29.253.216.505.576.686 1.01.216.54.397 1.154.47 1.91.107.795.143 1.805.143 2.96 0 1.12-.037 2.093-.145 2.814-.072.794-.253 1.407-.47 1.912-.18.433-.432.794-.685 1.01-.29.217-.577.325-1.01.325h-27.423v18.798h23.237c.397 0 .722.108.974.325.325.216.577.577.794 1.01.18.433.325 1.046.433 1.84.072.758.144 1.732.144 2.85s-.073 2.058-.145 2.852c-.108.722-.253 1.335-.433 1.804-.216.432-.47.757-.794.937-.253.253-.577.36-.974.36h-23.237v21.687h27.675c.397 0 .722.072 1.01.29.29.252.505.576.758 1.08.217.434.325 1.047.433 1.84.072.795.144 1.697.144 2.888z"/><path class="path21" d="M891.345 640.94c0 4.042-.758 7.614-2.237 10.645-1.516 3.067-3.536 5.593-6.134 7.65-2.562 2.02-5.557 3.57-9.02 4.618s-7.145 1.552-11.078 1.552c-2.634 0-5.124-.253-7.397-.686-2.31-.434-4.26-.94-6.027-1.59-1.732-.576-3.21-1.226-4.366-1.91-1.19-.65-2.02-1.264-2.562-1.77-.505-.504-.866-1.262-1.046-2.272-.217-.974-.398-2.345-.398-4.15 0-1.226.108-2.272.18-3.102s.216-1.515.36-2.057c.217-.506.434-.83.723-1.047.253-.253.65-.36 1.046-.36.542 0 1.336.36 2.346 1.01 1.01.612 2.31 1.334 3.897 2.128 1.588.83 3.464 1.516 5.665 2.202 2.165.65 4.763.974 7.65.974 1.91 0 3.607-.253 5.087-.686 1.515-.433 2.814-1.12 3.86-1.912 1.047-.866 1.84-1.876 2.382-3.067.577-1.262.866-2.633.866-4.148 0-1.732-.47-3.247-1.407-4.474-.974-1.3-2.237-2.345-3.717-3.32-1.59-1.01-3.284-1.876-5.233-2.742s-3.97-1.768-6.026-2.742c-2.02-.902-4.076-2.02-5.99-3.21-1.947-1.228-3.68-2.635-5.16-4.367-1.55-1.696-2.777-3.644-3.752-5.954-.938-2.273-1.443-5.052-1.443-8.263 0-3.68.722-6.892 2.057-9.706 1.407-2.778 3.247-5.16 5.52-6.964 2.346-1.84 5.09-3.21 8.228-4.15 3.14-.9 6.495-1.406 9.995-1.406 1.84 0 3.68.217 5.52.47 1.805.288 3.5.648 5.053 1.118 1.624.47 2.995 1.01 4.222 1.624 1.263.613 2.057 1.082 2.49 1.515.36.398.65.687.794.975.108.253.216.65.325 1.12.107.432.18 1.01.252 1.695.036.722.036 1.552.036 2.598 0 1.19 0 2.093-.108 2.923-.072.76-.18 1.444-.29 1.95-.143.504-.324.9-.612 1.154-.216.217-.613.36-1.046.36-.397 0-1.12-.288-2.057-.865-.938-.542-2.093-1.12-3.5-1.84-1.37-.614-2.995-1.228-4.835-1.77-1.804-.504-3.79-.793-6.026-.793-1.66 0-3.175.217-4.438.613-1.227.433-2.31 1.01-3.175 1.732-.83.758-1.478 1.624-1.875 2.67-.433 1.01-.613 2.093-.613 3.283 0 1.696.433 3.14 1.37 4.402.903 1.263 2.166 2.345 3.718 3.32 1.624.974 3.356 1.876 5.376 2.742 1.984.865 3.97 1.767 6.062 2.74 2.02.903 4.04 2.022 6.062 3.212 1.948 1.227 3.716 2.634 5.268 4.366 1.552 1.696 2.778 3.644 3.753 5.88.94 2.31 1.408 5.016 1.408 8.083z"/><path class="path22" d="M268.49 461.106c4.727 0 10.86-.325 18.222-.866l-19.196 32.366.217.433c4.33 7.07 7.758 12.736 17.933 12.736 13.35 0 15.768-3.608 26.16-22.876 10.428-19.196 69.062-119.47 69.64-120.443l.685-1.12h-7.035l-.216.29c-.254.47-27.712 46.402-40.197 68.954l-2.13 3.934c-9.49 17.392-11.762 21.505-26.592 21.505-15.73 0-22.875-17.14-23.02-17.393l-44.165-76.964-.216-.325h-40.99l50.84 88.51c.07.108 5.664 11.258 20.06 11.258z"/><path class="path23" d="M324.562 402.003c12.63 0 15.552-4.366 26.304-20.567l1.37-2.057c2.238-3.32 9.022-16.455 9.274-16.996l.577-1.046H322.83l-16.346 27.675.216.36c4.113 6.784 7.613 12.63 17.86 12.63z"/><path class="path24" d="M289.598 409.76c4.113 0 9.13-.18 14.866-.613l-16.67 31.103.217.36c4.367 7.18 7.903 11.908 17.393 11.908 12.448 0 14.505-3.392 24.32-19.845l1.84-3.03c11.186-18.62 39.294-66.754 39.62-67.187l.612-1.12h-6.64l-.18.29c-5.772 9.814-9.67 16.165-11.076 18.438-1.805 2.923-3.357 5.52-4.728 7.83-8.12 13.675-10.284 17.392-23.923 17.392-15.697 0-22.985-16.887-23.094-17.14l-1.046-2.02c-1.37-2.418-2.634-4.8-3.825-7l-9.526-17.79h-40.45l20.568 36.625c.036.11 5.918 11.8 21.722 11.8z"/><path class="path25" d="M248.247 509.637c5.124 0 11.835.217 19.918.577l-20.747 34.314.29.36c4.004 6.676 7.54 12.486 17.715 12.486 12.088 0 14.253-3.5 23.418-18.33.83-1.407 1.77-2.923 2.743-4.51 11.655-18.69 99.768-170.598 100.67-172.077l.613-1.12h-7.433l-.18.326c-.577 1.046-57.876 102.113-70.217 122.175-1.768 2.887-3.32 5.52-4.69 7.866-8.264 13.892-10.465 17.608-24.104 17.608-15.66 0-22.84-17.175-22.912-17.392l-74.655-130.583H148.48L228.15 497.8c.035.145 4.618 11.836 20.097 11.836z"/><path class="path26" d="M209.35 656.06l-2.128-2.382c-2.85-3.68-165.402-289.38-167.026-292.268l-.217-.397H0l167.928 289.96c.072.143 6.314 11.798 20.026 11.798 9.165 0 20.242.542 28.397.975l4.583.217.144-1.443c-2.887-.578-5.665-1.877-8.3-3.79-1.262-.794-2.38-1.696-3.427-2.67z"/><path class="path27" d="M405.675 361.338l-.18.325c-1.263 2.093-118.567 204.804-130.907 224.866-1.768 2.886-3.32 5.447-4.763 7.793-8.263 13.856-10.392 17.644-24.067 17.644-14.577 0-20.747-12.7-22.768-16.814l-.217-.433c-3.247-5.773-9.165-16.31-16.778-29.84-35.325-62.53-114.67-203.216-114.67-203.216l-.217-.325h-39.15l136.537 239.045c.036.18 4.258 11.943 20.134 11.943 4.87 0 11.004.18 18.365.577l-20.098 34.784.217.396c3.753 5.737 8.155 11.402 17.86 11.402 12.27 0 14.542-3.716 24.32-19.124l2.382-3.717c12.376-19.448 157.79-271.7 159.232-274.227l.686-1.082z"/><path class="path28" d="M229.412 561.523c4.907 0 11.15.144 18.62.397-3.284 5.485-13.712 23.273-20.063 34.134l-.218.397.217.326c4.148 6.783 7.793 11.62 17.246 11.62 12.448 0 14.47-3.393 24.21-19.666l1.95-3.175c11.365-18.8 129.138-221.15 130.33-223.134l.648-1.118h-6.71l-.18.36c-.867 1.516-87.537 150.862-100.67 173.81-10.176 17.825-18.764 25.402-28.76 25.402-15.66 0-22.84-17.103-22.947-17.356L139.06 361.3h-38.535L209.35 549.725c.036.108 6.026 11.8 20.062 11.8z"/></symbol><symbol viewBox="0 0 1024 1024"><title>western-union-logo</title><path class="path1" d="M662.407 426.427l-4.963-.412v16.197l4.455-.428c3.14-.302 5.07-1.045 6.543-2.52 3.215-3.216 3.61-6.98 1.048-9.96-1.742-2.026-3.004-2.54-7.083-2.878z"/><path class="path2" d="M0 395.59v5.22l38.02.472 3.507 26.434c1.93 14.54 3.607 26.333 3.73 26.21s1.81-11.032 3.75-24.244 3.753-25.106 4.03-26.43l.503-2.407h43.452l.916 5.47c.504 3.01 2.148 14.14 3.654 24.732s3.008 19.964 3.338 20.826c.33.86 2.162-10.267 4.07-24.73l3.47-26.298h19.067c17.572 0 19.066.12 19.07 1.532.003.842-4.82 23.888-10.715 51.212l-10.72 49.68H83.38l-.93-6.348c-.513-3.49-2.197-15.407-3.743-26.482s-3.058-20.423-3.36-20.775-2.275 11.565-4.382 26.482l-3.83 27.122H44.07c-12.683 0-23.06-.34-23.06-.754s-4.727-22.573-10.504-49.243C4.73 426.603.002 403.89 0 402.797v-1.987 227.6h1022.934V395.59H0zm252.998 93.235v14.444h-80.54V400.843h78.79v28.89h-37.644v7.878h35.017v28.89h-35.016v7.878h39.394v14.444zm119.057 67.726c0 20.37-.38 37.777-.882 40.425-2.794 14.73-12.86 23.966-29.94 27.47-8.438 1.73-29.44 1.75-37.347.035-7.35-1.595-15.665-5.556-20.13-9.59-1.99-1.8-4.88-5.85-6.458-9.05l-2.854-5.795-.505-79.267h42.087l.002 33.923c0 30.568.152 34.22 1.53 36.922 1.92 3.76 3.69 4.86 6.633 4.12 4.805-1.205 4.966-2.516 4.966-40.34v-34.624h42.895v35.773zm-.8-74.73c-3.294 10.016-11.235 17.25-23.215 21.144-6.328 2.057-8.656 2.324-22.382 2.564-8.426.147-17.35-.095-19.83-.538-9.985-1.783-20.117-6.998-24.328-12.52-3.173-4.16-5.488-10.5-6.23-17.064l-.612-5.402h20.686c20.27 0 20.686.036 20.686 1.794 0 2.53 2.334 6.742 4.33 7.81 3.188 1.706 7.035 1.05 9.745-1.658 5.57-5.57 2.917-7.503-19.376-14.123-23.033-6.84-27.466-9.434-31.334-18.335-3.523-8.107-3.14-21.28.85-29.097 4.085-8.01 13.714-14.305 25.795-16.864 8.266-1.75 28.262-1.712 36.896.072 16.402 3.388 25.154 12.178 26.297 26.41l.44 5.473h-38.76v-2.036c0-3.01-3.47-5.844-7.16-5.844-2.984 0-7.722 2.704-7.722 4.407 0 2.187 4.56 4.4 14.29 6.93 21.65 5.63 28.56 8.486 34.465 14.24 5.665 5.52 7.607 10.83 7.617 20.82.005 4.575-.51 9.893-1.143 11.82zm21.81-66.53v-14.446h91.045v28.89h-24.512v73.535h-42.02v-73.537h-24.512V415.29zm112.93 156.7v51.212l-50.337-.02-18.384-53.33-.232 26.675-.23 26.676h-34.993V520.778h50.608l2.586 7.222c1.423 3.972 5.498 15.57 9.056 25.77l6.47 18.55.464-51.542h34.99v51.212zm73.536 0v51.212h-42.02V520.777h42.02v51.212zm9.63-83.165v14.444h-80.538V400.843h78.788v28.89h-37.643v7.878h35.017v28.89h-35.017v7.878h39.394v14.444zm110.076 123.387c-9.966 9.966-20.69 13.647-39.525 13.568-8.35-.035-13.195-.503-17.857-1.724-8.84-2.316-14.56-5.583-20.878-11.926-9.764-9.802-13.708-21.352-13.708-40.14 0-18.795 4.017-30.428 13.948-40.388 9.48-9.51 20.806-13.42 38.855-13.42 18.137 0 29.458 3.91 39.022 13.473 9.977 9.977 13.89 21.338 13.89 40.335 0 19.068-3.847 30.323-13.746 40.222zM695.12 503.27h-20.975l-.884-3.285c-.485-1.806-1.693-8.798-2.682-15.54-2.042-13.908-3-15.598-9.412-16.626l-3.72-.598v36.046H616.3V400.843h35.412c37.194 0 41.49.35 48.63 3.962 8.18 4.14 11.332 10.175 11.36 21.762.01 4.277-.43 9.278-.98 11.112-1.33 4.442-5.374 9.204-9.682 11.4l-3.51 1.79 3.692 1.827c6.33 3.132 7.862 6.886 10.09 24.745.782 6.26 2.178 14.488 3.104 18.285s1.682 7.048 1.682 7.222-9.44.316-20.976.316zm149.665 68.72v51.212h-50.428l-18.293-52.88-.463 52.88h-34.99V520.777h50.55l18.17 52.088.465-52.088h34.99v51.212zm0-119.933v51.212h-50.37l-18.35-52.88-.464 52.88h-34.99V400.843h50.55l18.17 52.088.465-52.088h34.99v51.212zm42.02 59.09v112.93h-15.758v-225.86h15.758v112.93zm89.293 1.314V624.08h-14.882V400.845h14.882v111.617z"/><path class="path3" d="M653.963 551.377c-5.36 10.508-3.37 42.494 2.8 44.975 2.235.898 5.587.557 7.465-.758 5.77-4.042 7.235-33.806 2.172-44.14-2.87-5.856-9.468-5.897-12.437-.077z"/><path class="path4" d="M45.245 459.662c.253-.632.222-1.387-.07-1.678s-.497.226-.46 1.15c.043 1.02.25 1.226.53.528z"/></symbol></defs></svg>