<svg style="position:absolute;width:0;height:0" xmlns="http://www.w3.org/2000/svg" overflow="hidden"><defs><symbol viewBox="0 0 21 32"><title>angle-down</title><path d="M19.196 13.143q0 .232-.18.41l-8.32 8.322q-.18.18-.41.18t-.412-.18l-8.32-8.32q-.18-.18-.18-.412t.18-.41l.892-.894q.18-.18.41-.18t.412.18l7.018 7.017 7.018-7.018q.18-.18.41-.18t.412.18l.893.892q.178.18.178.41z"/></symbol><symbol viewBox="0 0 12 32"><title>angle-left</title><path d="M11.196 9.714q0 .232-.18.41L4 17.145l7.017 7.017q.18.18.18.412t-.18.41l-.893.894q-.18.18-.41.18t-.412-.18l-8.32-8.32q-.18-.18-.18-.412t.18-.41L9.3 8.41q.18-.18.41-.18t.412.18l.893.893q.18.18.18.41z"/></symbol><symbol viewBox="0 0 11 32"><title>angle-right</title><path d="M10.625 17.143q0 .232-.18.41l-8.32 8.322q-.18.18-.41.18t-.412-.18l-.893-.893q-.18-.18-.18-.41t.18-.412l7.018-7.018L.41 10.124q-.18-.18-.18-.41T.41 9.3l.893-.893q.18-.18.41-.18t.412.18l8.32 8.32q.18.18.18.41z"/></symbol><symbol viewBox="0 0 21 32"><title>angle-up</title><path d="M19.196 21.143q0 .232-.18.41l-.892.894q-.18.18-.41.18t-.412-.18l-7.018-7.018-7.018 7.017q-.18.18-.41.18t-.412-.18l-.893-.893q-.178-.18-.178-.41t.18-.412l8.32-8.32q.18-.18.41-.18t.412.18l8.32 8.32q.18.18.18.41z"/></symbol><symbol viewBox="0 0 32 32"><title>apple-logo</title><path d="M20.768 16.563c-.02-2.275 1.806-3.368 1.888-3.42-1.027-1.548-2.626-1.76-3.196-1.785-1.36-.142-2.655.824-3.344.824s-1.755-.803-2.883-.78c-1.484.022-2.85.886-3.615 2.253-1.54 2.75-.393 6.826 1.107 9.058.734 1.09 1.61 2.32 2.758 2.275 1.108-.045 1.526-.737 2.863-.737s1.713.738 2.884.716c1.19-.024 1.946-1.115 2.674-2.21.84-1.267 1.19-2.493 1.21-2.558-.027-.01-2.322-.917-2.346-3.637zM16.904 8.374c-.565.672-1.06 1.748-.926 2.78.98.08 1.98-.512 2.59-1.272s1.023-1.818.91-2.87c-.88.035-1.943.602-2.574 1.362z"/></symbol><symbol viewBox="0 0 32 32"><title>check</title><path d="M29.84 10.107q0 .714-.5 1.214L13.98 26.68q-.5.5-1.214.5t-1.214-.5L2.66 17.785q-.5-.5-.5-1.214t.5-1.213l2.43-2.43q.5-.5 1.214-.5t1.214.5l5.25 5.27L24.482 6.463q.5-.5 1.214-.5t1.214.5l2.43 2.43q.5.5.5 1.213z"/></symbol><symbol viewBox="0 0 32 32"><title>clear--day</title><path d="M16 9c-3.86 0-7 3.14-7 7s3.14 7 7 7 7-3.14 7-7-3.14-7-7-7zm0 12c-2.762 0-5-2.238-5-5s2.238-5 5-5 5 2.238 5 5-2.238 5-5 5zm0-14c.552 0 1-.448 1-1V4c0-.552-.448-1-1-1s-1 .448-1 1v2c0 .552.448 1 1 1zm0 18c-.552 0-1 .448-1 1v2c0 .552.448 1 1 1s1-.448 1-1v-2c0-.552-.448-1-1-1zm7.777-15.365L25.19 8.22c.392-.39.392-1.022 0-1.413s-1.022-.39-1.413 0L22.363 8.22c-.39.392-.39 1.024 0 1.415s1.023.39 1.414 0zM8.223 22.365L6.81 23.78c-.392.39-.392 1.022 0 1.413s1.022.39 1.413 0l1.414-1.414c.39-.393.39-1.024 0-1.415s-1.023-.392-1.414 0zM7 16c0-.552-.448-1-1-1H4c-.552 0-1 .448-1 1s.448 1 1 1h2c.552 0 1-.448 1-1zm21-1h-2c-.552 0-1 .448-1 1s.448 1 1 1h2c.552 0 1-.448 1-1s-.448-1-1-1zM8.22 9.635c.392.39 1.025.39 1.415 0s.39-1.023 0-1.414L8.22 6.808c-.39-.39-1.022-.39-1.413 0s-.39 1.023 0 1.414L8.22 9.636zm15.56 12.728c-.393-.39-1.024-.39-1.415 0s-.392 1.023 0 1.414l1.414 1.414c.39.392 1.022.392 1.413 0s.39-1.022 0-1.413l-1.414-1.414z"/></symbol><symbol viewBox="0 0 32 32"><title>clear--night</title><path d="M21.866 21.447c-3.117 3.12-8.193 3.12-11.313 0s-3.12-8.195 0-11.314c.826-.824 1.832-1.453 2.99-1.863.364-.128.767-.035 1.038.237.275.273.367.677.238 1.04-.784 2.21-.25 4.603 1.39 6.244 1.64 1.64 4.032 2.173 6.246 1.392.362-.13.767-.036 1.04.237.272.27.364.675.235 1.038-.41 1.157-1.04 2.164-1.864 2.99zm-9.9-9.9c-2.34 2.34-2.34 6.147 0 8.486 2.5 2.5 6.76 2.276 8.938-.51-2.247.14-4.46-.67-6.11-2.318s-2.457-3.86-2.317-6.108c-.18.14-.35.29-.51.45z"/></symbol><symbol viewBox="0 0 32 32"><title>cloudy--day</title><path d="M13 4c.552 0 1-.448 1-1V1c0-.552-.448-1-1-1s-1 .448-1 1v2c0 .552.448 1 1 1zm7.777 2.635L22.19 5.22c.392-.39.392-1.022 0-1.413s-1.022-.39-1.413 0L19.363 5.22c-.39.392-.39 1.024 0 1.415s1.023.39 1.414 0zM1 14h2c.552 0 1-.448 1-1s-.448-1-1-1H1c-.552 0-1 .448-1 1s.448 1 1 1zm21-1c0 .552.448 1 1 1h2c.552 0 1-.448 1-1s-.448-1-1-1h-2c-.552 0-1 .448-1 1zM5.22 6.635c.392.39 1.025.39 1.415 0s.39-1.023 0-1.414L5.22 3.808c-.39-.39-1.022-.39-1.413 0s-.39 1.023 0 1.414L5.22 6.636zM25 16c-.332 0-.66.023-.987.07-1.048-1.43-2.445-2.52-4.03-3.22C19.904 9.063 16.81 6 13 6c-3.86 0-7 3.14-7 7 0 1.09.27 2.108.72 3.026C2.99 16.178 0 19.236 0 23c0 3.858 3.14 7 7 7 .856 0 1.693-.157 2.482-.46C11.292 31.12 13.594 32 16 32c2.41 0 4.708-.88 6.518-2.46.79.303 1.626.46 2.482.46 3.86 0 7-3.142 7-7s-3.14-7-7-7zM13 8c2.488 0 4.535 1.823 4.92 4.203C17.292 12.078 16.652 12 16 12c-2.87 0-5.53 1.238-7.398 3.328C8.232 14.63 8 13.846 8 13c0-2.762 2.238-5 5-5zm12 20c-1.07 0-2.057-.344-2.87-.917C20.66 28.85 18.476 30 16 30s-4.662-1.148-6.13-2.917C9.06 27.656 8.07 28 7 28c-2.762 0-5-2.238-5-5s2.238-5 5-5c.484 0 .94.09 1.383.22.176.05.354.09.52.16.273-.536.617-1.026 1-1.485C11.362 15.137 13.535 14 16 14c.634 0 1.24.09 1.83.232.66.156 1.283.393 1.864.706 1.456.773 2.65 1.97 3.404 3.44.587-.24 1.23-.378 1.904-.378 2.762 0 5 2.238 5 5s-2.238 5-5 5z"/></symbol><symbol viewBox="0 0 32 32"><title>cloudy--night</title><path d="M27.19 16.385c.306-.227.614-.45.89-.725.826-.827 1.454-1.833 1.862-2.99.13-.363.038-.77-.236-1.04-.272-.273-.676-.366-1.04-.237-2.21.78-4.604.25-6.243-1.39-1.64-1.642-2.174-4.034-1.39-6.245.127-.363.035-.767-.238-1.04-.27-.27-.676-.365-1.04-.237-1.158.412-2.163 1.04-2.99 1.865-2.095 2.094-2.748 5.063-2.03 7.737-2.702.345-5.132 1.78-6.75 3.987-.327-.048-.655-.07-.987-.07-3.86 0-7 3.14-7 7s3.14 7 7 7c.856 0 1.693-.157 2.482-.46 1.81 1.58 4.112 2.46 6.518 2.46 2.41 0 4.708-.88 6.518-2.46.79.303 1.626.46 2.482.46 3.86 0 7-3.142 7-7 0-3.09-2.026-5.69-4.81-6.616zM18.183 5.76c.16-.16.33-.31.51-.452-.142 2.25.67 4.46 2.318 6.108s3.86 2.458 6.11 2.32c-.863 1.098-2.05 1.782-3.32 2.073-1.712-2.173-4.226-3.54-6.998-3.763-.767-2.122-.318-4.59 1.38-6.288zM25 28c-1.07 0-2.057-.344-2.87-.917C20.66 28.85 18.476 30 16 30s-4.662-1.148-6.13-2.917C9.06 27.656 8.07 28 7 28c-2.762 0-5-2.238-5-5s2.238-5 5-5c.676 0 1.316.137 1.902.38 1.262-2.46 3.734-4.182 6.645-4.347.152-.01.3-.033.453-.033.807 0 1.582.126 2.313.35.987.3 1.887.793 2.668 1.427.747.605 1.372 1.348 1.864 2.18.083.142.177.274.253.422.587-.243 1.23-.38 1.904-.38 2.763 0 5 2.238 5 5s-2.237 5-5 5z"/></symbol><symbol viewBox="0 0 32 32"><title>cool</title><path d="M16 32c8.837 0 16-7.163 16-16S24.837 0 16 0 0 7.163 0 16s7.163 16 16 16zm0-29c7.18 0 13 5.82 13 13s-5.82 13-13 13S3 23.18 3 16 8.82 3 16 3zm9 5c.55 0 1 .45 1 1v3c0 1.1-.9 2-2 2h-4c-1.1 0-2-.9-2-2h-4c0 1.1-.9 2-2 2H8c-1.1 0-2-.9-2-2V9c0-.55.45-1 1-1h6c.55 0 1 .45 1 1v1h4V9c0-.55.45-1 1-1h6zm-9 16c2.913 0 5.462-1.557 6.86-3.884l1.716 1.03C22.826 24.052 19.64 26 16 26c-1.514 0-2.95-.337-4.236-.94l1.036-1.727c.98.43 2.06.668 3.2.668z"/></symbol><symbol viewBox="0 0 32 32"><title>diageo-logo</title><path d="M9.95 16.822c.02-.04.054-.11.068-.144l.835-2.026.82 2.046c.015.034.042.09.062.137l-.102.02c-.233.063-.493.104-.76.104s-.514-.035-.774-.104c-.05-.014-.117-.034-.152-.034zm-8.496-3.088c.93 0 1.588.192 2 .555.492.43.738.998.738 1.71 0 .677-.24 1.24-.712 1.677-.41.39-1.08.595-2.026.595h-.3v-4.538h.3zm28.75.582c.465.452.69 1.02.69 1.684 0 .657-.232 1.218-.69 1.684-.46.46-1.014.69-1.664.69-1.308 0-2.348-1.074-2.348-2.374 0-.657.233-1.225.69-1.69.453-.46 1.014-.686 1.658-.686s1.198.233 1.663.692zm-11.027.397l.828-.712c-.712-.95-1.663-1.423-2.786-1.423-1.91 0-3.45 1.526-3.45 3.436 0 1.87 1.532 3.41 3.4 3.41.473 0 .925-.104 1.363-.302.425-.19.794-.458 1.096-.807.286-.322.47-.69.58-1.095.09-.335.145-.746.117-1.24l-.014-.197H17.33v1.05h1.833c-.048.41-.26.766-.63 1.06-.404.328-.863.486-1.376.486-.596 0-1.13-.246-1.622-.732-.445-.452-.67-.993-.67-1.622 0-.664.232-1.24.71-1.718.453-.46 1-.678 1.63-.678.808 0 1.444.37 1.972 1.088zM12.16 17.87l.61 1.45h1.204l-2.827-6.653H10.6L7.696 19.32h1.198l.637-1.478c.014-.04.02-.07.027-.096.026.014.068.027.115.048.356.137.78.212 1.198.212.41 0 .815-.082 1.054-.164.123-.04.164-.06.198-.082.007.027.027.09.034.11zM1.42 19.32c1.22 0 2.156-.274 2.786-.842.72-.643 1.08-1.465 1.08-2.47 0-1.048-.37-1.89-1.108-2.52-.623-.534-1.547-.8-2.745-.8H.016v6.632H1.42zm5.846-6.633H6.178v6.633h1.088v-6.633zm14.86 3.54h2.32v-1.04h-2.32v-1.452h2.526v-1.047h-3.614v6.633h3.62v-1.046h-2.532v-2.047zm3.984-2.643c-.678.664-1.013 1.478-1.013 2.423 0 1.91 1.54 3.416 3.443 3.416 1.91 0 3.443-1.5 3.443-3.416 0-.938-.342-1.74-1.006-2.416-.67-.677-1.486-1.012-2.437-1.012-.945 0-1.76.335-2.43 1.006z"/></symbol><symbol viewBox="0 0 32 32"><title>foggy</title><path d="M2.1 16c-.065-.323-.1-.658-.1-1 0-2.762 2.238-5 5-5 .676 0 1.316.138 1.902.38C10.23 7.792 12.892 6 16 6s5.77 1.792 7.096 4.38c.587-.242 1.23-.38 1.904-.38 2.762 0 5 2.238 5 5 0 .342-.035.677-.102 1h2c.05-.33.102-.658.102-1 0-3.86-3.14-7-7-7-.332 0-.66.023-.987.07C22.146 5.526 19.2 4 16 4S9.855 5.526 7.987 8.07C7.66 8.023 7.332 8 7 8c-3.86 0-7 3.14-7 7 0 .342.053.67.102 1h2zM31 18H1c-.552 0-1 .448-1 1s.448 1 1 1h30c.552 0 1-.448 1-1s-.448-1-1-1zm0 4H1c-.552 0-1 .448-1 1s.448 1 1 1h30c.552 0 1-.448 1-1s-.448-1-1-1zm0 4H1c-.552 0-1 .448-1 1s.448 1 1 1h30c.552 0 1-.448 1-1s-.448-1-1-1z"/></symbol><symbol viewBox="0 0 32 32"><title>github-alt</title><path d="M11.43 21.714q0 .714-.224 1.464t-.768 1.357-1.295.607-1.295-.607-.768-1.357-.223-1.464.223-1.464.768-1.357 1.295-.607 1.295.607.768 1.357.223 1.464zm11.427 0q0 .714-.223 1.464t-.768 1.357-1.295.607-1.294-.607-.768-1.357-.223-1.464.223-1.464.768-1.357 1.295-.607 1.296.607.768 1.357.223 1.464zm2.857 0q0-2.143-1.232-3.643t-3.34-1.5q-.73 0-3.48.376-1.27.196-2.805.196t-2.804-.196Q9.34 16.57 8.57 16.57q-2.106 0-3.338 1.5T4 21.715q0 1.57.57 2.74t1.447 1.84 2.18 1.07 2.5.528 2.66.125h3q1.464 0 2.66-.125t2.5-.527 2.18-1.07 1.446-1.84.57-2.74zm4-3.143q0 3.697-1.09 5.912-.678 1.375-1.883 2.375t-2.517 1.536-3.036.848-3.063.394-2.982.08q-1.393 0-2.536-.054t-2.634-.223T7.25 28.9t-2.447-.92-2.16-1.445-1.537-2.054Q0 22.286 0 18.57q0-4.232 2.428-7.07-.482-1.465-.482-3.037 0-2.07.91-3.893 1.93 0 3.394.705T9.625 7.48q2.625-.625 5.518-.625 2.643 0 5 .57 1.875-1.463 3.34-2.16t3.374-.696q.91 1.82.91 3.892 0 1.554-.48 3 2.428 2.857 2.428 7.107z"/></symbol><symbol viewBox="0 0 32 32"><title>heavy-rain</title><path d="M25 4c-.332 0-.66.023-.987.07C22.146 1.526 19.2 0 16 0S9.855 1.526 7.987 4.07C7.66 4.023 7.332 4 7 4c-3.86 0-7 3.14-7 7s3.14 7 7 7c.856 0 1.693-.156 2.482-.458C11.292 19.12 13.594 20 16 20c2.41 0 4.708-.88 6.518-2.458.79.302 1.626.458 2.482.458 3.86 0 7-3.14 7-7s-3.14-7-7-7zm0 12c-1.07 0-2.057-.344-2.87-.917C20.66 16.85 18.476 18 16 18s-4.662-1.148-6.13-2.917C9.06 15.656 8.07 16 7 16c-2.762 0-5-2.238-5-5s2.238-5 5-5c.676 0 1.316.138 1.902.38C10.23 3.792 12.892 2 16 2s5.77 1.792 7.096 4.38C23.683 6.138 24.326 6 25 6c2.762 0 5 2.238 5 5s-2.238 5-5 5zM14.063 30c0 1.105.895 2 2 2s2-.895 2-2-2-4-2-4-2 2.895-2 4zM22 28c0 1.105.895 2 2 2s2-.895 2-2-2-4-2-4-2 2.895-2 4zM6 24c0 1.105.894 2 2 2s2-.895 2-2-2-4-2-4-2 2.895-2 4z"/></symbol><symbol viewBox="0 0 32 32"><title>heavy-snow</title><path d="M20.378 27.73l-1.125-.648c.034-.195.06-.394.06-.602s-.026-.406-.063-.602l1.128-.65c.526-.307.706-.983.404-1.506-.305-.53-.98-.71-1.508-.406l-1.137.656c-.305-.26-.648-.462-1.03-.6v-1.306c0-.61-.497-1.105-1.106-1.105s-1.103.496-1.103 1.106v1.305c-.383.138-.728.343-1.033.603l-1.134-.656c-.53-.305-1.206-.125-1.51.405-.305.526-.12 1.203.406 1.508l1.122.648c-.037.197-.06.396-.06.603s.023.407.06.603l-1.122.648c-.53.306-.71.985-.406 1.513s.98.707 1.508.402l1.135-.652c.305.258.65.46 1.034.598v1.31c0 .61.495 1.102 1.104 1.102s1.106-.492 1.106-1.102v-1.31c.383-.136.73-.34 1.033-.6l1.134.655c.53.305 1.203.125 1.508-.402s.125-1.203-.404-1.512zM16 27.586c-.61 0-1.105-.496-1.105-1.105S15.39 25.38 16 25.38s1.104.494 1.104 1.103-.495 1.106-1.104 1.106zm13.635-2.82l-.755-.2c-.018-.24-.076-.468-.18-.687l.547-.55c.258-.257.256-.673 0-.927-.255-.256-.67-.258-.927 0l-.55.547c-.215-.102-.446-.16-.684-.18l-.2-.754c-.095-.35-.454-.56-.806-.465-.35.096-.555.455-.464.806l.2.744c-.098.068-.192.143-.28.23-.086.088-.16.18-.227.278l-.745-.2c-.35-.095-.712.116-.806.464-.095.352.116.71.463.805l.75.202c.02.235.08.465.186.684l-.552.55c-.255.257-.254.672.003.927.256.256.67.26.925.004l.552-.552c.216.107.448.167.688.185l.198.75c.096.35.453.56.805.466.35-.094.56-.453.466-.807l-.2-.744c.093-.066.19-.14.278-.227.086-.087.16-.184.227-.28l.744.2c.35.095.71-.115.803-.463.094-.35-.113-.708-.462-.805zm-2.24.418c-.258.258-.673.256-.93 0-.254-.254-.256-.67 0-.928.256-.255.673-.255.93 0 .254.256.254.674 0 .928zm-19.96-3.778l-.743.2c-.07-.095-.14-.19-.228-.278-.088-.086-.182-.16-.28-.227l.2-.745c.093-.35-.116-.71-.462-.803-.352-.094-.71.115-.805.464l-.203.754c-.238.02-.466.078-.684.18l-.55-.547c-.26-.258-.673-.256-.928 0s-.256.672 0 .928l.548.55c-.103.218-.163.448-.18.685l-.754.2c-.352.097-.56.454-.466.806.095.35.454.556.806.465l.742-.202c.066.1.14.194.23.28.087.087.18.164.278.228l-.2.745c-.093.352.116.714.464.807.352.094.708-.115.802-.465l.203-.75c.238-.02.47-.08.688-.184l.55.55c.254.257.668.252.926-.004.253-.255.257-.67 0-.927l-.552-.55c.106-.217.168-.45.184-.69l.754-.198c.348-.095.556-.453.462-.805-.094-.348-.453-.556-.806-.465zm-1.9 1.78c-.256.255-.672.255-.93 0-.254-.256-.254-.674 0-.928.258-.255.673-.255.93 0s.254.672 0 .927zM32 11c0-3.86-3.14-7-7-7-.332 0-.66.023-.987.07C22.146 1.526 19.2 0 16 0S9.855 1.526 7.987 4.07C7.66 4.023 7.332 4 7 4c-3.86 0-7 3.14-7 7s3.14 7 7 7c.856 0 1.693-.156 2.482-.458C11.292 19.12 13.594 20 16 20c2.41 0 4.708-.88 6.518-2.458.79.302 1.626.458 2.482.458 3.86 0 7-3.14 7-7zm-9.87 4.083C20.66 16.85 18.476 18 16 18s-4.662-1.148-6.13-2.917C9.06 15.656 8.07 16 7 16c-2.762 0-5-2.238-5-5s2.238-5 5-5c.676 0 1.316.138 1.902.38C10.23 3.792 12.892 2 16 2s5.77 1.792 7.096 4.38C23.683 6.138 24.326 6 25 6c2.762 0 5 2.238 5 5s-2.238 5-5 5c-1.07 0-2.057-.344-2.87-.917z"/></symbol><symbol viewBox="0 0 32 32"><title>hsbc-logo</title><path d="M4.122 15.653v1.934c0 .258-.226.45-.483.45h-.26v.098h2.225v-.097h-.258c-.258 0-.484-.226-.484-.45v-4.319c0-.226.226-.45.484-.45h.258v-.098H3.38v.097h.26c.29 0 .483.226.483.45v2.096H1.48v-2.095c0-.226.226-.45.484-.45h.258v-.098H-.002v.097h.258c.29 0 .483.226.483.45v4.321c0 .226-.227.45-.484.45h-.258v.098h2.224v-.097h-.258c-.258 0-.484-.226-.484-.45v-1.935h2.643zM9.408 16.716c.032.322-.193.806-.45 1.064-.26.226-.646.45-1.13.45-.58 0-1.063-.29-1.256-.386-.097-.032-.258-.032-.322 0-.097.064-.16.16-.193.355H5.96v-1.87h.097c.064.58.355.934.516 1.127.29.322.806.483 1.29.42.386-.065.837-.484.773-1.032-.032-.193-.064-.483-.45-.74-.26-.162-.613-.388-.936-.613-.42-.29-.806-.58-.935-.71-.13-.16-.322-.386-.322-.773 0-.323.13-.678.387-.936s.612-.42 1.128-.42c.516 0 .87.26 1 .323s.257.032.354 0c.064-.064.13-.13.16-.322h.098v1.773h-.097c-.064-.58-.322-1-.516-1.16-.16-.16-.516-.387-1.03-.29-.485.097-.742.322-.775.71-.032.29.13.482.226.58.193.225 1.386.902 1.934 1.385.29.258.516.548.548 1.064zM12.922 15.363c.967.322 1.257 1.03 1.064 1.708-.226.84-1.16 1-1.45 1.032-.13.032-.483.032-.838.032h-2.03v-.097h.32c.194 0 .452-.16.452-.42v-4.35s-.226-.42-.42-.42H9.7v-.096h1.933c.45 0 .71.033.87.065.29.064 1.064.29 1.257 1.03.16.58-.13 1.323-.838 1.516zm-1.74-.162c.257.065 1.063.098 1.353-.096.483-.29.645-.806.548-1.225-.064-.26-.193-.484-.42-.678-.45-.322-1.127-.29-1.482-.16v2.16zm0 2.645c.386.13 1.095.193 1.578-.16.612-.42.74-1.484-.13-2.032-.354-.226-1.192-.193-1.482-.13v2.322zM19.11 12.816l.065 1.837h-.097c-.064-.45-.226-.806-.45-1-.065-.063-.194-.192-.356-.29-.29-.192-.71-.354-1.225-.257-.774.13-1.16.645-1.354 1.128-.258.612-.387 1.644 0 2.514.322.71.967 1 1.483 1.064.42.064 1.354.032 2.095-.935l.13.064c-.548.775-1.29 1.29-2.127 1.29-1.096 0-1.773-.612-2.063-.967-.322-.387-.58-1.096-.58-1.708 0-.548.13-1.16.322-1.515.355-.612 1.064-1.225 1.998-1.322.71-.064 1.16.064 1.547.29.193.097.322.13.42.064.096-.032.192-.13.192-.322zM20.98 15.427l2.708 2.708V12.72zM23.688 18.135h5.447l-2.74-2.708zM26.395 15.427l2.74-2.708h-5.447zM29.135 12.72v5.415l2.708-2.708z"/></symbol><symbol viewBox="0 0 32 32"><title>light-rain</title><path d="M25 6c-.332 0-.66.023-.987.07C22.146 3.526 19.2 2 16 2S9.855 3.526 7.987 6.07C7.66 6.023 7.332 6 7 6c-3.86 0-7 3.14-7 7s3.14 7 7 7c.856 0 1.693-.156 2.482-.458C11.292 21.12 13.594 22 16 22c2.41 0 4.708-.88 6.518-2.458.79.302 1.626.458 2.482.458 3.86 0 7-3.14 7-7s-3.14-7-7-7zm0 12c-1.07 0-2.057-.344-2.87-.917C20.66 18.85 18.476 20 16 20s-4.662-1.148-6.13-2.917C9.06 17.656 8.07 18 7 18c-2.762 0-5-2.238-5-5s2.238-5 5-5c.676 0 1.316.138 1.902.38C10.23 5.792 12.892 4 16 4s5.77 1.792 7.096 4.38C23.683 8.138 24.326 8 25 8c2.762 0 5 2.238 5 5s-2.238 5-5 5zM14 28c0 1.105.895 2 2 2s2-.895 2-2-2-4-2-4-2 2.895-2 4z"/></symbol><symbol viewBox="0 0 32 32"><title>light-snow</title><path d="M20.378 27.73l-1.125-.648c.034-.195.06-.394.06-.602s-.026-.406-.063-.602l1.128-.65c.526-.307.706-.983.404-1.506-.305-.53-.98-.71-1.508-.406l-1.137.656c-.305-.26-.648-.462-1.03-.6v-1.306c0-.61-.497-1.105-1.106-1.105s-1.103.496-1.103 1.106v1.305c-.383.138-.728.343-1.033.603l-1.134-.656c-.53-.305-1.206-.125-1.51.405-.305.526-.12 1.203.406 1.508l1.122.648c-.037.197-.06.396-.06.603s.023.407.06.603l-1.122.648c-.53.306-.71.985-.406 1.513s.98.707 1.508.402l1.135-.652c.305.258.65.46 1.034.598v1.31c0 .61.495 1.102 1.104 1.102s1.106-.492 1.106-1.102v-1.31c.383-.136.73-.34 1.033-.6l1.134.655c.53.305 1.203.125 1.508-.402s.125-1.203-.404-1.512zM16 27.586c-.61 0-1.105-.496-1.105-1.105S15.39 25.38 16 25.38s1.104.494 1.104 1.103-.495 1.106-1.104 1.106zM25 4c-.332 0-.66.023-.987.07C22.146 1.526 19.2 0 16 0S9.855 1.526 7.987 4.07C7.66 4.023 7.332 4 7 4c-3.86 0-7 3.14-7 7s3.14 7 7 7c.856 0 1.693-.156 2.482-.458C11.292 19.12 13.594 20 16 20c2.41 0 4.708-.88 6.518-2.458.79.302 1.626.458 2.482.458 3.86 0 7-3.14 7-7s-3.14-7-7-7zm0 12c-1.07 0-2.057-.344-2.87-.917C20.66 16.85 18.476 18 16 18s-4.662-1.148-6.13-2.917C9.06 15.656 8.07 16 7 16c-2.762 0-5-2.238-5-5s2.238-5 5-5c.676 0 1.316.138 1.902.38C10.23 3.792 12.892 2 16 2s5.77 1.792 7.096 4.38C23.683 6.138 24.326 6 25 6c2.762 0 5 2.238 5 5s-2.238 5-5 5z"/></symbol><symbol viewBox="0 0 32 32"><title>lightening</title><path d="M25 4c-.332 0-.66.023-.987.07C22.146 1.526 19.2 0 16 0S9.855 1.526 7.987 4.07C7.66 4.023 7.332 4 7 4c-3.86 0-7 3.14-7 7s3.14 7 7 7c.856 0 1.693-.156 2.482-.458.768.67 1.64 1.185 2.557 1.588l1.556-1.555c-1.466-.477-2.76-1.33-3.725-2.492-.81.573-1.8.917-2.87.917-2.762 0-5-2.238-5-5s2.238-5 5-5c.676 0 1.316.138 1.902.38C10.23 3.792 12.892 2 16 2s5.77 1.792 7.096 4.38C23.683 6.138 24.326 6 25 6c2.762 0 5 2.238 5 5s-2.238 5-5 5c-1.07 0-2.057-.344-2.87-.917-.65.783-1.458 1.417-2.353 1.91l-.84 2.522c1.305-.41 2.53-1.06 3.58-1.974.79.303 1.627.46 2.483.46 3.86 0 7-3.142 7-7s-3.14-7-7-7zM12 22l2 2-2 6 6-6-2-2 2-6-6 6z"/></symbol><symbol viewBox="0 0 32 32"><title>linkedin</title><path d="M6.232 11.16v17.697H.34V11.16H6.23zm.375-5.464Q6.625 7 5.705 7.876t-2.42.874H3.25q-1.465 0-2.358-.875T0 5.695q0-1.32.92-2.187t2.4-.866 2.376.866.91 2.188zM27.43 18.714v10.143h-5.876v-9.464q0-1.875-.723-2.938t-2.258-1.063q-1.125 0-1.884.616t-1.134 1.527q-.196.536-.196 1.446v9.876H9.483q.036-7.125.036-11.554t-.02-5.286l-.017-.857h5.875v2.57h-.036q.357-.57.732-1t1.01-.93 1.553-.776 2.045-.277q3.054 0 4.91 2.027t1.858 5.938z"/></symbol><symbol viewBox="0 0 32 32"><title>lowe-profero-logo</title><path d="M16.052 10.696c-2.912 0-5.273 2.36-5.273 5.273s2.36 5.272 5.272 5.272 5.273-2.36 5.273-5.273-2.36-5.274-5.273-5.274zm-.113 8.395c-1.708 0-3.092-1.383-3.092-3.09s1.384-3.09 3.09-3.09S19.03 14.292 19.03 16s-1.384 3.09-3.09 3.09zM24.7 6.934H7.3c-.2 0-.366.165-.366.367v17.4c0 .2.165.366.367.366h17.4c.2 0 .366-.165.366-.367V7.3c0-.2-.165-.366-.367-.366zm-8.648 16.41c-4.095 0-7.415-3.32-7.415-7.415s3.32-7.416 7.415-7.416 7.415 3.32 7.415 7.415-3.32 7.414-7.415 7.414z"/></symbol><symbol viewBox="0 0 32 32"><title>lufthansa-logo</title><path d="M5.46 16.007c0 1.514-1.22 2.727-2.733 2.727C1.22 18.734 0 17.52 0 16.014c0-1.54 1.22-2.748 2.774-2.748 1.474 0 2.687 1.24 2.687 2.74zm-5.18 0c0 1.354 1.094 2.44 2.447 2.44 1.347 0 2.447-1.08 2.447-2.433 0-1.38-1.08-2.46-2.467-2.46C1.38 13.554.28 14.66.28 16.008zm1.847-.114l-.033.067c-.12-.027-.353-.113-.593-.22l-.032.06.1.053c.347.18.467.22.66.22.407 0 .713-.227.86-.633.247-.053.567-.073.954-.073.327 0 .607.013.974.06l-.093.113c-.167-.02-.48-.04-.7-.04-.273 0-.433 0-.527.007l-.04.1c.22-.013.3-.013.473-.013.3 0 .532.013.726.027l-.093.128c-.347-.013-.5-.02-.76-.02-.14 0-.247.007-.413.013l-.047.1c.147-.012.353-.02.56-.02s.447.008.587.014l-.093.12c-.1-.007-.287-.007-.433-.007-.233 0-.533.013-.68.033l-.047.087c.28-.027.453-.04.76-.04.12 0 .193 0 .333.013l-.107.127c-.187-.013-.247-.013-.32-.013-.513 0-.853.073-1.194.267.312.314.826.528 1.293.528.04 0 .06 0 .16-.007l-.22.228c-1.234-.327-1.454-.413-2.587-1.087-.447-.252-.814-.426-1.107-.512l.04-.14c.066.013.22.053.36.107l.066-.153 1.214.513zM29.266 17.114c0-.393.253-.673.753-.814.08-.02.332-.08.766-.153.18-.04.253-.093.253-.227 0-.147-.154-.24-.38-.24-.274 0-.448.133-.448.36h-.78c0-.593.467-.947 1.247-.947.813 0 1.206.34 1.206 1.027v1.34c0 .227 0 .227.08.367h-.8l-.047-.22c-.314.253-.508.327-.848.327-.587 0-1.007-.347-1.007-.82zm1.567-.474c-.093.013-.2.04-.313.067-.28.073-.413.187-.413.353 0 .173.127.267.347.267.42 0 .613-.187.613-.573v-.18c-.107.033-.147.033-.233.067zm-4.294.314h.84v.033c0 .22.18.353.466.353.247 0 .4-.093.4-.24 0-.153-.14-.247-.473-.3l-.273-.047c-.62-.107-.887-.333-.887-.747 0-.573.473-.914 1.254-.914.547 0 .887.147 1.06.467.073.126.087.172.107.46h-.8c-.02-.248-.127-.34-.387-.34-.213 0-.347.08-.347.22 0 .126.127.2.413.246l.293.053c.62.106.907.372.907.826 0 .553-.467.907-1.214.907-.88 0-1.36-.347-1.36-.98zm-5.63.16c0-.393.26-.673.76-.814.08-.02.334-.073.76-.153.188-.04.26-.093.26-.227 0-.147-.152-.24-.386-.24-.273 0-.44.127-.447.36h-.78c0-.593.467-.947 1.24-.947.814 0 1.22.34 1.22 1.027v1.34c0 .227 0 .227.067.367h-.794l-.047-.22c-.273.24-.507.327-.847.327-.58 0-1.007-.347-1.007-.82zm1.575-.474c-.107.02-.2.047-.313.067-.28.073-.413.187-.413.353 0 .173.132.267.346.267.407 0 .607-.187.607-.573v-.18c-.113.033-.147.033-.227.067zm-10.636.84c-.114-.193-.134-.293-.134-.727v-1.547h.86v1.514c0 .387.107.54.38.54.28 0 .427-.18.427-.54v-1.514h.854v2.62h-.78l-.027-.26c-.213.228-.453.328-.754.328-.367 0-.673-.147-.827-.413zm13.642.347V16.34c0-.387-.113-.547-.38-.547-.28 0-.42.18-.42.547v1.487h-.854v-2.62h.78l.027.292c.2-.26.44-.374.76-.374.367 0 .66.16.814.433.112.2.126.312.126.746v1.52h-.854zm-5.628 0V16.34c0-.38-.12-.547-.38-.547-.28 0-.42.18-.42.547v1.487h-.86V14.18h.86v1.32c.153-.26.38-.373.707-.373.36 0 .654.153.815.433.113.2.127.307.127.747v1.52h-.847zm-2.487 0c-.507 0-.74-.24-.74-.767v-1.28h-.36v-.573h.36v-.827h.854v.827h.488v.573h-.487v1.04c.008.387.034.407.36.407h.168v.6h-.64zm-2.594 0V15.78h-.373v-.573h.373v-.08c0-.693.26-.947.927-.947h.467v.58h-.14c-.32 0-.4.073-.4.367v.08h.507v.573h-.507v2.047h-.854zm-5.68 0V14.18h.906v2.927h1.54v.72H9.1z"/></symbol><symbol viewBox="0 0 32 32"><title>mail</title><path d="M5.333 4h21.333q1.656 0 2.828 1.172T30.666 8v16q0 1.656-1.172 2.828T26.666 28H5.333q-1.656 0-2.828-1.172T1.333 24V8q0-1.656 1.172-2.828T5.333 4zM28 24V9.437l-11.167 8.938q-.354.292-.833.292t-.833-.292L4 9.437V24q0 .552.39.943t.944.39h21.333q.552 0 .943-.39T28 24zM26.667 6.667H5.334q-.198 0-.438.073L16 15.625 27.104 6.74q-.24-.073-.438-.073z"/></symbol><symbol viewBox="0 0 32 32"><title>overcast</title><path d="M25 10c-.332 0-.66.023-.987.07C22.146 7.526 19.2 6 16 6s-6.145 1.526-8.013 4.07C7.66 10.023 7.332 10 7 10c-3.86 0-7 3.14-7 7s3.14 7 7 7c.856 0 1.693-.156 2.482-.458C11.292 25.12 13.594 26 16 26c2.41 0 4.708-.88 6.518-2.458.79.302 1.626.458 2.482.458 3.86 0 7-3.14 7-7s-3.14-7-7-7zm0 12c-1.07 0-2.057-.344-2.87-.917C20.66 22.85 18.476 24 16 24s-4.662-1.148-6.13-2.917C9.06 21.656 8.07 22 7 22c-2.762 0-5-2.238-5-5s2.238-5 5-5c.676 0 1.316.138 1.902.38C10.23 9.792 12.892 8 16 8s5.77 1.792 7.096 4.38c.587-.242 1.23-.38 1.904-.38 2.762 0 5 2.238 5 5s-2.238 5-5 5z"/></symbol><symbol viewBox="0 0 32 32"><title>phone</title><path d="M24 0H8C6.342 0 5 1.343 5 3v26c0 1.658 1.343 3 3 3h16c1.656 0 3-1.344 3-3V3c0-1.658-1.344-3-3-3zm1 29c0 .55-.45 1-1 1H8c-.552 0-1-.447-1-1v-2.004h18V29zm0-3.004H7V6h18v19.996zM25 5H7V3c0-.552.448-1 1-1h16c.55 0 1 .448 1 1v2zm-7-1.5c0 .276-.225.5-.5.5h-3c-.277 0-.5-.224-.5-.5 0-.277.223-.5.5-.5h3c.275 0 .5.223.5.5zm-1 24.996c0 .275-.225.5-.5.5h-1c-.276 0-.5-.225-.5-.5 0-.277.224-.5.5-.5h1c.275 0 .5.223.5.5z"/></symbol><symbol viewBox="0 0 32 32"><title>skype</title><path d="M20.946 18.982q0-.893-.348-1.634t-.866-1.223-1.304-.875-1.473-.607-1.563-.41l-1.857-.43q-.536-.125-.786-.188t-.626-.205-.536-.286-.295-.375-.134-.537q0-1.375 2.57-1.375.768 0 1.375.214t.964.51.678.597.714.517.857.214q.838 0 1.347-.57t.51-1.375q0-.982-1-1.777T16.64 7.963t-3.25-.41q-1.214 0-2.357.276T8.9 8.667t-1.59 1.554-.598 2.295q0 1.09.34 1.902t1 1.347 1.428.866 1.84.58l2.606.643q1.607.393 2 .643.57.356.57 1.07 0 .696-.713 1.152t-1.875.455q-.91 0-1.634-.286t-1.16-.687-.814-.804-.82-.69-.965-.285q-.893 0-1.348.536t-.455 1.34q0 1.643 2.18 2.813t5.195 1.17q1.304 0 2.5-.33t2.188-.955 1.58-1.67.59-2.348zm6.483 3.875q0 2.84-2.01 4.848t-4.848 2.01q-2.32 0-4.18-1.43-1.374.286-2.678.286-2.554 0-4.884-.99T4.812 24.9t-2.68-4.017T1.143 16q0-1.305.286-2.68-1.43-1.857-1.43-4.18 0-2.838 2.01-4.847t4.848-2.01q2.32 0 4.18 1.43 1.374-.286 2.678-.286 2.554 0 4.884.99t4.018 2.68 2.68 4.018.99 4.884q0 1.303-.286 2.678 1.43 1.857 1.43 4.18z"/></symbol><symbol viewBox="0 0 32 32"><title>village-roadshow-logo</title><path d="M14.97 13.566c-.007.02-.014.038-.025.05-.01.015-.025.024-.047.03s-.054.01-.09.014c-.04.002-.09.002-.152.002h-.126s-.067-.002-.09-.005c-.026-.003-.045-.007-.062-.012-.015-.005-.027-.01-.037-.018s-.02-.016-.025-.026c-.006-.01-.01-.024-.015-.04l-.715-2.13c-.015-.045-.025-.08-.028-.107s.003-.044.02-.06c.015-.01.04-.02.078-.023s.09-.005.157-.005c.056 0 .1 0 .133.003s.057.007.074.012c.016.007.028.016.035.03s.014.025.02.044l.585 1.855h.002l.574-1.846c.005-.02.01-.038.018-.052.007-.012.02-.024.038-.03.018-.008.044-.01.076-.015.035-.002.08-.003.138-.003s.1.002.134.006c.032.002.053.012.064.026.012.015.016.034.012.062-.005.025-.015.06-.03.103l-.716 2.134zM16.36 13.583c0 .012-.003.025-.01.034s-.02.018-.04.024c-.02.01-.045.013-.074.017-.032.003-.07.006-.12.006-.047 0-.086-.002-.117-.006-.034-.003-.058-.008-.077-.016-.018-.005-.033-.013-.04-.023s-.012-.02-.012-.034v-2.27c0-.012.004-.023.012-.033s.023-.02.04-.025c.02-.006.046-.01.077-.015.03-.003.07-.005.116-.005.05 0 .088 0 .12.005.03.003.055.01.074.015s.032.014.04.025c.007.01.01.02.01.033v2.27zM18.054 13.447c0 .038-.002.07-.005.094-.004.028-.01.047-.015.065-.008.017-.015.028-.024.035-.01.01-.02.012-.032.012h-1.102c-.04 0-.074-.014-.104-.036-.028-.025-.042-.063-.042-.118v-2.184c0-.01.005-.02.012-.032s.02-.02.04-.026c.018-.006.043-.01.076-.014.03-.003.07-.005.116-.005.05 0 .09 0 .12.005.03.002.056.008.074.014s.033.016.04.026c.008.01.012.02.012.032v1.936h.757c.012 0 .023.002.033.01.01.006.016.017.024.033.006.016.01.036.014.06.002.027.005.058.005.095zM19.51 13.447c0 .038-.002.07-.006.094-.003.028-.008.047-.014.065-.006.017-.014.028-.023.035-.01.01-.02.012-.033.012h-1.102c-.04 0-.076-.014-.104-.036-.027-.025-.042-.063-.042-.118v-2.184c0-.01.005-.02.012-.032s.02-.02.04-.026c.02-.006.044-.01.075-.014s.07-.005.118-.005c.05 0 .09 0 .12.005.03.002.055.008.073.014s.032.016.04.026c.01.01.012.02.012.032v1.936h.757c.01 0 .024.002.033.01s.017.017.023.033.01.036.014.06c.003.027.005.058.005.095zM21.872 13.575c-.003-.026-.014-.06-.027-.105l-.744-2.132c-.006-.024-.015-.042-.026-.055-.01-.015-.027-.024-.052-.03s-.06-.01-.1-.012l-.176-.002c-.063 0-.113 0-.152.003-.038.002-.068.007-.09.013s-.037.016-.047.03c-.01.012-.018.028-.025.05l-.742 2.133c-.015.044-.024.078-.027.105-.003.026 0 .047.012.06s.035.025.067.028c.033.003.077.006.134.006.053 0 .096 0 .13-.003s.058-.006.077-.014c.017-.007.03-.017.037-.028s.016-.027.02-.043l.152-.47h.903l.16.483c.004.017.013.03.02.038.007.01.02.018.04.025.017.006.042.01.08.01.034.003.084.004.146.004s.11 0 .145-.006c.034-.002.06-.01.072-.024s.018-.032.015-.06zm-1.474-.847l.34-1.022.342 1.022h-.682zM23.88 11.62c0 .037-.002.068-.006.093s-.007.047-.012.063c-.007.015-.014.027-.02.033s-.018.007-.03.007c-.016 0-.04-.01-.077-.034-.037-.02-.085-.046-.143-.07-.06-.028-.13-.052-.214-.074-.08-.022-.176-.034-.285-.034-.117 0-.222.02-.316.06-.095.042-.175.098-.24.17-.07.074-.12.163-.157.266s-.054.22-.054.343c0 .138.02.26.055.364.037.103.09.19.155.262s.143.123.237.16c.092.034.193.053.304.053.054 0 .108-.006.162-.02.054-.01.103-.03.15-.054v-.555h-.457c-.023 0-.038-.015-.05-.043s-.02-.076-.02-.14c0-.037.002-.066.004-.09.003-.024.008-.042.015-.056.005-.015.01-.025.02-.032s.02-.01.03-.01h.81c.02 0 .04.003.055.01s.03.017.04.032c.01.012.022.03.027.05s.01.04.01.066v.956c0 .037-.007.07-.02.097-.013.028-.04.05-.08.067-.04.016-.09.032-.15.05-.06.017-.122.033-.184.045-.065.012-.13.02-.194.027-.065.007-.13.01-.195.01-.194 0-.366-.027-.516-.082-.152-.055-.28-.135-.387-.24s-.185-.23-.24-.382c-.058-.15-.085-.32-.085-.512 0-.196.03-.373.09-.53.06-.158.143-.29.25-.4.11-.11.24-.193.395-.25.157-.058.327-.09.516-.09.104 0 .2.01.285.024.085.014.16.03.223.05.064.02.118.045.16.068.042.024.07.044.088.062s.03.04.036.073c.008.032.01.078.01.14zm1.692 1.84c0 .035-.002.067-.006.09-.003.024-.008.043-.015.058-.005.015-.01.026-.022.033-.01.01-.02.012-.03.012H24.29c-.04 0-.076-.014-.1-.037-.03-.025-.044-.064-.044-.118V11.4c0-.053.014-.093.043-.116.025-.025.06-.036.1-.036h1.2c.01 0 .02.003.03.01.01.007.016.016.023.032.006.016.01.036.014.06.003.025.005.055.005.093 0 .034 0 .064-.005.088s-.008.045-.014.058c-.007.015-.014.027-.023.034-.01.006-.02.01-.03.01h-.857v.585h.725c.01 0 .023.005.032.012s.017.016.024.03c.005.014.01.033.014.056s.005.054.005.088c0 .036 0 .067-.005.09-.002.023-.01.042-.014.055-.007.014-.015.025-.024.03s-.02.01-.032.01h-.725v.68h.865c.01 0 .02.002.03.01.01.006.017.016.023.03.008.017.012.035.016.06.003.025.006.054.006.09zm-10.645 2.047c0-.08-.02-.145-.054-.2-.036-.056-.095-.095-.177-.116-.025-.006-.053-.01-.085-.014s-.075-.006-.13-.006h-.22v.68h.25c.068 0 .13-.007.182-.024.052-.016.095-.04.13-.07.035-.03.06-.068.078-.11s.027-.088.027-.14zm.63 1.63c0 .013-.003.025-.01.036-.004.008-.016.016-.035.02-.017.008-.045.01-.08.015-.036.002-.087.005-.148.005-.052 0-.094-.002-.124-.005-.032-.003-.056-.008-.074-.014-.017-.008-.03-.016-.037-.026s-.015-.024-.02-.038l-.215-.538c-.026-.06-.05-.114-.076-.16-.026-.05-.053-.087-.084-.118-.03-.032-.064-.056-.105-.072-.038-.015-.084-.024-.135-.024h-.152v.916c0 .01-.006.024-.014.034s-.02.018-.04.024c-.02.007-.043.01-.073.016-.032.002-.07.006-.12.006-.046 0-.086-.003-.118-.006-.033-.005-.057-.01-.075-.016s-.032-.014-.04-.024-.01-.023-.01-.034V14.95c0-.053.015-.093.04-.117.03-.023.065-.035.105-.035h.624c.063 0 .114 0 .156.003l.11.01c.098.014.186.037.263.07.077.034.144.078.198.132s.095.117.123.19c.03.075.043.16.043.255 0 .08-.01.153-.03.22-.022.065-.05.125-.09.177s-.088.097-.145.136c-.06.038-.124.068-.2.092.037.016.07.038.103.062.03.026.06.055.088.09.03.036.056.077.08.12.026.046.05.1.073.155l.203.473c.017.047.03.08.036.103.008.02.01.04.01.052zM17.853 15.43c-.047-.153-.118-.28-.21-.38-.095-.1-.212-.175-.352-.223-.137-.05-.3-.072-.48-.072-.19 0-.36.028-.502.087-.144.06-.266.143-.364.25s-.17.242-.22.397c-.05.156-.074.33-.074.524 0 .212.023.396.068.55.047.154.117.282.21.382s.21.175.348.224c.14.05.302.073.49.073s.356-.028.5-.087c.144-.058.265-.14.364-.25.098-.11.17-.245.22-.4.05-.158.074-.336.074-.537 0-.208-.024-.39-.07-.54zm-.473.893c-.02.103-.054.192-.105.268-.05.078-.114.137-.194.183-.08.045-.18.068-.3.068s-.22-.02-.3-.058c-.078-.038-.142-.096-.19-.17-.046-.075-.08-.164-.1-.27-.018-.103-.028-.22-.028-.353 0-.114.01-.22.03-.32.02-.102.055-.19.106-.266.05-.074.114-.135.195-.18.08-.045.18-.07.3-.07.118 0 .22.022.298.063.08.038.143.097.192.17.047.073.08.162.1.266.02.103.03.218.03.344 0 .115-.01.223-.032.326zM20.18 17.126c-.003-.027-.012-.063-.027-.107l-.743-2.13c-.008-.026-.017-.044-.028-.058-.01-.012-.027-.023-.052-.03-.023-.006-.058-.01-.1-.01-.044-.004-.1-.006-.174-.006-.064 0-.115 0-.153.005-.04.002-.07.007-.09.013s-.037.017-.05.03c-.008.013-.016.03-.024.05l-.742 2.132c-.016.044-.025.08-.028.106-.003.026 0 .047.012.06.012.015.035.024.067.028.032.002.077.006.133.006.053 0 .095-.002.13-.005.033-.003.058-.008.077-.015.017-.007.03-.016.038-.027.008-.014.015-.027.02-.044l.15-.47h.904l.16.483c.008.016.013.03.02.04.008.01.02.016.04.022.017.005.045.008.078.01.036 0 .086.003.15.003.06 0 .107-.002.142-.006.034-.002.06-.01.073-.024.012-.012.018-.033.014-.058zm-1.472-.848l.34-1.023.342 1.023h-.682zM22.254 15.462c-.053-.147-.13-.267-.233-.366-.1-.1-.227-.175-.376-.224s-.33-.073-.547-.073h-.615c-.042 0-.077.01-.105.033-.027.025-.04.065-.04.12v2.096c0 .053.013.09.04.115.028.026.063.036.105.036h.574c.212 0 .396-.02.55-.067.153-.047.285-.12.393-.22.107-.097.188-.227.247-.382.058-.156.087-.345.087-.565 0-.19-.027-.357-.08-.502zm-.47.882c-.03.103-.077.192-.14.262-.06.07-.137.122-.228.157s-.204.052-.338.052h-.255V15.18h.248c.15 0 .272.02.364.06.092.04.167.097.226.17.06.07.1.154.13.254.026.097.04.203.04.318 0 .138-.015.26-.046.363zM24.008 16.48c0 .126-.025.238-.07.333s-.11.175-.193.24c-.08.063-.174.11-.283.14-.107.036-.22.05-.345.05-.082 0-.16-.006-.23-.018-.072-.016-.135-.03-.19-.05-.054-.02-.1-.04-.137-.06-.035-.022-.062-.042-.078-.057-.017-.016-.028-.04-.035-.07-.006-.028-.01-.074-.01-.13 0-.04 0-.07.004-.097.003-.026.007-.046.012-.063.006-.016.012-.026.024-.033.008-.008.02-.01.03-.01.018 0 .043.01.074.03.032.02.07.042.122.067.05.026.11.048.177.07.067.022.148.03.238.03.06 0 .113-.007.16-.022.046-.012.087-.032.12-.06.034-.026.058-.06.076-.097.017-.036.025-.08.025-.128 0-.053-.015-.1-.045-.14-.03-.037-.068-.072-.115-.105-.048-.03-.103-.06-.163-.085-.06-.025-.122-.055-.188-.083-.064-.03-.127-.066-.188-.1-.06-.04-.115-.086-.162-.137s-.087-.115-.117-.187c-.028-.072-.043-.158-.043-.26 0-.113.02-.214.063-.302.043-.087.1-.16.174-.216.072-.057.157-.1.256-.13s.203-.042.313-.042c.058 0 .114.005.17.012s.11.02.16.035c.05.015.093.032.13.052.04.017.066.033.078.045s.02.02.025.033c.004.007.008.02.01.032.003.016.007.035.008.054V15.19c-.003.026-.007.046-.01.06-.006.02-.012.03-.02.038s-.018.012-.033.012c-.014 0-.034-.01-.064-.027-.028-.018-.066-.037-.108-.057s-.094-.037-.15-.055c-.058-.016-.12-.023-.188-.023-.053 0-.1.005-.14.02-.04.01-.072.03-.098.053-.028.02-.047.05-.06.08-.013.034-.02.068-.02.105 0 .052.015.1.044.136.03.042.068.077.116.106.05.03.106.06.167.085.062.03.126.056.19.087.064.032.128.062.19.1.06.038.116.083.163.135.05.053.088.115.117.187.03.07.046.153.046.25zM26.105 17.134c0 .01-.003.024-.01.034-.01.01-.022.018-.04.024s-.044.01-.076.015c-.03.003-.07.005-.117.005-.05 0-.09 0-.12-.005s-.057-.01-.075-.015c-.018-.006-.03-.014-.038-.024s-.012-.023-.012-.034v-.972h-.9v.972c0 .01-.002.024-.01.034-.008.01-.02.018-.04.024s-.042.01-.073.015-.07.005-.118.005c-.047 0-.086 0-.118-.005s-.057-.01-.077-.015c-.018-.006-.032-.014-.04-.024s-.01-.023-.01-.034v-2.27c0-.012.002-.024.01-.034.01-.01.022-.018.04-.024.02-.007.044-.01.076-.015.032-.002.07-.006.117-.006.05 0 .087.003.118.007s.055.01.074.016c.017.006.03.014.037.024.01.01.012.02.012.034v.883h.898v-.883c0-.012.005-.024.012-.034s.02-.018.038-.024c.018-.007.043-.01.074-.015s.072-.006.12-.006.087.003.117.007c.03.004.055.01.075.016.018.006.03.014.04.024.007.01.01.02.01.034v2.27zM28.568 15.43c-.047-.153-.12-.28-.212-.38-.094-.1-.21-.175-.35-.223s-.3-.072-.48-.072c-.193 0-.36.028-.504.087s-.265.143-.364.25c-.096.11-.17.242-.22.397-.05.156-.076.33-.076.524 0 .212.024.396.07.55.047.154.116.282.21.382.092.1.21.175.35.224.14.05.3.073.488.073.19 0 .356-.028.5-.087.144-.058.267-.14.364-.25.098-.11.17-.245.22-.4s.074-.336.074-.537c0-.208-.023-.39-.07-.54zm-.472.893c-.02.103-.054.192-.105.268-.048.078-.114.137-.193.183-.08.045-.182.068-.302.068s-.22-.02-.3-.058c-.08-.038-.14-.096-.188-.17-.047-.075-.08-.164-.1-.27-.02-.103-.03-.22-.03-.353 0-.114.01-.22.032-.32.02-.102.054-.19.104-.266.05-.074.114-.135.194-.18.08-.045.182-.07.3-.07s.22.022.3.063c.078.038.142.097.19.17.048.073.08.162.1.266s.03.218.03.344c0 .115-.01.223-.03.326zM31.43 17.076c-.01.03-.02.054-.033.07-.012.02-.032.033-.06.043-.025.007-.058.014-.1.017-.04.002-.09.003-.153.003-.072 0-.127 0-.17-.003-.043-.003-.078-.01-.102-.018-.024-.01-.042-.024-.053-.044-.01-.016-.02-.04-.027-.07l-.386-1.523h-.003l-.364 1.523c-.006.028-.015.052-.025.07-.01.017-.03.032-.053.04-.025.01-.056.018-.1.02-.04.003-.095.004-.164.004-.07 0-.13 0-.17-.003-.044-.003-.078-.01-.102-.018-.025-.01-.042-.024-.054-.044-.01-.016-.02-.04-.027-.07l-.547-2.097c-.01-.045-.017-.08-.018-.107s.006-.045.02-.06c.017-.01.042-.02.077-.023.036-.005.086-.006.148-.006.06 0 .105 0 .14.005.034 0 .06.005.077.01.017.008.028.017.035.03.005.013.01.03.015.054l.42 1.84h.003l.44-1.827c.005-.025.01-.043.018-.057.01-.016.023-.027.042-.035.018-.008.045-.012.08-.016.032-.006.077-.007.132-.007.06 0 .108 0 .142.005.034.002.062.008.08.016s.035.02.043.035c.01.013.016.032.02.058l.453 1.828h.005l.422-1.836c.005-.02.01-.037.016-.05.006-.016.018-.027.035-.035s.042-.012.074-.016c.033-.006.078-.007.135-.007.055 0 .096 0 .127.006.03.002.052.01.066.023s.02.035.017.06c0 .028-.008.064-.018.11l-.552 2.092zM15.378 18.81c-.026-.078-.067-.147-.118-.204-.052-.06-.116-.107-.188-.147-.074-.04-.147-.066-.22-.08s-.133-.023-.184-.028c-.052-.005-.106-.007-.162-.007h-.567c-.05 0-.09.016-.12.045-.03.028-.047.073-.047.13v2.164c0 .012.003.024.012.033.007.01.02.02.038.025s.043.01.076.014c.03.005.07.007.117.007s.087-.002.118-.007c.03-.002.055-.008.074-.014s.03-.015.038-.025c.008-.01.012-.02.012-.033v-.768h.2c.16 0 .296-.018.415-.055.116-.037.215-.09.295-.16.08-.073.142-.16.185-.265.042-.104.063-.222.063-.357 0-.098-.014-.186-.042-.266zm-.496.473c-.017.052-.043.098-.076.135s-.076.068-.13.09c-.053.02-.117.03-.196.03h-.22v-.816h.21c.05 0 .1.003.147.01s.094.024.135.05c.045.026.08.066.11.12.03.055.046.125.046.208 0 .063-.01.12-.026.173zM16.136 20.683c0 .012-.003.024-.01.033-.01.01-.024.02-.042.025s-.044.012-.076.016c-.03.003-.07.006-.118.006-.046 0-.086-.002-.117-.006s-.057-.01-.076-.015-.033-.014-.04-.024c-.008-.01-.01-.02-.01-.033v-2.27c0-.012.002-.025.01-.034.008-.01.022-.02.042-.025.017-.008.043-.012.073-.016.032-.004.07-.007.117-.007.05 0 .09.002.118.006.032.002.056.007.076.015.018.006.03.014.04.024.01.008.012.02.012.033v2.27zM18.17 20.386c0 .032 0 .058-.002.08s-.006.04-.01.055c-.003.016-.01.03-.015.04s-.016.023-.03.038c-.013.014-.038.033-.078.055-.038.02-.087.043-.143.063-.055.02-.12.038-.193.05-.073.017-.152.022-.237.022-.165 0-.313-.026-.447-.076-.13-.052-.245-.126-.337-.23-.093-.1-.166-.226-.214-.378-.05-.15-.076-.325-.076-.527 0-.204.028-.386.083-.544.053-.16.13-.292.228-.4s.216-.19.353-.246c.138-.055.288-.082.452-.082.067 0 .133.006.194.017s.117.024.17.044c.053.017.1.038.142.06.042.026.072.045.088.062.018.018.028.032.035.04.007.013.01.027.015.045.003.018.007.037.008.06.003.025.003.054.003.088 0 .04 0 .07-.004.097-.002.026-.007.046-.012.063-.006.016-.014.027-.02.035-.01.008-.02.012-.03.012-.02 0-.044-.012-.072-.034s-.065-.046-.11-.073c-.045-.026-.1-.05-.16-.072s-.14-.032-.224-.032c-.096 0-.18.02-.255.058-.076.04-.14.095-.192.168-.052.072-.093.16-.12.263-.027.104-.04.22-.04.347 0 .14.015.264.043.366.03.105.07.188.125.256.054.067.118.117.195.15.077.033.16.05.257.05.087 0 .16-.01.226-.03.062-.02.117-.043.162-.07.045-.024.08-.046.112-.066.03-.02.05-.03.067-.03.014 0 .024.003.03.008s.012.015.018.03c.007.014.01.034.012.06.002.028.003.063.003.108zM20.196 18.547c0 .035 0 .067-.005.092s-.006.044-.013.06c-.007.015-.014.026-.024.035-.01.007-.02.01-.03.01h-.602v1.938c0 .012-.002.023-.01.033-.008.01-.022.02-.04.025s-.044.012-.074.016c-.032.003-.072.006-.118.006-.047 0-.087-.002-.117-.006-.032-.003-.058-.01-.075-.015-.02-.005-.034-.014-.04-.024s-.013-.02-.013-.033v-1.937h-.602c-.012 0-.02-.005-.03-.01-.01-.01-.017-.02-.023-.036-.007-.016-.01-.037-.015-.06-.002-.027-.005-.06-.005-.093 0-.037.002-.07.005-.095s.008-.046.015-.062c.006-.016.014-.027.023-.033.01-.01.018-.01.03-.01h1.695c.01 0 .02 0 .03.01.01.006.017.017.024.033s.01.036.013.062c.003.026.005.058.005.095zM22.367 19.855c0 .148-.02.28-.064.396-.043.117-.108.215-.192.298-.084.08-.186.14-.31.184-.124.04-.267.062-.428.062-.15 0-.286-.02-.406-.056-.122-.038-.222-.095-.306-.17-.083-.08-.147-.175-.19-.29-.045-.114-.066-.247-.066-.4v-1.462c0-.012.005-.025.01-.034.008-.01.02-.018.04-.024.02-.008.045-.012.074-.015.032-.005.072-.007.12-.007s.087.002.117.007c.032.002.058.007.074.015.018.006.032.014.04.024s.01.02.01.034v1.42c0 .095.012.177.037.247.023.07.056.13.1.175s.097.08.158.103c.06.024.13.035.205.035.077 0 .147-.01.206-.034.06-.024.113-.06.154-.104.043-.044.074-.1.097-.167.024-.066.035-.142.035-.227v-1.447c0-.012.003-.025.01-.034.008-.01.023-.018.04-.024.018-.008.044-.012.074-.015.033-.005.072-.007.12-.007.046 0 .086.002.115.007.03.002.057.007.075.015.018.006.032.014.04.024.006.01.01.02.01.034v1.44zM24.433 20.636c-.006-.023-.018-.056-.036-.104l-.203-.474c-.023-.058-.047-.107-.072-.153s-.05-.086-.08-.12c-.026-.036-.057-.067-.09-.09-.03-.026-.063-.047-.1-.065.075-.023.14-.053.2-.092.06-.037.108-.082.148-.134.038-.052.07-.113.09-.177.02-.068.03-.14.03-.22 0-.097-.014-.18-.042-.255s-.07-.138-.123-.19c-.055-.055-.12-.1-.198-.133s-.163-.057-.26-.07c-.034-.004-.07-.01-.11-.01-.042-.003-.094-.006-.157-.006h-.622c-.042 0-.074.014-.104.037-.028.025-.042.064-.042.12v2.182c0 .012.005.024.012.033.007.01.02.02.038.025s.043.01.076.014c.032.005.07.007.117.007.05 0 .087 0 .12-.006.03-.002.056-.008.073-.014.02-.006.033-.015.04-.025s.013-.02.013-.033v-.917h.153c.052 0 .098.008.14.025.036.016.072.04.103.07.03.033.058.073.08.12.027.046.053.1.08.16l.214.537c.005.016.01.028.018.038s.02.02.038.027c.018.006.043.01.073.012.03.003.07.005.124.005.06 0 .11-.002.147-.006.037-.002.064-.007.082-.01.018-.008.032-.016.036-.026s.007-.02.007-.034c0-.012-.002-.03-.01-.05zm-.646-1.44c-.017.043-.043.08-.078.11-.035.028-.08.053-.13.07-.053.016-.114.025-.183.025h-.25v-.68h.22c.055 0 .1 0 .13.005s.06.01.087.016c.08.022.14.06.175.115.035.055.054.122.054.2 0 .053-.01.1-.027.142zM26.075 20.558c0 .036-.002.065-.005.09s-.007.044-.014.06c-.008.014-.015.025-.024.032s-.02.01-.032.01h-1.206c-.04 0-.074-.012-.103-.036s-.042-.063-.042-.118V18.5c0-.054.014-.094.043-.117.03-.024.063-.036.104-.036h1.2c.013 0 .022.002.03.01.01.006.017.017.022.03.007.018.012.037.015.06.004.026.006.057.006.093s0 .065-.005.088c0 .025-.007.044-.014.06-.006.014-.014.025-.02.032-.01.007-.02.01-.033.01h-.857v.587h.726c.012 0 .023.003.03.01.01.007.018.018.025.032s.01.032.014.057c.003.024.006.054.006.09s-.002.063-.005.088c-.002.023-.007.042-.013.056-.007.015-.015.025-.025.03-.008.008-.018.01-.03.01h-.726v.68H26c.013 0 .024 0 .033.008s.016.018.024.034c.007.014.01.033.014.058.003.025.006.053.006.09zM27.855 20.03c0 .125-.024.237-.07.332-.047.096-.11.175-.192.24-.08.062-.174.11-.282.143s-.222.05-.345.05c-.082 0-.16-.01-.23-.022s-.134-.03-.19-.05c-.053-.018-.1-.038-.135-.06-.037-.02-.063-.04-.08-.055-.016-.016-.027-.04-.033-.07-.007-.03-.012-.074-.012-.13 0-.04.003-.072.006-.098s.008-.047.012-.064c.007-.016.014-.026.023-.033.008-.008.02-.01.033-.01.017 0 .042.01.073.03.033.02.073.043.123.068.05.027.108.048.177.07.068.02.15.03.24.03.06 0 .112-.008.158-.02.047-.015.088-.036.12-.06.034-.028.06-.06.075-.097.018-.04.027-.082.027-.13 0-.054-.015-.1-.044-.14-.03-.04-.07-.073-.116-.104-.05-.033-.103-.06-.163-.087s-.124-.055-.188-.086c-.064-.028-.128-.063-.188-.1s-.115-.082-.16-.136c-.05-.052-.088-.113-.118-.185-.03-.07-.045-.158-.045-.258 0-.115.022-.215.063-.303.044-.087.1-.16.173-.218.073-.058.16-.1.257-.13.098-.028.203-.044.312-.044.058 0 .115.007.173.015.056.01.11.02.158.035.05.015.094.032.132.05.04.02.064.035.078.048.01.012.02.02.025.03.004.008.008.02.01.035.004.014.007.032.01.053v.08c0 .038 0 .066-.003.092-.002.024-.006.045-.01.06-.004.017-.01.03-.018.037-.008.007-.02.01-.034.01-.012 0-.035-.008-.064-.026l-.11-.057c-.042-.02-.093-.038-.15-.055-.056-.016-.118-.025-.188-.025-.052 0-.1.007-.14.02-.037.013-.07.03-.098.053-.026.024-.046.05-.06.083s-.018.064-.018.102c0 .053.014.098.043.138.03.04.07.073.117.104.05.03.105.06.168.086s.124.055.19.086c.062.028.125.063.188.1.06.038.116.082.165.136s.087.114.117.184c.03.072.044.157.044.253zM8.39 14.41c.148 0 .34-.01.57-.027l-.6 1.01.006.015c.135.22.242.398.56.398.417 0 .493-.113.818-.715.326-.6 2.158-3.732 2.176-3.763l.02-.035h-.22l-.006.01c-.008.014-.866 1.45-1.256 2.154l-.067.123c-.296.542-.367.67-.83.67-.492 0-.715-.535-.72-.542l-1.38-2.405-.006-.01h-1.28L7.76 14.06c.002.002.177.35.627.35zM10.143 12.563c.395 0 .486-.136.822-.643l.043-.064c.07-.104.282-.514.29-.53l.018-.034H10.09l-.512.865.007.01c.13.213.238.396.558.396zM9.05 12.805c.13 0 .285-.006.465-.02l-.52.973.006.01c.137.225.248.373.544.373.39 0 .453-.105.76-.62l.057-.094c.35-.582 1.23-2.086 1.24-2.1l.018-.035h-.207l-.005.01c-.18.307-.302.505-.346.576-.057.09-.106.173-.15.245-.253.428-.32.544-.747.544-.49 0-.718-.528-.722-.536l-.032-.063c-.043-.076-.082-.15-.12-.22l-.298-.555H7.726l.643 1.145c0 .003.184.37.678.37zM7.758 15.926c.16 0 .37.007.622.018l-.648 1.072.01.01c.124.21.235.39.553.39.378 0 .445-.108.732-.572l.086-.14c.364-.585 3.118-5.332 3.146-5.378l.018-.035h-.232l-.006.01c-.018.034-1.81 3.192-2.194 3.82l-.147.245c-.26.434-.328.55-.754.55-.49 0-.714-.537-.716-.543l-2.333-4.08H4.64l2.49 4.263c.002.005.145.37.63.37zM6.542 20.502l-.067-.074c-.09-.115-5.17-9.043-5.22-9.133l-.007-.012h-1.25l5.25 9.06c0 .006.196.37.625.37.286 0 .633.017.887.03l.143.007.005-.045c-.09-.018-.177-.06-.26-.118-.038-.025-.073-.053-.106-.083zM12.677 11.292l-.006.01c-.038.065-3.704 6.4-4.09 7.027l-.15.243c-.257.433-.324.55-.75.55-.457 0-.65-.396-.713-.524l-.007-.015-.524-.933c-1.104-1.954-3.583-6.35-3.583-6.35l-.007-.01H1.623l4.267 7.47c0 .005.133.372.63.372.15 0 .343.006.573.018l-.628 1.087.007.01c.117.18.255.357.558.357.383 0 .454-.116.76-.598l.074-.117c.387-.608 4.93-8.49 4.976-8.57l.02-.034zM7.17 17.548c.152 0 .347.005.58.012-.102.17-.427.727-.626 1.067l-.007.012.007.01c.13.21.244.362.54.362.388 0 .45-.106.756-.615l.06-.1c.356-.586 4.037-6.91 4.074-6.972l.02-.035h-.21l-.006.01c-.027.048-2.736 4.715-3.146 5.433-.318.557-.586.794-.9.794-.488 0-.713-.534-.716-.542l-3.25-5.694H3.14l3.402 5.89c0 .002.188.368.627.368z"/></symbol><symbol viewBox="0 0 32 32"><title>western-union-logo</title><path d="M20.7 13.326l-.155-.013v.506l.14-.014c.097-.01.157-.033.203-.08.1-.1.113-.217.033-.31-.053-.063-.093-.08-.22-.09zM0 12.362v.163l1.188.015.11.826c.06.454.113.823.117.82s.057-.346.117-.76c.06-.412.117-.784.126-.825l.016-.074h1.358l.03.17c.015.095.066.443.113.774s.094.624.104.65c.01.028.067-.32.126-.772l.108-.822h.596c.55 0 .596.004.596.048 0 .026-.15.746-.335 1.6l-.334 1.553h-1.43l-.03-.198-.116-.83s-.096-.637-.105-.648-.07.36-.137.828l-.12.848h-.72c-.397 0-.722-.01-.722-.024S.508 15 .328 14.164C.148 13.333 0 12.623 0 12.59v-.062 7.112h31.967v-7.276H0zm7.906 2.914v.45H5.39v-3.2h2.46v.903H6.676v.245H7.77v.903H6.674v.246h1.23v.45zm3.72 2.116c0 .637-.01 1.18-.027 1.263-.088.46-.403.75-.937.858-.264.054-.92.055-1.167 0-.23-.05-.49-.173-.63-.3-.06-.055-.152-.182-.2-.282l-.09-.18-.016-2.477h1.315v1.06c0 .955.005 1.07.048 1.154.06.117.115.152.207.13.15-.04.155-.08.155-1.262v-1.082h1.34v1.118zm-.024-2.335c-.103.313-.35.54-.726.66-.198.065-.27.074-.7.08-.262.006-.54-.002-.62-.016-.31-.055-.628-.218-.76-.39-.098-.13-.17-.328-.194-.533l-.02-.17h.647c.632 0 .645.002.645.057 0 .08.073.21.135.244.1.053.22.033.305-.052.174-.174.09-.234-.605-.44-.72-.215-.858-.296-.98-.574-.11-.253-.097-.665.028-.91.128-.25.43-.446.806-.526.258-.055.883-.054 1.153.002.513.106.786.38.822.825l.013.17h-1.21v-.063c0-.094-.11-.183-.225-.183-.093 0-.24.085-.24.138 0 .068.142.137.446.217.677.176.893.265 1.077.445.178.172.24.338.24.65 0 .144-.017.31-.037.37zm.68-2.08v-.45h2.846v.903h-.766v2.298H13.05V13.43h-.767v-.45zm3.53 4.898v1.6H14.24l-.576-1.668-.014 1.668h-1.094v-3.2h1.582l.08.225c.045.124.173.487.284.805l.202.58.014-1.61h1.093v1.6zm2.298 0v1.6h-1.313v-3.2h1.313v1.6zm.3-2.6v.452h-2.516v-3.2h2.462v.902H17.18v.245h1.094v.903H17.18v.246h1.23v.45zm3.44 3.857c-.31.31-.646.426-1.234.424-.26 0-.412-.016-.558-.054-.276-.072-.455-.174-.652-.373-.305-.307-.428-.668-.428-1.255s.126-.95.436-1.262c.296-.297.65-.42 1.214-.42.567 0 .92.123 1.22.422.31.312.433.667.433 1.26 0 .596-.12.948-.43 1.257zm-.127-3.405h-.655l-.028-.103c-.015-.056-.053-.275-.084-.486-.064-.435-.094-.487-.294-.52l-.116-.02v1.127H19.26v-3.2h1.107c1.162 0 1.297.01 1.52.123.256.13.354.318.355.68 0 .134-.013.29-.03.347-.043.14-.17.288-.304.356l-.11.057.115.057c.198.098.246.215.315.773.024.196.068.453.097.57s.053.22.053.227-.295.01-.655.01zm4.677 2.148v1.6h-1.576l-.572-1.652-.014 1.652h-1.093v-3.2h1.58l.568 1.627.015-1.628H26.4v1.6zm0-3.748v1.6h-1.574l-.573-1.652-.014 1.652h-1.094v-3.2h1.58l.568 1.627.015-1.628H26.4v1.6zm1.313 1.846v3.53h-.492v-7.06h.493v3.53zm2.79.04v3.49h-.465v-6.977h.465v3.488zM20.436 17.23c-.168.33-.105 1.33.088 1.406.07.028.175.017.233-.024.18-.126.226-1.056.068-1.38-.09-.182-.296-.183-.39 0zM1.414 14.364c.008-.02.007-.043-.002-.052s-.016.007-.014.036c0 .032.008.038.017.017z"/></symbol></defs></svg>