<svg style="position: absolute; width: 0; height: 0; overflow: hidden;" version="1.1" xmlns="http://www.w3.org/2000/svg" xmlns:xlink="http://www.w3.org/1999/xlink">
<defs>
<symbol id="icon-mail" viewBox="0 0 24 24">
<title>mail</title>
<path d="M23 5.981c-0.012-1.644-1.35-2.981-3-2.981h-16c-1.65 0-2.988 1.331-3 2.981 0 0.012 0 0.019 0 0.031v11.988c0 1.656 1.344 3 3 3h16c1.656 0 3-1.344 3-3v-11.988c0-0.012 0-0.025 0-0.031zM4 5h16c0.394 0 0.731 0.225 0.894 0.556l-8.894 6.225-8.894-6.225c0.162-0.331 0.5-0.556 0.894-0.556zM20 19h-16c-0.55 0-1-0.45-1-1v-10.081l8.425 5.9c0.175 0.119 0.375 0.181 0.575 0.181s0.4-0.063 0.575-0.181l8.425-5.9v10.081c0 0.55-0.45 1-1 1z"></path>
</symbol>
<symbol id="icon-phone" viewBox="0 0 24 24">
<title>phone</title>
<path d="M20.356 13.894c0 0-0.006 0-0.006 0-0.888-0.119-1.75-0.338-2.506-0.631-0.344-0.131-0.706-0.2-1.075-0.2-0.788 0-1.531 0.3-2.094 0.85l-0.781 0.713c-1.806-1.162-3.356-2.725-4.537-4.563l0.719-0.719c0.556-0.563 0.869-1.313 0.869-2.112 0-0.356-0.063-0.725-0.169-0.987-0.325-0.85-0.544-1.725-0.669-2.675 0-0.006 0-0.006 0-0.012-0.213-1.462-1.488-2.562-2.969-2.562h-3.019c-1.65 0-3 1.35-3 3 0 0.106 0.006 0.2 0.019 0.363 0 0.006 0 0.012 0 0.019 0.356 3.231 1.481 6.375 3.262 9.094 1.581 2.456 3.713 4.587 6.175 6.169 2.744 1.8 5.819 2.9 9.131 3.269 0.006 0 0.012 0 0.019 0 0.094 0.006 0.188 0.012 0.281 0.012 1.656 0 3-1.344 3-3v-3c0-0.019 0-0.038 0-0.056-0.006-1.5-1.119-2.75-2.65-2.969zM8.919 7.012c0-0.006 0-0.006-0.006-0.012 0.006 0 0.006 0.006 0.006 0.012zM21 16.9c0 0.012 0 0.025 0 0.044v2.988c0 0.55-0.45 1-1 1-0.031 0-0.056 0-0.087-0.006-2.994-0.337-5.769-1.331-8.25-2.956 0 0-0.006-0.006-0.006-0.006-2.219-1.425-4.15-3.356-5.575-5.575 0 0 0-0.006-0.006-0.006-1.612-2.456-2.631-5.3-2.95-8.212-0.012-0.119-0.012-0.15-0.012-0.169 0-0.55 0.45-1 1-1h3c0.006 0 0.006 0 0.012 0h0.006c0.494 0 0.919 0.363 0.987 0.85 0.15 1.106 0.406 2.131 0.787 3.125 0 0.006 0.006 0.012 0.006 0.012 0.012 0.037 0.025 0.138 0.025 0.244 0 0.263-0.1 0.513-0.288 0.7l-1.269 1.269c-0.319 0.319-0.387 0.813-0.162 1.206 1.519 2.644 3.694 4.831 6.288 6.325 0.375 0.219 0.85 0.169 1.175-0.125l1.35-1.231c0.012-0.006 0.019-0.019 0.031-0.025 0.188-0.188 0.438-0.288 0.7-0.288 0.125 0 0.244 0.025 0.356 0.063 0.894 0.344 1.919 0.606 2.95 0.744 0.544 0.081 0.925 0.487 0.925 1 0.006 0.012 0.006 0.019 0.006 0.031z"></path>
</symbol>
<symbol id="icon-music" viewBox="0 0 24 28">
<title>music</title>
<path d="M24 3.5v17.5c0 2.203-3.297 3-5 3s-5-0.797-5-3 3.297-3 5-3c1.031 0 2.063 0.187 3 0.609v-8.391l-12 3.703v11.078c0 2.203-3.297 3-5 3s-5-0.797-5-3 3.297-3 5-3c1.031 0 2.063 0.187 3 0.609v-15.109c0-0.656 0.438-1.234 1.062-1.437l13-4c0.141-0.047 0.281-0.063 0.438-0.063 0.828 0 1.5 0.672 1.5 1.5z"></path>
</symbol>
<symbol id="icon-linkedin-square" viewBox="0 0 24 28">
<title>linkedin-square</title>
<path d="M3.703 22.094h3.609v-10.844h-3.609v10.844zM7.547 7.906c-0.016-1.062-0.781-1.875-2.016-1.875s-2.047 0.812-2.047 1.875c0 1.031 0.781 1.875 2 1.875h0.016c1.266 0 2.047-0.844 2.047-1.875zM16.688 22.094h3.609v-6.219c0-3.328-1.781-4.875-4.156-4.875-1.937 0-2.797 1.078-3.266 1.828h0.031v-1.578h-3.609s0.047 1.016 0 10.844v0h3.609v-6.062c0-0.313 0.016-0.641 0.109-0.875 0.266-0.641 0.859-1.313 1.859-1.313 1.297 0 1.813 0.984 1.813 2.453v5.797zM24 6.5v15c0 2.484-2.016 4.5-4.5 4.5h-15c-2.484 0-4.5-2.016-4.5-4.5v-15c0-2.484 2.016-4.5 4.5-4.5h15c2.484 0 4.5 2.016 4.5 4.5z"></path>
</symbol>
<symbol id="icon-github-alt" viewBox="0 0 26 28">
<title>github-alt</title>
<path d="M10 19c0 1.141-0.594 3-2 3s-2-1.859-2-3 0.594-3 2-3 2 1.859 2 3zM20 19c0 1.141-0.594 3-2 3s-2-1.859-2-3 0.594-3 2-3 2 1.859 2 3zM22.5 19c0-2.391-1.453-4.5-4-4.5-1.031 0-2.016 0.187-3.047 0.328-0.812 0.125-1.625 0.172-2.453 0.172s-1.641-0.047-2.453-0.172c-1.016-0.141-2.016-0.328-3.047-0.328-2.547 0-4 2.109-4 4.5 0 4.781 4.375 5.516 8.188 5.516h2.625c3.813 0 8.188-0.734 8.188-5.516zM26 16.25c0 1.734-0.172 3.578-0.953 5.172-2.063 4.172-7.734 4.578-11.797 4.578-4.125 0-10.141-0.359-12.281-4.578-0.797-1.578-0.969-3.437-0.969-5.172 0-2.281 0.625-4.438 2.125-6.188-0.281-0.859-0.422-1.766-0.422-2.656 0-1.172 0.266-2.344 0.797-3.406 2.469 0 4.047 1.078 5.922 2.547 1.578-0.375 3.203-0.547 4.828-0.547 1.469 0 2.953 0.156 4.375 0.5 1.859-1.453 3.437-2.5 5.875-2.5 0.531 1.062 0.797 2.234 0.797 3.406 0 0.891-0.141 1.781-0.422 2.625 1.5 1.766 2.125 3.938 2.125 6.219z"></path>
</symbol>
</defs>
</svg>
