<svg xmlns="http://www.w3.org/2000/svg" width="32" height="32" viewBox="0 0 32 32"><path fill="#444" d="M20.768 16.563c-.02-2.275 1.806-3.368 1.888-3.42-1.027-1.548-2.626-1.76-3.196-1.785-1.36-.142-2.655.824-3.344.824s-1.755-.803-2.883-.78c-1.484.022-2.85.886-3.615 2.253-1.54 2.75-.393 6.826 1.107 9.058.734 1.09 1.61 2.32 2.758 2.275 1.108-.045 1.526-.737 2.863-.737s1.713.738 2.884.716c1.19-.024 1.946-1.115 2.674-2.21.84-1.267 1.19-2.493 1.21-2.558-.027-.01-2.322-.917-2.346-3.637zM16.904 8.374c-.565.672-1.06 1.748-.926 2.78.98.08 1.98-.512 2.59-1.272.61-.76 1.023-1.818.91-2.87-.88.035-1.943.602-2.574 1.362z"/></svg>