<svg xmlns="http://www.w3.org/2000/svg" width="32" height="32" viewBox="0 0 32 32"><path fill="#444" d="M21.866 21.447c-3.117 3.12-8.193 3.12-11.313 0s-3.12-8.195 0-11.314c.826-.824 1.832-1.453 2.99-1.863.364-.128.767-.035 1.038.237.275.273.367.677.238 1.04-.784 2.21-.25 4.603 1.39 6.244 1.64 1.64 4.032 2.173 6.246 1.392.362-.13.767-.036 1.04.237.272.27.364.675.235 1.038-.41 1.157-1.04 2.164-1.864 2.99zm-9.9-9.9c-2.34 2.34-2.34 6.147 0 8.486 2.5 2.5 6.76 2.276 8.938-.51-2.247.14-4.46-.67-6.11-2.318s-2.457-3.86-2.317-6.108c-.18.14-.35.29-.51.45z"/></svg>