<svg xmlns="http://www.w3.org/2000/svg" width="32" height="32" viewBox="0 0 32 32"><path fill="#444" d="M27.19 16.385c.306-.227.614-.45.89-.725.826-.827 1.454-1.833 1.862-2.99.13-.363.038-.77-.236-1.04-.272-.273-.676-.366-1.04-.237-2.21.78-4.604.25-6.243-1.39-1.64-1.642-2.174-4.034-1.39-6.245.127-.363.035-.767-.238-1.04-.27-.27-.676-.365-1.04-.237-1.158.412-2.163 1.04-2.99 1.865-2.095 2.094-2.748 5.063-2.03 7.737-2.702.345-5.132 1.78-6.75 3.987-.327-.048-.655-.07-.987-.07-3.86 0-7 3.14-7 7s3.14 7 7 7c.856 0 1.693-.157 2.482-.46 1.81 1.58 4.112 2.46 6.518 2.46 2.41 0 4.708-.88 6.518-2.46.79.303 1.626.46 2.482.46 3.86 0 7-3.142 7-7 0-3.09-2.026-5.69-4.81-6.616zM18.183 5.76c.16-.16.33-.31.51-.452-.142 2.25.67 4.46 2.318 6.108 1.648 1.648 3.86 2.458 6.11 2.32-.863 1.098-2.05 1.782-3.32 2.073-1.712-2.173-4.226-3.54-6.998-3.763-.767-2.122-.318-4.59 1.38-6.288zM25 28c-1.07 0-2.057-.344-2.87-.917C20.66 28.85 18.476 30 16 30s-4.662-1.148-6.13-2.917C9.06 27.656 8.07 28 7 28c-2.762 0-5-2.238-5-5s2.238-5 5-5c.676 0 1.316.137 1.902.38 1.262-2.46 3.734-4.182 6.645-4.347.152-.01.3-.033.453-.033.807 0 1.582.126 2.313.35.987.3 1.887.793 2.668 1.427.747.605 1.372 1.348 1.864 2.18.083.142.177.274.253.422.587-.243 1.23-.38 1.904-.38 2.763 0 5 2.238 5 5s-2.237 5-5 5z"/></svg>