<svg xmlns="http://www.w3.org/2000/svg" width="32" height="32" viewBox="0 0 32 32"><path fill="#444" d="M13 4c.552 0 1-.448 1-1V1c0-.552-.448-1-1-1s-1 .448-1 1v2c0 .552.448 1 1 1zm7.777 2.635L22.19 5.22c.392-.39.392-1.022 0-1.413s-1.022-.39-1.413 0L19.363 5.22c-.39.392-.39 1.024 0 1.415s1.023.39 1.414 0zM1 14h2c.552 0 1-.448 1-1s-.448-1-1-1H1c-.552 0-1 .448-1 1s.448 1 1 1zm21-1c0 .552.448 1 1 1h2c.552 0 1-.448 1-1s-.448-1-1-1h-2c-.552 0-1 .448-1 1zM5.22 6.635c.392.39 1.025.39 1.415 0s.39-1.023 0-1.414L5.22 3.808c-.39-.39-1.022-.39-1.413 0s-.39 1.023 0 1.414L5.22 6.636zM25 16c-.332 0-.66.023-.987.07-1.048-1.43-2.445-2.52-4.03-3.22C19.904 9.063 16.81 6 13 6c-3.86 0-7 3.14-7 7 0 1.09.27 2.108.72 3.026C2.99 16.178 0 19.236 0 23c0 3.858 3.14 7 7 7 .856 0 1.693-.157 2.482-.46C11.292 31.12 13.594 32 16 32c2.41 0 4.708-.88 6.518-2.46.79.303 1.626.46 2.482.46 3.86 0 7-3.142 7-7s-3.14-7-7-7zM13 8c2.488 0 4.535 1.823 4.92 4.203C17.292 12.078 16.652 12 16 12c-2.87 0-5.53 1.238-7.398 3.328C8.232 14.63 8 13.846 8 13c0-2.762 2.238-5 5-5zm12 20c-1.07 0-2.057-.344-2.87-.917C20.66 28.85 18.476 30 16 30s-4.662-1.148-6.13-2.917C9.06 27.656 8.07 28 7 28c-2.762 0-5-2.238-5-5s2.238-5 5-5c.484 0 .94.09 1.383.22.176.05.354.09.52.16.273-.536.617-1.026 1-1.485C11.362 15.137 13.535 14 16 14c.634 0 1.24.09 1.83.232.66.156 1.283.393 1.864.706 1.456.773 2.65 1.97 3.404 3.44.587-.24 1.23-.378 1.904-.378 2.762 0 5 2.238 5 5s-2.238 5-5 5z"/></svg>