<svg xmlns="http://www.w3.org/2000/svg" width="32" height="32" viewBox="0 0 32 32"><path fill="#444" d="M9.95 16.822c.02-.04.054-.11.068-.144l.835-2.026.82 2.046c.015.034.042.09.062.137l-.102.02c-.233.063-.493.104-.76.104s-.514-.035-.774-.104c-.05-.014-.117-.034-.152-.034zm-8.496-3.088c.93 0 1.588.192 2 .555.492.43.738.998.738 1.71 0 .677-.24 1.24-.712 1.677-.41.39-1.08.595-2.026.595h-.3v-4.538h.3zm28.75.582c.465.452.69 1.02.69 1.684 0 .657-.232 1.218-.69 1.684-.46.46-1.014.69-1.664.69-1.308 0-2.348-1.074-2.348-2.374 0-.657.233-1.225.69-1.69.453-.46 1.014-.686 1.658-.686s1.198.233 1.663.692zm-11.027.397l.828-.712c-.712-.95-1.663-1.423-2.786-1.423-1.91 0-3.45 1.526-3.45 3.436 0 1.87 1.532 3.41 3.4 3.41.473 0 .925-.104 1.363-.302.425-.19.794-.458 1.096-.807.286-.322.47-.69.58-1.095.09-.335.145-.746.117-1.24l-.014-.197H17.33v1.05h1.833c-.048.41-.26.766-.63 1.06-.404.328-.863.486-1.376.486-.596 0-1.13-.246-1.622-.732-.445-.452-.67-.993-.67-1.622 0-.664.232-1.24.71-1.718.453-.46 1-.678 1.63-.678.808 0 1.444.37 1.972 1.088zM12.16 17.87l.61 1.45h1.204l-2.827-6.653H10.6L7.696 19.32h1.198l.637-1.478c.014-.04.02-.07.027-.096.026.014.068.027.115.048.356.137.78.212 1.198.212.41 0 .815-.082 1.054-.164.123-.04.164-.06.198-.082.007.027.027.09.034.11zM1.42 19.32c1.22 0 2.156-.274 2.786-.842.72-.643 1.08-1.465 1.08-2.47 0-1.048-.37-1.89-1.108-2.52-.623-.534-1.547-.8-2.745-.8H.016v6.632H1.42zm5.846-6.633H6.178v6.633h1.088v-6.633zm14.86 3.54h2.32v-1.04h-2.32v-1.452h2.526v-1.047h-3.614v6.633h3.62v-1.046h-2.532v-2.047zm3.984-2.643c-.678.664-1.013 1.478-1.013 2.423 0 1.91 1.54 3.416 3.443 3.416 1.91 0 3.443-1.5 3.443-3.416 0-.938-.342-1.74-1.006-2.416-.67-.677-1.486-1.012-2.437-1.012-.945 0-1.76.335-2.43 1.006z"/></svg>