<svg xmlns="http://www.w3.org/2000/svg" width="32" height="32" viewBox="0 0 32 32"><path fill="#444" d="M2.1 16c-.065-.323-.1-.658-.1-1 0-2.762 2.238-5 5-5 .676 0 1.316.138 1.902.38C10.23 7.792 12.892 6 16 6s5.77 1.792 7.096 4.38c.587-.242 1.23-.38 1.904-.38 2.762 0 5 2.238 5 5 0 .342-.035.677-.102 1h2c.05-.33.102-.658.102-1 0-3.86-3.14-7-7-7-.332 0-.66.023-.987.07C22.146 5.526 19.2 4 16 4S9.855 5.526 7.987 8.07C7.66 8.023 7.332 8 7 8c-3.86 0-7 3.14-7 7 0 .342.053.67.102 1h2zM31 18H1c-.552 0-1 .448-1 1s.448 1 1 1h30c.552 0 1-.448 1-1s-.448-1-1-1zm0 4H1c-.552 0-1 .448-1 1s.448 1 1 1h30c.552 0 1-.448 1-1s-.448-1-1-1zm0 4H1c-.552 0-1 .448-1 1s.448 1 1 1h30c.552 0 1-.448 1-1s-.448-1-1-1z"/></svg>