<svg xmlns="http://www.w3.org/2000/svg" width="32" height="32" viewBox="0 0 32 32"><path fill="#444" d="M11.43 21.714q0 .714-.224 1.464t-.768 1.357-1.295.607-1.295-.607-.768-1.357-.223-1.464.223-1.464.768-1.357 1.295-.607 1.295.607.768 1.357.223 1.464zm11.427 0q0 .714-.223 1.464t-.768 1.357-1.295.607-1.294-.607-.768-1.357-.223-1.464.223-1.464.768-1.357 1.295-.607 1.296.607.768 1.357.223 1.464zm2.857 0q0-2.143-1.232-3.643t-3.34-1.5q-.73 0-3.48.376-1.27.196-2.805.196t-2.804-.196Q9.34 16.57 8.57 16.57q-2.106 0-3.338 1.5T4 21.715q0 1.57.57 2.74t1.447 1.84 2.18 1.07 2.5.528 2.66.125h3q1.464 0 2.66-.125t2.5-.527 2.18-1.07 1.446-1.84.57-2.74zm4-3.143q0 3.697-1.09 5.912-.678 1.375-1.883 2.375t-2.517 1.536-3.036.848-3.063.394-2.982.08q-1.393 0-2.536-.054t-2.634-.223T7.25 28.9t-2.447-.92-2.16-1.445-1.537-2.054Q0 22.286 0 18.57q0-4.232 2.428-7.07-.482-1.465-.482-3.037 0-2.07.91-3.893 1.93 0 3.394.705T9.625 7.48q2.625-.625 5.518-.625 2.643 0 5 .57 1.875-1.463 3.34-2.16t3.374-.696q.91 1.82.91 3.892 0 1.554-.48 3 2.428 2.857 2.428 7.107z"/></svg>