<svg xmlns="http://www.w3.org/2000/svg" width="32" height="32" viewBox="0 0 32 32"><path fill="#444" d="M20.378 27.73l-1.125-.648c.034-.195.06-.394.06-.602s-.026-.406-.063-.602l1.128-.65c.526-.307.706-.983.404-1.506-.305-.53-.98-.71-1.508-.406l-1.137.656c-.305-.26-.648-.462-1.03-.6v-1.306c0-.61-.497-1.105-1.106-1.105s-1.103.496-1.103 1.106v1.305c-.383.138-.728.343-1.033.603l-1.134-.656c-.53-.305-1.206-.125-1.51.405-.305.526-.12 1.203.406 1.508l1.122.648c-.037.197-.06.396-.06.603s.023.407.06.603l-1.122.648c-.53.306-.71.985-.406 1.513s.98.707 1.508.402l1.135-.652c.305.258.65.46 1.034.598v1.31c0 .61.495 1.102 1.104 1.102s1.106-.492 1.106-1.102v-1.31c.383-.136.73-.34 1.033-.6l1.134.655c.53.305 1.203.125 1.508-.402s.125-1.203-.404-1.512zM16 27.586c-.61 0-1.105-.496-1.105-1.105S15.39 25.38 16 25.38s1.104.494 1.104 1.103-.495 1.106-1.104 1.106zm13.635-2.82l-.755-.2c-.018-.24-.076-.468-.18-.687l.547-.55c.258-.257.256-.673 0-.927-.255-.256-.67-.258-.927 0l-.55.547c-.215-.102-.446-.16-.684-.18l-.2-.754c-.095-.35-.454-.56-.806-.465-.35.096-.555.455-.464.806l.2.744c-.098.068-.192.143-.28.23-.086.088-.16.18-.227.278l-.745-.2c-.35-.095-.712.116-.806.464-.095.352.116.71.463.805l.75.202c.02.235.08.465.186.684l-.552.55c-.255.257-.254.672.003.927.256.256.67.26.925.004l.552-.552c.216.107.448.167.688.185l.198.75c.096.35.453.56.805.466.35-.094.56-.453.466-.807l-.2-.744c.093-.066.19-.14.278-.227.086-.087.16-.184.227-.28l.744.2c.35.095.71-.115.803-.463.094-.35-.113-.708-.462-.805zm-2.24.418c-.258.258-.673.256-.93 0-.254-.254-.256-.67 0-.928.256-.255.673-.255.93 0 .254.256.254.674 0 .928zm-19.96-3.778l-.743.2c-.07-.095-.14-.19-.228-.278-.088-.086-.182-.16-.28-.227l.2-.745c.093-.35-.116-.71-.462-.803-.352-.094-.71.115-.805.464l-.203.754c-.238.02-.466.078-.684.18l-.55-.547c-.26-.258-.673-.256-.928 0-.256.256-.256.672 0 .928l.548.55c-.103.218-.163.448-.18.685l-.754.2c-.352.097-.56.454-.466.806.095.35.454.556.806.465l.742-.202c.066.1.14.194.23.28.087.087.18.164.278.228l-.2.745c-.093.352.116.714.464.807.352.094.708-.115.802-.465l.203-.75c.238-.02.47-.08.688-.184l.55.55c.254.257.668.252.926-.004.253-.255.257-.67 0-.927l-.552-.55c.106-.217.168-.45.184-.69l.754-.198c.348-.095.556-.453.462-.805-.094-.348-.453-.556-.806-.465zm-1.9 1.78c-.256.255-.672.255-.93 0-.254-.256-.254-.674 0-.928.258-.255.673-.255.93 0s.254.672 0 .927zM32 11c0-3.86-3.14-7-7-7-.332 0-.66.023-.987.07C22.146 1.526 19.2 0 16 0S9.855 1.526 7.987 4.07C7.66 4.023 7.332 4 7 4c-3.86 0-7 3.14-7 7s3.14 7 7 7c.856 0 1.693-.156 2.482-.458C11.292 19.12 13.594 20 16 20c2.41 0 4.708-.88 6.518-2.458.79.302 1.626.458 2.482.458 3.86 0 7-3.14 7-7zm-9.87 4.083C20.66 16.85 18.476 18 16 18s-4.662-1.148-6.13-2.917C9.06 15.656 8.07 16 7 16c-2.762 0-5-2.238-5-5s2.238-5 5-5c.676 0 1.316.138 1.902.38C10.23 3.792 12.892 2 16 2s5.77 1.792 7.096 4.38C23.683 6.138 24.326 6 25 6c2.762 0 5 2.238 5 5s-2.238 5-5 5c-1.07 0-2.057-.344-2.87-.917z"/></svg>