<svg xmlns="http://www.w3.org/2000/svg" width="32" height="32" viewBox="0 0 32 32"><path fill="#444" d="M4.122 15.653v1.934c0 .258-.226.45-.483.45h-.26v.098h2.225v-.097h-.258c-.258 0-.484-.226-.484-.45v-4.32c0-.225.226-.45.484-.45h.258v-.097H3.38v.096h.26c.29 0 .482.226.482.45v2.097H1.48v-2.096c0-.225.225-.45.482-.45h.258v-.097H-.004v.096h.258c.29 0 .484.226.484.45v4.322c0 .225-.226.45-.484.45h-.258v.098H2.22v-.097h-.258c-.257 0-.483-.226-.483-.45v-1.935H4.12zM9.408 16.716c.033.323-.193.806-.45 1.064-.26.226-.646.45-1.13.45-.58 0-1.063-.29-1.256-.385-.097-.033-.258-.033-.323 0-.097.064-.162.16-.194.354H5.96v-1.87h.096c.064.58.355.934.516 1.128.29.322.806.483 1.29.42.386-.066.837-.485.773-1.033-.033-.193-.065-.483-.452-.74-.257-.162-.612-.388-.934-.613-.42-.29-.807-.58-.936-.71-.13-.16-.322-.386-.322-.773 0-.323.128-.678.386-.936s.613-.42 1.13-.42c.514 0 .87.26.998.323.13.065.258.033.354 0 .065-.064.13-.13.162-.322h.096v1.773h-.096c-.065-.58-.323-1-.516-1.16-.16-.162-.516-.387-1.032-.29-.483.096-.74.322-.773.71-.032.29.13.482.226.58.194.224 1.386.9 1.934 1.385.29.258.516.548.548 1.063zM12.922 15.363c.967.322 1.257 1.03 1.063 1.708-.225.84-1.16 1-1.45 1.032-.13.033-.484.033-.838.033h-2.03v-.097h.322c.192 0 .45-.16.45-.42v-4.35c0-.258-.226-.42-.42-.42H9.7v-.096h1.934c.452 0 .71.032.87.064.29.065 1.064.29 1.258 1.032.16.58-.13 1.32-.838 1.515zm25.437-6.924c.257.063 1.063.096 1.353-.098.484-.29.645-.806.548-1.225-.063-.258-.192-.483-.418-.677-.45-.322-1.128-.29-1.483-.16v2.16zm-3.66 2.303c.387.13 1.096.194 1.58-.16.612-.42.74-1.484-.13-2.032-.354-.224-1.192-.192-1.482-.128v2.32zM19.11 12.816l.065 1.838h-.097c-.064-.452-.225-.806-.45-1-.065-.064-.194-.193-.356-.29-.29-.193-.71-.354-1.224-.258-.774.13-1.16.645-1.354 1.128-.258.613-.387 1.644 0 2.515.322.708.967.998 1.483 1.062.42.065 1.353.033 2.095-.934l.13.064c-.55.774-1.29 1.29-2.13 1.29-1.095 0-1.772-.613-2.062-.968-.322-.386-.58-1.096-.58-1.708 0-.548.13-1.16.322-1.515.355-.61 1.064-1.224 2-1.32.708-.065 1.16.064 1.546.29.194.096.322.13.42.064.096-.032.193-.13.193-.322z"/><path fill="none" d="M23.688 12.72h5.447v5.447h-5.447z"/><path fill="#444" d="M20.98 15.427l2.708 2.708V12.72zM23.688 18.135h5.447l-2.74-2.708zM26.395 15.427l2.74-2.707h-5.447zM29.135 12.72v5.415l2.708-2.708z"/></svg>