<svg xmlns="http://www.w3.org/2000/svg" width="32" height="32" viewBox="0 0 32 32"><path fill="#444" d="M20.378 27.73l-1.125-.648c.034-.195.06-.394.06-.602s-.026-.406-.063-.602l1.128-.65c.526-.307.706-.983.404-1.506-.305-.53-.98-.71-1.508-.406l-1.137.656c-.305-.26-.648-.462-1.03-.6v-1.306c0-.61-.497-1.105-1.106-1.105s-1.103.496-1.103 1.106v1.305c-.383.138-.728.343-1.033.603l-1.134-.656c-.53-.305-1.206-.125-1.51.405-.305.526-.12 1.203.406 1.508l1.122.648c-.037.197-.06.396-.06.603s.023.407.06.603l-1.122.648c-.53.306-.71.985-.406 1.513s.98.707 1.508.402l1.135-.652c.305.258.65.46 1.034.598v1.31c0 .61.495 1.102 1.104 1.102s1.106-.492 1.106-1.102v-1.31c.383-.136.73-.34 1.033-.6l1.134.655c.53.305 1.203.125 1.508-.402s.125-1.203-.404-1.512zM16 27.586c-.61 0-1.105-.496-1.105-1.105S15.39 25.38 16 25.38s1.104.494 1.104 1.103-.495 1.106-1.104 1.106zM25 4c-.332 0-.66.023-.987.07C22.146 1.526 19.2 0 16 0S9.855 1.526 7.987 4.07C7.66 4.023 7.332 4 7 4c-3.86 0-7 3.14-7 7s3.14 7 7 7c.856 0 1.693-.156 2.482-.458C11.292 19.12 13.594 20 16 20c2.41 0 4.708-.88 6.518-2.458.79.302 1.626.458 2.482.458 3.86 0 7-3.14 7-7s-3.14-7-7-7zm0 12c-1.07 0-2.057-.344-2.87-.917C20.66 16.85 18.476 18 16 18s-4.662-1.148-6.13-2.917C9.06 15.656 8.07 16 7 16c-2.762 0-5-2.238-5-5s2.238-5 5-5c.676 0 1.316.138 1.902.38C10.23 3.792 12.892 2 16 2s5.77 1.792 7.096 4.38C23.683 6.138 24.326 6 25 6c2.762 0 5 2.238 5 5s-2.238 5-5 5z"/></svg>