<svg xmlns="http://www.w3.org/2000/svg" width="32" height="32" viewBox="0 0 32 32"><path fill="#444" d="M25 4c-.332 0-.66.023-.987.07C22.146 1.526 19.2 0 16 0S9.855 1.526 7.987 4.07C7.66 4.023 7.332 4 7 4c-3.86 0-7 3.14-7 7s3.14 7 7 7c.856 0 1.693-.156 2.482-.458.768.67 1.64 1.185 2.557 1.588l1.556-1.555c-1.466-.477-2.76-1.33-3.725-2.492-.81.573-1.8.917-2.87.917-2.762 0-5-2.238-5-5s2.238-5 5-5c.676 0 1.316.138 1.902.38C10.23 3.792 12.892 2 16 2s5.77 1.792 7.096 4.38C23.683 6.138 24.326 6 25 6c2.762 0 5 2.238 5 5s-2.238 5-5 5c-1.07 0-2.057-.344-2.87-.917-.65.783-1.458 1.417-2.353 1.91l-.84 2.522c1.305-.41 2.53-1.06 3.58-1.974.79.303 1.627.46 2.483.46 3.86 0 7-3.142 7-7s-3.14-7-7-7zM12 22l2 2-2 6 6-6-2-2 2-6-6 6z"/></svg>