<svg xmlns="http://www.w3.org/2000/svg" width="32" height="32" viewBox="0 0 32 32"><path fill="#444" d="M25 6c-.332 0-.66.023-.987.07C22.146 3.526 19.2 2 16 2S9.855 3.526 7.987 6.07C7.66 6.023 7.332 6 7 6c-3.86 0-7 3.14-7 7s3.14 7 7 7c.856 0 1.693-.156 2.482-.458C11.292 21.12 13.594 22 16 22c2.41 0 4.708-.88 6.518-2.458.79.302 1.626.458 2.482.458 3.86 0 7-3.14 7-7s-3.14-7-7-7zm0 12c-1.07 0-2.057-.344-2.87-.917C20.66 18.85 18.476 20 16 20s-4.662-1.148-6.13-2.917C9.06 17.656 8.07 18 7 18c-2.762 0-5-2.238-5-5s2.238-5 5-5c.676 0 1.316.138 1.902.38C10.23 5.792 12.892 4 16 4s5.77 1.792 7.096 4.38C23.683 8.138 24.326 8 25 8c2.762 0 5 2.238 5 5s-2.238 5-5 5zM14 28c0 1.105.895 2 2 2s2-.895 2-2-2-4-2-4-2 2.895-2 4z"/></svg>