<svg xmlns="http://www.w3.org/2000/svg" width="32" height="32" viewBox="0 0 32 32"><path fill="#444" d="M6.232 11.16v17.697H.34V11.16H6.23zm.375-5.464Q6.625 7 5.705 7.876t-2.42.874H3.25q-1.465 0-2.358-.875T0 5.695q0-1.32.92-2.187t2.4-.866 2.376.866.91 2.188zM27.43 18.714v10.143h-5.876v-9.464q0-1.875-.723-2.938t-2.258-1.063q-1.125 0-1.884.616t-1.134 1.527q-.196.536-.196 1.446v9.876H9.483q.036-7.125.036-11.554t-.02-5.286l-.017-.857h5.875v2.57h-.036q.357-.57.732-1t1.01-.93 1.553-.776 2.045-.277q3.054 0 4.91 2.027t1.858 5.938z"/></svg>