<svg xmlns="http://www.w3.org/2000/svg" width="32" height="32" viewBox="0 0 32 32"><path fill="#444" d="M16.052 10.696c-2.912 0-5.273 2.36-5.273 5.273s2.36 5.272 5.272 5.272 5.273-2.36 5.273-5.273-2.36-5.274-5.273-5.274zm-.113 8.395c-1.708 0-3.092-1.383-3.092-3.09s1.384-3.09 3.09-3.09S19.03 14.292 19.03 16s-1.384 3.09-3.09 3.09zM24.7 6.934H7.3c-.2 0-.366.165-.366.367v17.4c0 .2.165.366.367.366h17.4c.2 0 .366-.165.366-.367V7.3c0-.2-.165-.366-.367-.366zm-8.648 16.41c-4.095 0-7.415-3.32-7.415-7.415s3.32-7.416 7.415-7.416 7.415 3.32 7.415 7.415-3.32 7.414-7.415 7.414z"/></svg>