<svg xmlns="http://www.w3.org/2000/svg" width="32" height="32" viewBox="0 0 32 32"><path fill="#444" d="M5.46 16.007c0 1.514-1.22 2.727-2.733 2.727C1.22 18.734 0 17.52 0 16.014c0-1.54 1.22-2.748 2.774-2.748 1.474 0 2.687 1.24 2.687 2.74zm-5.18 0c0 1.354 1.094 2.44 2.447 2.44 1.347 0 2.447-1.08 2.447-2.433 0-1.38-1.08-2.46-2.467-2.46C1.38 13.554.28 14.66.28 16.008zm1.847-.114l-.033.067c-.12-.027-.353-.113-.593-.22l-.032.06.1.053c.347.18.467.22.66.22.407 0 .713-.227.86-.633.247-.053.567-.073.954-.073.327 0 .607.013.974.06l-.093.113c-.167-.02-.48-.04-.7-.04-.273 0-.433 0-.527.007l-.04.1c.22-.013.3-.013.473-.013.3 0 .532.013.726.027l-.093.128c-.347-.013-.5-.02-.76-.02-.14 0-.247.007-.413.013l-.047.1c.147-.012.353-.02.56-.02s.447.008.587.014l-.093.12c-.1-.007-.287-.007-.433-.007-.233 0-.533.013-.68.033l-.047.087c.28-.027.453-.04.76-.04.12 0 .193 0 .333.013l-.107.127c-.187-.013-.247-.013-.32-.013-.513 0-.853.073-1.194.267.312.314.826.528 1.293.528.04 0 .06 0 .16-.007l-.22.228c-1.234-.327-1.454-.413-2.587-1.087-.447-.252-.814-.426-1.107-.512l.04-.14c.066.013.22.053.36.107l.066-.153 1.214.513zM29.266 17.114c0-.393.253-.673.753-.814.08-.02.332-.08.766-.153.18-.04.253-.093.253-.227 0-.147-.154-.24-.38-.24-.274 0-.448.133-.448.36h-.78c0-.593.467-.947 1.247-.947.813 0 1.206.34 1.206 1.027v1.34c0 .227 0 .227.08.367h-.8l-.047-.22c-.314.253-.508.327-.848.327-.587 0-1.007-.347-1.007-.82zm1.567-.474c-.093.013-.2.04-.313.067-.28.073-.413.187-.413.353 0 .173.127.267.347.267.42 0 .613-.187.613-.573v-.18c-.107.033-.147.033-.233.067zm-4.294.314h.84v.033c0 .22.18.353.466.353.247 0 .4-.093.4-.24 0-.153-.14-.247-.473-.3l-.273-.047c-.62-.107-.887-.333-.887-.747 0-.573.473-.914 1.254-.914.547 0 .887.147 1.06.467.073.126.087.172.107.46h-.8c-.02-.248-.127-.34-.387-.34-.213 0-.347.08-.347.22 0 .126.127.2.413.246l.293.053c.62.106.907.372.907.826 0 .553-.467.907-1.214.907-.88 0-1.36-.347-1.36-.98zm-5.63.16c0-.393.26-.673.76-.814.08-.02.334-.073.76-.153.188-.04.26-.093.26-.227 0-.147-.152-.24-.386-.24-.273 0-.44.127-.447.36h-.78c0-.593.467-.947 1.24-.947.814 0 1.22.34 1.22 1.027v1.34c0 .227 0 .227.067.367h-.794l-.047-.22c-.273.24-.507.327-.847.327-.58 0-1.007-.347-1.007-.82zm1.575-.474c-.107.02-.2.047-.313.067-.28.073-.413.187-.413.353 0 .173.132.267.346.267.407 0 .607-.187.607-.573v-.18c-.113.033-.147.033-.227.067zm-10.636.84c-.114-.193-.134-.293-.134-.727v-1.547h.86v1.514c0 .387.107.54.38.54.28 0 .427-.18.427-.54v-1.514h.854v2.62h-.78l-.027-.26c-.213.228-.453.328-.754.328-.367 0-.673-.147-.827-.413zm13.642.347V16.34c0-.387-.113-.547-.38-.547-.28 0-.42.18-.42.547v1.487h-.854v-2.62h.78l.027.292c.2-.26.44-.374.76-.374.367 0 .66.16.814.433.112.2.126.312.126.746v1.52h-.854zm-5.628 0V16.34c0-.38-.12-.547-.38-.547-.28 0-.42.18-.42.547v1.487h-.86V14.18h.86v1.32c.153-.26.38-.373.707-.373.36 0 .654.153.815.433.113.2.127.307.127.747v1.52h-.847zm-2.487 0c-.507 0-.74-.24-.74-.767v-1.28h-.36v-.573h.36v-.827h.854v.827h.488v.573h-.487v1.04c.008.387.034.407.36.407h.168v.6h-.64zm-2.594 0V15.78h-.373v-.573h.373v-.08c0-.693.26-.947.927-.947h.467v.58h-.14c-.32 0-.4.073-.4.367v.08h.507v.573h-.507v2.047h-.854zm-5.68 0V14.18h.906v2.927h1.54v.72H9.1z"/></svg>