<svg xmlns="http://www.w3.org/2000/svg" width="32" height="32" viewBox="0 0 32 32"><path fill="#444" d="M25 10c-.332 0-.66.023-.987.07C22.146 7.526 19.2 6 16 6s-6.145 1.526-8.013 4.07C7.66 10.023 7.332 10 7 10c-3.86 0-7 3.14-7 7s3.14 7 7 7c.856 0 1.693-.156 2.482-.458C11.292 25.12 13.594 26 16 26c2.41 0 4.708-.88 6.518-2.458.79.302 1.626.458 2.482.458 3.86 0 7-3.14 7-7s-3.14-7-7-7zm0 12c-1.07 0-2.057-.344-2.87-.917C20.66 22.85 18.476 24 16 24s-4.662-1.148-6.13-2.917C9.06 21.656 8.07 22 7 22c-2.762 0-5-2.238-5-5s2.238-5 5-5c.676 0 1.316.138 1.902.38C10.23 9.792 12.892 8 16 8s5.77 1.792 7.096 4.38c.587-.242 1.23-.38 1.904-.38 2.762 0 5 2.238 5 5s-2.238 5-5 5z"/></svg>