<svg xmlns="http://www.w3.org/2000/svg" width="32" height="32" viewBox="0 0 32 32"><path fill="#444" d="M24 0H8C6.342 0 5 1.343 5 3v26c0 1.658 1.343 3 3 3h16c1.656 0 3-1.344 3-3V3c0-1.658-1.344-3-3-3zm1 29c0 .55-.45 1-1 1H8c-.552 0-1-.447-1-1v-2.004h18V29zm0-3.004H7V6h18v19.996zM25 5H7V3c0-.552.448-1 1-1h16c.55 0 1 .448 1 1v2zm-7-1.5c0 .276-.225.5-.5.5h-3c-.277 0-.5-.224-.5-.5 0-.277.223-.5.5-.5h3c.275 0 .5.223.5.5zm-1 24.996c0 .275-.225.5-.5.5h-1c-.276 0-.5-.225-.5-.5 0-.277.224-.5.5-.5h1c.275 0 .5.223.5.5z"/></svg>