<svg xmlns="http://www.w3.org/2000/svg" width="32" height="32" viewBox="0 0 32 32"><path fill="#444" d="M20.946 18.982q0-.893-.348-1.634t-.866-1.223-1.304-.875-1.473-.607-1.563-.41l-1.857-.43q-.536-.125-.786-.188t-.626-.205-.536-.286-.295-.375-.134-.537q0-1.375 2.57-1.375.768 0 1.375.214t.964.51.678.597.714.517.857.214q.838 0 1.347-.57t.51-1.375q0-.982-1-1.777T16.64 7.963t-3.25-.41q-1.214 0-2.357.276T8.9 8.667t-1.59 1.554-.598 2.295q0 1.09.34 1.902t1 1.347 1.428.866 1.84.58l2.606.643q1.607.393 2 .643.57.356.57 1.07 0 .696-.713 1.152t-1.875.455q-.91 0-1.634-.286t-1.16-.687-.814-.804-.82-.69-.965-.285q-.893 0-1.348.536t-.455 1.34q0 1.643 2.18 2.813t5.195 1.17q1.304 0 2.5-.33t2.188-.955 1.58-1.67.59-2.348zm6.483 3.875q0 2.84-2.01 4.848t-4.848 2.01q-2.32 0-4.18-1.43-1.374.286-2.678.286-2.554 0-4.884-.99T4.812 24.9t-2.68-4.017T1.143 16q0-1.305.286-2.68-1.43-1.857-1.43-4.18 0-2.838 2.01-4.847t4.848-2.01q2.32 0 4.18 1.43 1.374-.286 2.678-.286 2.554 0 4.884.99t4.018 2.68 2.68 4.018.99 4.884q0 1.303-.286 2.678 1.43 1.857 1.43 4.18z"/></svg>