<svg xmlns="http://www.w3.org/2000/svg" width="32" height="32" viewBox="0 0 32 32"><path fill="#444" d="M14.97 13.566c-.007.02-.014.038-.025.05-.01.015-.025.024-.047.03s-.054.01-.09.014c-.04.002-.09.002-.152.002h-.126c-.036 0-.067-.002-.09-.005-.026-.003-.045-.007-.062-.012-.015-.005-.027-.01-.037-.018s-.02-.016-.025-.026c-.006-.01-.01-.024-.015-.04l-.715-2.13c-.015-.045-.025-.08-.028-.107-.002-.026.003-.044.02-.06.015-.01.04-.02.078-.023s.09-.005.157-.005c.056 0 .1 0 .133.003s.057.007.074.012c.016.007.028.016.035.03.007.01.014.025.02.044l.585 1.855h.002l.574-1.846c.005-.02.01-.038.018-.052.007-.012.02-.024.038-.03.018-.008.044-.01.076-.015.035-.002.08-.003.138-.003.06 0 .1.002.134.006.032.002.053.012.064.026.012.015.016.034.012.062-.005.025-.015.06-.03.103l-.716 2.134zM16.36 13.583c0 .012-.003.025-.01.034-.01.01-.02.018-.04.024-.02.01-.045.013-.074.017-.032.003-.07.006-.12.006-.047 0-.086-.002-.117-.006-.034-.003-.058-.008-.077-.016-.018-.005-.033-.013-.04-.023-.01-.01-.012-.02-.012-.034v-2.27c0-.012.004-.023.012-.033.008-.01.023-.02.04-.025.02-.006.046-.01.077-.015.03-.003.07-.005.116-.005.05 0 .088 0 .12.005.03.003.055.01.074.015s.032.014.04.025c.007.01.01.02.01.033v2.27zM18.054 13.447c0 .038-.002.07-.005.094-.004.028-.01.047-.015.065-.008.017-.015.028-.024.035-.01.01-.02.012-.032.012h-1.102c-.04 0-.074-.014-.104-.036-.028-.025-.042-.063-.042-.118v-2.184c0-.01.005-.02.012-.032s.02-.02.04-.026c.018-.006.043-.01.076-.014.03-.003.07-.005.116-.005.05 0 .09 0 .12.005.03.002.056.008.074.014.02.007.033.016.04.026.008.01.012.02.012.032v1.936h.757c.012 0 .023.002.033.01.01.006.016.017.024.033.006.016.01.036.014.06.002.027.005.058.005.095zM19.51 13.447c0 .038-.002.07-.006.094-.003.028-.008.047-.014.065-.006.017-.014.028-.023.035-.01.01-.02.012-.033.012h-1.102c-.04 0-.076-.014-.104-.036-.027-.025-.042-.063-.042-.118v-2.184c0-.01.005-.02.012-.032s.02-.02.04-.026c.02-.006.044-.01.075-.014.032-.003.07-.005.118-.005.05 0 .09 0 .12.005.03.002.055.008.073.014.018.007.032.016.04.026.01.01.012.02.012.032v1.936h.757c.01 0 .024.002.033.01s.017.017.023.033.01.036.014.06c.003.027.005.058.005.095zM21.872 13.575c-.003-.026-.014-.06-.027-.105l-.744-2.132c-.006-.024-.015-.042-.026-.055-.01-.015-.027-.024-.052-.03-.024-.007-.06-.01-.1-.012l-.176-.002c-.063 0-.113 0-.152.003-.038.002-.068.007-.09.013-.02.007-.037.016-.047.03-.01.012-.018.028-.025.05l-.742 2.133c-.015.044-.024.078-.027.105-.003.026 0 .047.012.06s.035.025.067.028c.033.003.077.006.134.006.053 0 .096 0 .13-.003.033 0 .058-.006.077-.014.017-.007.03-.017.037-.028s.016-.027.02-.043l.152-.47h.903l.16.483c.004.017.013.03.02.038.007.01.02.018.04.025.017.006.042.01.08.01.034.003.084.004.146.004s.11 0 .145-.006c.034-.002.06-.01.072-.024.012-.012.018-.032.015-.06zm-1.474-.847l.34-1.022.342 1.022h-.682zM23.88 11.62c0 .037-.002.068-.006.093s-.007.047-.012.063c-.007.015-.014.027-.02.033s-.018.007-.03.007c-.016 0-.04-.01-.077-.034-.037-.02-.085-.046-.143-.07-.06-.028-.13-.052-.214-.074-.08-.022-.176-.034-.285-.034-.117 0-.222.02-.316.06-.095.042-.175.098-.24.17-.07.074-.12.163-.157.266-.035.104-.054.22-.054.343 0 .138.02.26.055.364.037.103.09.19.155.262.065.07.143.123.237.16.092.034.193.053.304.053.054 0 .108-.006.162-.02.054-.01.103-.03.15-.054v-.555h-.457c-.023 0-.038-.015-.05-.043s-.02-.076-.02-.14c0-.037.002-.066.004-.09.003-.024.008-.042.015-.056.005-.015.01-.025.02-.032s.02-.01.03-.01h.81c.02 0 .04.003.055.01s.03.017.04.032c.01.012.022.03.027.05s.01.04.01.066v.956c0 .037-.007.07-.02.097-.013.028-.04.05-.08.067-.04.016-.09.032-.15.05-.06.017-.122.033-.184.045-.065.012-.13.02-.194.027-.065.007-.13.01-.195.01-.194 0-.366-.027-.516-.082-.152-.055-.28-.135-.387-.24s-.185-.23-.24-.382c-.058-.15-.085-.32-.085-.512 0-.196.03-.373.09-.53.06-.158.143-.29.25-.4.11-.11.24-.193.395-.25.157-.058.327-.09.516-.09.104 0 .2.01.285.024.085.014.16.03.223.05.064.02.118.045.16.068.042.024.07.044.088.062s.03.04.036.073c.008.032.01.078.01.14zm1.692 1.84c0 .035-.002.067-.006.09-.003.024-.008.043-.015.058-.005.015-.01.026-.022.033-.01.01-.02.012-.03.012H24.29c-.04 0-.076-.014-.1-.037-.03-.025-.044-.064-.044-.118V11.4c0-.053.014-.093.043-.116.025-.025.06-.036.1-.036h1.2c.01 0 .02.003.03.01.01.007.016.016.023.032.006.016.01.036.014.06.003.025.005.055.005.093 0 .034 0 .064-.005.088s-.008.045-.014.058c-.007.015-.014.027-.023.034-.01.006-.02.01-.03.01h-.857v.585h.725c.01 0 .023.005.032.012.01.005.017.016.024.03.005.014.01.033.014.056.003.024.005.054.005.088 0 .036 0 .067-.005.09-.002.023-.01.042-.014.055-.007.014-.015.025-.024.03s-.02.01-.032.01h-.725v.68h.865c.01 0 .02.002.03.01.01.006.017.016.023.03.008.017.012.035.016.06.003.025.006.054.006.09zm-10.645 2.047c0-.08-.02-.145-.054-.2-.036-.056-.095-.095-.177-.116-.025-.006-.053-.01-.085-.014s-.075-.006-.13-.006h-.22v.68h.25c.068 0 .13-.007.182-.024.052-.016.095-.04.13-.07.035-.03.06-.068.078-.11s.027-.088.027-.14zm.63 1.63c0 .013-.003.025-.01.036-.004.008-.016.016-.035.02-.017.008-.045.01-.08.015-.036.002-.087.005-.148.005-.052 0-.094-.002-.124-.005-.032-.003-.056-.008-.074-.014-.017-.008-.03-.016-.037-.026-.01-.01-.015-.024-.02-.038l-.215-.538c-.026-.06-.05-.114-.076-.16-.026-.05-.053-.087-.084-.118-.03-.032-.064-.056-.105-.072-.038-.015-.084-.024-.135-.024h-.152v.916c0 .01-.006.024-.014.034s-.02.018-.04.024c-.02.007-.043.01-.073.016-.032.002-.07.006-.12.006-.046 0-.086-.003-.118-.006-.033-.005-.057-.01-.075-.016-.02-.006-.032-.014-.04-.024s-.01-.023-.01-.034V14.95c0-.053.015-.093.04-.117.03-.023.065-.035.105-.035h.624c.063 0 .114 0 .156.003l.11.01c.098.014.186.037.263.07.077.034.144.078.198.132.054.054.095.117.123.19.03.075.043.16.043.255 0 .08-.01.153-.03.22-.022.065-.05.125-.09.177s-.088.097-.145.136c-.06.038-.124.068-.2.092.037.016.07.038.103.062.03.026.06.055.088.09.03.036.056.077.08.12.026.046.05.1.073.155l.203.473c.017.047.03.08.036.103.008.02.01.04.01.052zM17.853 15.43c-.047-.153-.118-.28-.21-.38-.095-.1-.212-.175-.352-.223-.137-.05-.3-.072-.48-.072-.19 0-.36.028-.502.087-.144.06-.266.143-.364.25-.097.11-.17.242-.22.397-.05.156-.074.33-.074.524 0 .212.023.396.068.55.047.154.117.282.21.382s.21.175.348.224c.14.05.302.073.49.073s.356-.028.5-.087c.144-.058.265-.14.364-.25.098-.11.17-.245.22-.4.05-.158.074-.336.074-.537 0-.208-.024-.39-.07-.54zm-.473.893c-.02.103-.054.192-.105.268-.05.078-.114.137-.194.183-.08.045-.18.068-.3.068s-.22-.02-.3-.058c-.078-.038-.142-.096-.19-.17-.046-.075-.08-.164-.1-.27-.018-.103-.028-.22-.028-.353 0-.114.01-.22.03-.32.02-.102.055-.19.106-.266.05-.074.114-.135.195-.18.08-.045.18-.07.3-.07.118 0 .22.022.298.063.08.038.143.097.192.17.047.073.08.162.1.266.02.103.03.218.03.344 0 .115-.01.223-.032.326zM20.18 17.126c-.003-.027-.012-.063-.027-.107l-.743-2.13c-.008-.026-.017-.044-.028-.058-.01-.012-.027-.023-.052-.03-.023-.006-.058-.01-.1-.01-.044-.004-.1-.006-.174-.006-.064 0-.115 0-.153.005-.04.002-.07.007-.09.013s-.037.017-.05.03c-.008.013-.016.03-.024.05l-.742 2.132c-.016.044-.025.08-.028.106-.003.026 0 .047.012.06.012.015.035.024.067.028.032.002.077.006.133.006.053 0 .095-.002.13-.005.033-.003.058-.008.077-.015.017-.007.03-.016.038-.027.008-.014.015-.027.02-.044l.15-.47h.904l.16.483c.008.016.013.03.02.04.008.01.02.016.04.022.017.005.045.008.078.01.036 0 .086.003.15.003.06 0 .107-.002.142-.006.034-.002.06-.01.073-.024.012-.012.018-.033.014-.058zm-1.472-.848l.34-1.023.342 1.023h-.682zM22.254 15.462c-.053-.147-.13-.267-.233-.366-.1-.1-.227-.175-.376-.224s-.33-.073-.547-.073h-.615c-.042 0-.077.01-.105.033-.027.025-.04.065-.04.12v2.096c0 .053.013.09.04.115.028.026.063.036.105.036h.574c.212 0 .396-.02.55-.067.153-.047.285-.12.393-.22.107-.097.188-.227.247-.382.058-.156.087-.345.087-.565 0-.19-.027-.357-.08-.502zm-.47.882c-.03.103-.077.192-.14.262-.06.07-.137.122-.228.157s-.204.052-.338.052h-.255V15.18h.248c.15 0 .272.02.364.06.092.04.167.097.226.17.06.07.1.154.13.254.026.097.04.203.04.318 0 .138-.015.26-.046.363zM24.008 16.48c0 .126-.025.238-.07.333-.048.095-.11.175-.193.24-.08.063-.174.11-.283.14-.107.036-.22.05-.345.05-.082 0-.16-.006-.23-.018-.072-.016-.135-.03-.19-.05-.054-.02-.1-.04-.137-.06-.035-.022-.062-.042-.078-.057-.017-.016-.028-.04-.035-.07-.006-.028-.01-.074-.01-.13 0-.04 0-.07.004-.097.003-.026.007-.046.012-.063.006-.016.012-.026.024-.033.008-.008.02-.01.03-.01.018 0 .043.01.074.03.032.02.07.042.122.067.05.026.11.048.177.07.067.022.148.03.238.03.06 0 .113-.007.16-.022.046-.012.087-.032.12-.06.034-.026.058-.06.076-.097.017-.036.025-.08.025-.128 0-.053-.015-.1-.045-.14-.03-.037-.068-.072-.115-.105-.048-.03-.103-.06-.163-.085-.06-.025-.122-.055-.188-.083-.064-.03-.127-.066-.188-.1-.06-.04-.115-.086-.162-.137s-.087-.115-.117-.187c-.028-.072-.043-.158-.043-.26 0-.113.02-.214.063-.302.043-.087.1-.16.174-.216.072-.057.157-.1.256-.13s.203-.042.313-.042c.058 0 .114.005.17.012.056.007.11.02.16.035.05.015.093.032.13.052.04.017.066.033.078.045.012.012.02.02.025.033.004.007.008.02.01.032.003.016.007.035.008.054V15.19c-.003.026-.007.046-.01.06-.006.02-.012.03-.02.038-.007.008-.018.012-.033.012-.014 0-.034-.01-.064-.027-.028-.018-.066-.037-.108-.057s-.094-.037-.15-.055c-.058-.016-.12-.023-.188-.023-.053 0-.1.005-.14.02-.04.01-.072.03-.098.053-.028.02-.047.05-.06.08-.013.034-.02.068-.02.105 0 .052.015.1.044.136.03.042.068.077.116.106.05.03.106.06.167.085.062.03.126.056.19.087.064.032.128.062.19.1.06.038.116.083.163.135.05.053.088.115.117.187.03.07.046.153.046.25zM26.105 17.134c0 .01-.003.024-.01.034-.01.01-.022.018-.04.024-.02.006-.044.01-.076.015-.03.003-.07.005-.117.005-.05 0-.09 0-.12-.005s-.057-.01-.075-.015c-.018-.006-.03-.014-.038-.024s-.012-.023-.012-.034v-.972h-.9v.972c0 .01-.002.024-.01.034-.008.01-.02.018-.04.024-.018.006-.042.01-.073.015s-.07.005-.118.005c-.047 0-.086 0-.118-.005-.033-.003-.057-.01-.077-.015-.018-.006-.032-.014-.04-.024s-.01-.023-.01-.034v-2.27c0-.012.002-.024.01-.034.01-.01.022-.018.04-.024.02-.007.044-.01.076-.015.032-.002.07-.006.117-.006.05 0 .087.003.118.007s.055.01.074.016c.017.006.03.014.037.024.01.01.012.02.012.034v.883h.898v-.883c0-.012.005-.024.012-.034s.02-.018.038-.024c.018-.007.043-.01.074-.015s.072-.006.12-.006.087.003.117.007c.03.004.055.01.075.016.018.006.03.014.04.024.007.01.01.02.01.034v2.27zM28.568 15.43c-.047-.153-.12-.28-.212-.38-.094-.1-.21-.175-.35-.223s-.3-.072-.48-.072c-.193 0-.36.028-.504.087-.144.06-.265.143-.364.25-.096.11-.17.242-.22.397-.05.156-.076.33-.076.524 0 .212.024.396.07.55.047.154.116.282.21.382.092.1.21.175.35.224.14.05.3.073.488.073.19 0 .356-.028.5-.087.144-.058.267-.14.364-.25.098-.11.17-.245.22-.4s.074-.336.074-.537c0-.208-.023-.39-.07-.54zm-.472.893c-.02.103-.054.192-.105.268-.048.078-.114.137-.193.183-.08.045-.182.068-.302.068s-.22-.02-.3-.058c-.08-.038-.14-.096-.188-.17-.047-.075-.08-.164-.1-.27-.02-.103-.03-.22-.03-.353 0-.114.01-.22.032-.32.02-.102.054-.19.104-.266.05-.074.114-.135.194-.18.08-.045.182-.07.3-.07s.22.022.3.063c.078.038.142.097.19.17.048.073.08.162.1.266.02.103.03.218.03.344 0 .115-.01.223-.03.326zM31.43 17.076c-.01.03-.02.054-.033.07-.012.02-.032.033-.06.043-.025.007-.058.014-.1.017-.04.002-.09.003-.153.003-.072 0-.127 0-.17-.003-.043-.003-.078-.01-.102-.018-.024-.01-.042-.024-.053-.044-.01-.016-.02-.04-.027-.07l-.386-1.523h-.003l-.364 1.523c-.006.028-.015.052-.025.07-.01.017-.03.032-.053.04-.025.01-.056.018-.1.02-.04.003-.095.004-.164.004-.07 0-.13 0-.17-.003-.044-.003-.078-.01-.102-.018-.025-.01-.042-.024-.054-.044-.01-.016-.02-.04-.027-.07l-.547-2.097c-.01-.045-.017-.08-.018-.107 0-.025.006-.045.02-.06.017-.01.042-.02.077-.023.036-.005.086-.006.148-.006.06 0 .105 0 .14.005.034 0 .06.005.077.01.017.008.028.017.035.03.005.013.01.03.015.054l.42 1.84h.003l.44-1.827c.005-.025.01-.043.018-.057.01-.016.023-.027.042-.035.018-.008.045-.012.08-.016.032-.006.077-.007.132-.007.06 0 .108 0 .142.005.034.002.062.008.08.016.02.008.035.02.043.035.01.013.016.032.02.058l.453 1.828h.005l.422-1.836c.005-.02.01-.037.016-.05.006-.016.018-.027.035-.035s.042-.012.074-.016c.033-.006.078-.007.135-.007.055 0 .096 0 .127.006.03.002.052.01.066.023.014.014.02.035.017.06 0 .028-.008.064-.018.11l-.552 2.092zM15.378 18.81c-.026-.078-.067-.147-.118-.204-.052-.06-.116-.107-.188-.147-.074-.04-.147-.066-.22-.08s-.133-.023-.184-.028c-.052-.005-.106-.007-.162-.007h-.567c-.05 0-.09.016-.12.045-.03.028-.047.073-.047.13v2.164c0 .012.003.024.012.033.007.01.02.02.038.025.02.006.043.01.076.014.03.005.07.007.117.007.048 0 .087-.002.118-.007.03-.002.055-.008.074-.014s.03-.015.038-.025c.008-.01.012-.02.012-.033v-.768h.2c.16 0 .296-.018.415-.055.116-.037.215-.09.295-.16.08-.073.142-.16.185-.265.042-.104.063-.222.063-.357 0-.098-.014-.186-.042-.266zm-.496.473c-.017.052-.043.098-.076.135-.034.038-.076.068-.13.09-.053.02-.117.03-.196.03h-.22v-.816h.21c.05 0 .1.003.147.01.047.008.094.024.135.05.045.026.08.066.11.12.03.055.046.125.046.208 0 .063-.01.12-.026.173zM16.136 20.683c0 .012-.003.024-.01.033-.01.01-.024.02-.042.025-.02.007-.044.012-.076.016-.03.003-.07.006-.118.006-.046 0-.086-.002-.117-.006s-.057-.01-.076-.015-.033-.014-.04-.024c-.008-.01-.01-.02-.01-.033v-2.27c0-.012.002-.025.01-.034.008-.01.022-.02.042-.025.017-.008.043-.012.073-.016.032-.004.07-.007.117-.007.05 0 .09.002.118.006.032.002.056.007.076.015.018.006.03.014.04.024.01.008.012.02.012.033v2.27zM18.17 20.386c0 .032 0 .058-.002.08s-.006.04-.01.055c-.003.016-.01.03-.015.04-.006.01-.016.023-.03.038-.013.014-.038.033-.078.055-.038.02-.087.043-.143.063-.055.02-.12.038-.193.05-.073.017-.152.022-.237.022-.165 0-.313-.026-.447-.076-.13-.052-.245-.126-.337-.23-.093-.1-.166-.226-.214-.378-.05-.15-.076-.325-.076-.527 0-.204.028-.386.083-.544.053-.16.13-.292.228-.4.1-.107.216-.19.353-.246.138-.055.288-.082.452-.082.067 0 .133.006.194.017.06.01.117.024.17.044.053.017.1.038.142.06.042.026.072.045.088.062.018.018.028.032.035.04.007.013.01.027.015.045.003.018.007.037.008.06.003.025.003.054.003.088 0 .04 0 .07-.004.097-.002.026-.007.046-.012.063-.006.016-.014.027-.02.035-.01.008-.02.012-.03.012-.02 0-.044-.012-.072-.034s-.065-.046-.11-.073c-.045-.026-.1-.05-.16-.072s-.14-.032-.224-.032c-.096 0-.18.02-.255.058-.076.04-.14.095-.192.168-.052.072-.093.16-.12.263-.027.104-.04.22-.04.347 0 .14.015.264.043.366.03.105.07.188.125.256.054.067.118.117.195.15.077.033.16.05.257.05.087 0 .16-.01.226-.03.062-.02.117-.043.162-.07.045-.024.08-.046.112-.066.03-.02.05-.03.067-.03.014 0 .024.003.03.008s.012.015.018.03c.007.014.01.034.012.06.002.028.003.063.003.108zM20.196 18.547c0 .035 0 .067-.005.092-.002.023-.006.044-.013.06-.007.015-.014.026-.024.035-.01.007-.02.01-.03.01h-.602v1.938c0 .012-.002.023-.01.033-.008.01-.022.02-.04.025s-.044.012-.074.016c-.032.003-.072.006-.118.006-.047 0-.087-.002-.117-.006-.032-.003-.058-.01-.075-.015-.02-.005-.034-.014-.04-.024-.01-.01-.013-.02-.013-.033v-1.937h-.602c-.012 0-.02-.005-.03-.01-.01-.01-.017-.02-.023-.036-.007-.016-.01-.037-.015-.06-.002-.027-.005-.06-.005-.093 0-.037.002-.07.005-.095.003-.026.008-.046.015-.062.006-.016.014-.027.023-.033.01-.01.018-.01.03-.01h1.695c.01 0 .02 0 .03.01.01.006.017.017.024.033s.01.036.013.062c.003.026.005.058.005.095zM22.367 19.855c0 .148-.02.28-.064.396-.043.117-.108.215-.192.298-.084.08-.186.14-.31.184-.124.04-.267.062-.428.062-.15 0-.286-.02-.406-.056-.122-.038-.222-.095-.306-.17-.083-.08-.147-.175-.19-.29-.045-.114-.066-.247-.066-.4v-1.462c0-.012.005-.025.01-.034.008-.01.02-.018.04-.024.02-.008.045-.012.074-.015.032-.005.072-.007.12-.007s.087.002.117.007c.032.002.058.007.074.015.018.006.032.014.04.024s.01.02.01.034v1.42c0 .095.012.177.037.247.023.07.056.13.1.175.044.045.097.08.158.103.06.024.13.035.205.035.077 0 .147-.01.206-.034.06-.024.113-.06.154-.104.043-.044.074-.1.097-.167.024-.066.035-.142.035-.227v-1.447c0-.012.003-.025.01-.034.008-.01.023-.018.04-.024.018-.008.044-.012.074-.015.033-.005.072-.007.12-.007.046 0 .086.002.115.007.03.002.057.007.075.015.018.006.032.014.04.024.006.01.01.02.01.034v1.44zM24.433 20.636c-.006-.023-.018-.056-.036-.104l-.203-.474c-.023-.058-.047-.107-.072-.153-.025-.045-.05-.086-.08-.12-.026-.036-.057-.067-.09-.09-.03-.026-.063-.047-.1-.065.075-.023.14-.053.2-.092.06-.037.108-.082.148-.134.038-.052.07-.113.09-.177.02-.068.03-.14.03-.22 0-.097-.014-.18-.042-.255-.028-.074-.07-.138-.123-.19-.055-.055-.12-.1-.198-.133-.077-.035-.163-.057-.26-.07-.034-.004-.07-.01-.11-.01-.042-.003-.094-.006-.157-.006h-.622c-.042 0-.074.014-.104.037-.028.025-.042.064-.042.12v2.182c0 .012.005.024.012.033.007.01.02.02.038.025s.043.01.076.014c.032.005.07.007.117.007.05 0 .087 0 .12-.006.03-.002.056-.008.073-.014.02-.006.033-.015.04-.025.008-.01.013-.02.013-.033v-.917h.153c.052 0 .098.008.14.025.036.016.072.04.103.07.03.033.058.073.08.12.027.046.053.1.08.16l.214.537c.005.016.01.028.018.038.008.01.02.02.038.027.018.006.043.01.073.012.03.003.07.005.124.005.06 0 .11-.002.147-.006.037-.002.064-.007.082-.01.018-.008.032-.016.036-.026.005-.01.007-.02.007-.034 0-.012-.002-.03-.01-.05zm-.646-1.44c-.017.043-.043.08-.078.11-.035.028-.08.053-.13.07-.053.016-.114.025-.183.025h-.25v-.68h.22c.055 0 .1 0 .13.005s.06.01.087.016c.08.022.14.06.175.115.035.055.054.122.054.2 0 .053-.01.1-.027.142zM26.075 20.558c0 .036-.002.065-.005.09-.003.024-.007.044-.014.06-.008.014-.015.025-.024.032s-.02.01-.032.01h-1.206c-.04 0-.074-.012-.103-.036-.028-.025-.042-.063-.042-.118V18.5c0-.054.014-.094.043-.117.03-.024.063-.036.104-.036h1.2c.013 0 .022.002.03.01.01.006.017.017.022.03.007.018.012.037.015.06.004.026.006.057.006.093 0 .035 0 .065-.005.088 0 .025-.007.044-.014.06-.006.014-.014.025-.02.032-.01.007-.02.01-.033.01h-.857v.587h.726c.012 0 .023.003.03.01.01.007.018.018.025.032.006.013.01.032.014.057.003.024.006.054.006.09s-.002.063-.005.088c-.002.023-.007.042-.013.056-.007.015-.015.025-.025.03-.008.008-.018.01-.03.01h-.726v.68H26c.013 0 .024 0 .033.008.01.008.016.018.024.034.007.014.01.033.014.058.003.025.006.053.006.09zM27.855 20.03c0 .125-.024.237-.07.332-.047.096-.11.175-.192.24-.08.062-.174.11-.282.143s-.222.05-.345.05c-.082 0-.16-.01-.23-.022-.073-.014-.134-.03-.19-.05-.053-.018-.1-.038-.135-.06-.037-.02-.063-.04-.08-.055-.016-.016-.027-.04-.033-.07-.007-.03-.012-.074-.012-.13 0-.04.003-.072.006-.098s.008-.047.012-.064c.007-.016.014-.026.023-.033.008-.008.02-.01.033-.01.017 0 .042.01.073.03.033.02.073.043.123.068.05.027.108.048.177.07.068.02.15.03.24.03.06 0 .112-.008.158-.02.047-.015.088-.036.12-.06.034-.028.06-.06.075-.097.018-.04.027-.082.027-.13 0-.054-.015-.1-.044-.14-.03-.04-.07-.073-.116-.104-.05-.033-.103-.06-.163-.087s-.124-.055-.188-.086c-.064-.028-.128-.063-.188-.1-.06-.038-.115-.082-.16-.136-.05-.052-.088-.113-.118-.185-.03-.07-.045-.158-.045-.258 0-.115.022-.215.063-.303.044-.087.1-.16.173-.218.073-.058.16-.1.257-.13.098-.028.203-.044.312-.044.058 0 .115.007.173.015.056.01.11.02.158.035.05.015.094.032.132.05.04.02.064.035.078.048.01.012.02.02.025.03.004.008.008.02.01.035.004.014.007.032.01.053v.08c0 .038 0 .066-.003.092-.002.024-.006.045-.01.06-.004.017-.01.03-.018.037-.008.007-.02.01-.034.01-.012 0-.035-.008-.064-.026l-.11-.057c-.042-.02-.093-.038-.15-.055-.056-.016-.118-.025-.188-.025-.052 0-.1.007-.14.02-.037.013-.07.03-.098.053-.026.024-.046.05-.06.083-.013.03-.018.064-.018.102 0 .053.014.098.043.138.03.04.07.073.117.104.05.03.105.06.168.086.062.027.124.055.19.086.062.028.125.063.188.1.06.038.116.082.165.136.05.053.087.114.117.184.03.072.044.157.044.253zM8.39 14.41c.148 0 .34-.01.57-.027l-.6 1.01.006.015c.135.22.242.398.56.398.417 0 .493-.113.818-.715.326-.6 2.158-3.732 2.176-3.763l.02-.035h-.22l-.006.01c-.008.014-.866 1.45-1.256 2.154l-.067.123c-.296.542-.367.67-.83.67-.492 0-.715-.535-.72-.542l-1.38-2.405-.006-.01h-1.28L7.76 14.06c.002.002.177.35.627.35zM10.143 12.563c.395 0 .486-.136.822-.643l.043-.064c.07-.104.282-.514.29-.53l.018-.034H10.09l-.512.865.007.01c.13.213.238.396.558.396zM9.05 12.805c.13 0 .285-.006.465-.02l-.52.973.006.01c.137.225.248.373.544.373.39 0 .453-.105.76-.62l.057-.094c.35-.582 1.23-2.086 1.24-2.1l.018-.035h-.207l-.005.01c-.18.307-.302.505-.346.576-.057.09-.106.173-.15.245-.253.428-.32.544-.747.544-.49 0-.718-.528-.722-.536l-.032-.063c-.043-.076-.082-.15-.12-.22l-.298-.555H7.726l.643 1.145c0 .003.184.37.678.37zM7.758 15.926c.16 0 .37.007.622.018l-.648 1.072.01.01c.124.21.235.39.553.39.378 0 .445-.108.732-.572l.086-.14c.364-.585 3.118-5.332 3.146-5.378l.018-.035h-.232l-.006.01c-.018.034-1.81 3.192-2.194 3.82l-.147.245c-.26.434-.328.55-.754.55-.49 0-.714-.537-.716-.543l-2.333-4.08H4.64l2.49 4.263c.002.005.145.37.63.37zM6.542 20.502l-.067-.074c-.09-.115-5.17-9.043-5.22-9.133l-.007-.012h-1.25l5.25 9.06c0 .006.196.37.625.37.286 0 .633.017.887.03l.143.007.005-.045c-.09-.018-.177-.06-.26-.118-.038-.025-.073-.053-.106-.083zM12.677 11.292l-.006.01c-.038.065-3.704 6.4-4.09 7.027l-.15.243c-.257.433-.324.55-.75.55-.457 0-.65-.396-.713-.524l-.007-.015-.524-.933c-1.104-1.954-3.583-6.35-3.583-6.35l-.007-.01H1.623l4.267 7.47c0 .005.133.372.63.372.15 0 .343.006.573.018l-.628 1.087.007.01c.117.18.255.357.558.357.383 0 .454-.116.76-.598l.074-.117c.387-.608 4.93-8.49 4.976-8.57l.02-.034zM7.17 17.548c.152 0 .347.005.58.012-.102.17-.427.727-.626 1.067l-.007.012.007.01c.13.21.244.362.54.362.388 0 .45-.106.756-.615l.06-.1c.356-.586 4.037-6.91 4.074-6.972l.02-.035h-.21l-.006.01c-.027.048-2.736 4.715-3.146 5.433-.318.557-.586.794-.9.794-.488 0-.713-.534-.716-.542l-3.25-5.694H3.14l3.402 5.89c0 .002.188.368.627.368z"/></svg>