<svg xmlns="http://www.w3.org/2000/svg" width="32" height="32" viewBox="0 0 32 32"><path fill="#444" d="M20.7 13.326l-.155-.013v.506l.14-.014c.097-.01.157-.033.203-.08.1-.1.113-.217.033-.31-.053-.063-.093-.08-.22-.09zM0 12.362v.163l1.188.015.11.826c.06.454.113.823.117.82s.057-.346.117-.76c.06-.412.117-.784.126-.825l.016-.074h1.358l.03.17c.015.095.066.443.113.774s.094.624.104.65c.01.028.067-.32.126-.772l.108-.822h.596c.55 0 .596.004.596.048 0 .026-.15.746-.335 1.6l-.334 1.553h-1.43l-.03-.198-.116-.83s-.096-.637-.105-.648-.07.36-.137.828l-.12.848h-.72c-.397 0-.722-.01-.722-.024S.508 15 .328 14.164C.148 13.333 0 12.623 0 12.59v-.062 7.112h31.967v-7.276H0zm7.906 2.914v.45H5.39v-3.2h2.46v.903H6.676v.245H7.77v.903H6.674v.246h1.23v.45zm3.72 2.116c0 .637-.01 1.18-.027 1.263-.088.46-.403.75-.937.858-.264.054-.92.055-1.167 0-.23-.05-.49-.173-.63-.3-.06-.055-.152-.182-.2-.282l-.09-.18-.016-2.477h1.315v1.06c0 .955.005 1.07.048 1.154.06.117.115.152.207.13.15-.04.155-.08.155-1.262v-1.082h1.34v1.118zm-.024-2.335c-.103.313-.35.54-.726.66-.198.065-.27.074-.7.08-.262.006-.54-.002-.62-.016-.31-.055-.628-.218-.76-.39-.098-.13-.17-.328-.194-.533l-.02-.17h.647c.632 0 .645.002.645.057 0 .08.073.21.135.244.1.053.22.033.305-.052.174-.174.09-.234-.605-.44-.72-.215-.858-.296-.98-.574-.11-.253-.097-.665.028-.91.128-.25.43-.446.806-.526.258-.055.883-.054 1.153.002.513.106.786.38.822.825l.013.17h-1.21v-.063c0-.094-.11-.183-.225-.183-.093 0-.24.085-.24.138 0 .068.142.137.446.217.677.176.893.265 1.077.445.178.172.24.338.24.65 0 .144-.017.31-.037.37zm.68-2.08v-.45h2.846v.903h-.766v2.298H13.05V13.43h-.767v-.45zm3.53 4.898v1.6H14.24l-.576-1.668-.007.834-.007.835h-1.094v-3.2h1.582l.08.225c.045.124.173.487.284.805l.202.58.014-1.61h1.093v1.6zm2.298 0v1.6h-1.313v-3.2h1.313v1.6zm.3-2.6v.452h-2.516v-3.2h2.462v.902H17.18v.245h1.094v.903H17.18v.246h1.23v.45zm3.44 3.857c-.31.31-.646.426-1.234.424-.26 0-.412-.016-.558-.054-.276-.072-.455-.174-.652-.373-.305-.307-.428-.668-.428-1.255s.126-.95.436-1.262c.296-.297.65-.42 1.214-.42.567 0 .92.123 1.22.422.31.312.433.667.433 1.26 0 .596-.12.948-.43 1.257zm-.127-3.405h-.655l-.028-.103c-.015-.056-.053-.275-.084-.486-.064-.435-.094-.487-.294-.52l-.116-.02v1.127H19.26v-3.2h1.107c1.162 0 1.297.01 1.52.123.256.13.354.318.355.68 0 .134-.013.29-.03.347-.043.14-.17.288-.304.356l-.11.057.115.057c.198.098.246.215.315.773.024.196.068.453.097.57s.053.22.053.227-.295.01-.655.01zm4.677 2.148v1.6h-1.576l-.572-1.652-.014 1.652h-1.093v-3.2h1.58l.568 1.627.015-1.628H26.4v1.6zm0-3.748v1.6h-1.574l-.573-1.652-.014 1.652h-1.094v-3.2h1.58l.568 1.627.015-1.628H26.4v1.6zm1.313 1.846v3.53h-.492v-7.06h.493v3.53zm2.79.04v3.49h-.465v-6.977h.465v3.488zM20.436 17.23c-.168.33-.105 1.33.088 1.406.07.028.175.017.233-.024.18-.126.226-1.056.068-1.38-.09-.182-.296-.183-.39 0zM1.414 14.364c.008-.02.007-.043-.002-.052s-.016.007-.014.036c0 .032.008.038.017.017z"/></svg>